<svg width="386" height="62" viewBox="0 0 386 62" fill="none" xmlns="http://www.w3.org/2000/svg">
<path d="M0.964076 25.395C1.07979 23.4356 1.5735 21.8079 2.43748 20.5119C3.30147 19.216 4.39688 18.1823 5.73143 17.3954C7.06597 16.6086 8.56252 16.0532 10.2288 15.7215C11.895 15.3897 13.569 15.22 15.2584 15.22C16.7858 15.22 18.3364 15.328 19.9023 15.544C21.4683 15.76 22.9031 16.1843 24.1914 16.8091C25.4874 17.434 26.5442 18.3057 27.3696 19.4242C28.1951 20.5428 28.6039 22.0239 28.6039 23.8676V39.6816C28.6039 41.0547 28.681 42.3662 28.843 43.6236C28.9973 44.881 29.275 45.8221 29.6685 46.4469H21.1983C21.044 45.9764 20.9129 45.4981 20.8126 45.0044C20.7123 44.5184 20.6429 44.017 20.6043 43.5079C19.2698 44.881 17.7038 45.8375 15.8987 46.3929C14.0936 46.9407 12.2499 47.2184 10.3753 47.2184C8.92509 47.2184 7.57511 47.0409 6.3177 46.6861C5.06029 46.3312 3.96488 45.7835 3.02376 45.043C2.08263 44.3024 1.34978 43.3613 0.817507 42.2196C0.285231 41.0779 0.0229492 39.7202 0.0229492 38.1542C0.0229492 36.4263 0.323801 35.0068 0.93322 33.8883C1.54264 32.7697 2.32177 31.8826 3.28604 31.2115C4.24259 30.5481 5.34572 30.0466 6.57998 29.7149C7.81425 29.3832 9.05623 29.1209 10.3136 28.9204C11.571 28.7275 12.8053 28.5655 14.0164 28.4498C15.2276 28.3341 16.3075 28.1567 17.2487 27.9175C18.1898 27.6861 18.9303 27.339 19.4858 26.8916C20.0335 26.4441 20.288 25.7807 20.2495 24.9244C20.2495 24.0219 20.1029 23.3045 19.8098 22.7799C19.5166 22.2476 19.1232 21.8388 18.6372 21.5456C18.1435 21.2525 17.5804 21.0596 16.9324 20.9594C16.2844 20.8591 15.5901 20.8128 14.8418 20.8128C13.1987 20.8128 11.9028 21.1676 10.9616 21.8696C10.0205 22.5716 9.47279 23.7519 9.31851 25.395H0.964076ZM20.2495 31.5663C19.8946 31.8826 19.4549 32.1218 18.9226 32.2992C18.3904 32.4766 17.8272 32.6232 17.2178 32.7389C16.6084 32.8546 15.9758 32.9549 15.3047 33.032C14.6336 33.1092 13.9701 33.2094 13.3067 33.3252C12.6819 33.4409 12.0647 33.6029 11.4553 33.7957C10.8459 33.9886 10.3213 34.2586 9.86621 34.5903C9.41879 34.922 9.04851 35.3463 8.77852 35.8554C8.50081 36.3645 8.36967 37.0125 8.36967 37.7994C8.36967 38.5862 8.50852 39.1725 8.77852 39.6816C9.04851 40.1908 9.42651 40.5919 9.89707 40.885C10.3676 41.1782 10.9153 41.3865 11.5402 41.5022C12.165 41.6179 12.813 41.6796 13.4842 41.6796C15.1273 41.6796 16.4078 41.4096 17.3027 40.8542C18.2052 40.3065 18.8686 39.6508 19.3006 38.8871C19.7326 38.1234 19.9949 37.352 20.0952 36.5651C20.1955 35.7783 20.2418 35.1534 20.2418 34.6829V31.5663H20.2495Z" fill="#E01111"/>
<path d="M42.3428 16.0454V20.1648H42.4585C43.5539 18.5988 44.8807 17.38 46.4313 16.516C47.9818 15.652 49.7561 15.22 51.754 15.22C53.752 15.22 55.426 15.5903 57.0151 16.3386C58.6042 17.0869 59.8076 18.3983 60.633 20.2805C61.5356 18.946 62.7621 17.7734 64.305 16.7551C65.8555 15.7369 67.6838 15.2277 69.8052 15.2277C71.4097 15.2277 72.8985 15.4206 74.2717 15.814C75.6448 16.2074 76.8173 16.8323 77.797 17.6963C78.7767 18.5603 79.5404 19.6865 80.0881 21.0751C80.6358 22.4636 80.9135 24.1453 80.9135 26.1047V46.4469H72.5668V29.2212C72.5668 28.203 72.5283 27.2387 72.4511 26.3361C72.374 25.4336 72.158 24.6544 71.8031 23.9833C71.4483 23.3199 70.9314 22.7876 70.2449 22.3942C69.5583 22.0008 68.6249 21.8079 67.4523 21.8079C66.2798 21.8079 65.3232 22.0316 64.5981 22.4868C63.873 22.9342 63.3021 23.5282 62.8933 24.2533C62.4844 24.9784 62.2067 25.8039 62.0679 26.7218C61.929 27.6398 61.8596 28.5732 61.8596 29.5144V46.4469H53.5129V29.3987C53.5129 28.4961 53.4897 27.6013 53.4511 26.7218C53.4126 25.8424 53.2429 25.0247 52.9497 24.2842C52.6566 23.5436 52.1629 22.9419 51.4763 22.4868C50.7898 22.0393 49.7792 21.8079 48.4447 21.8079C48.0512 21.8079 47.5344 21.8928 46.8864 22.0702C46.2384 22.2476 45.6136 22.5793 45.0041 23.073C44.3947 23.5668 43.8779 24.2687 43.4459 25.1867C43.0139 26.1047 42.7979 27.3158 42.7979 28.8047V46.4469H34.4512V16.0454H42.3273H42.3428Z" fill="#E01111"/>
<path d="M95.5939 39.157C96.8513 40.3759 98.6487 40.9776 101.002 40.9776C102.683 40.9776 104.133 40.5533 105.352 39.7125C106.563 38.8716 107.312 37.9768 107.589 37.0356H114.941C113.768 40.6844 111.963 43.2918 109.533 44.8578C107.103 46.4238 104.164 47.2106 100.716 47.2106C98.3247 47.2106 96.1647 46.8249 94.2439 46.0612C92.3231 45.2975 90.6954 44.2098 89.3609 42.7981C88.0263 41.3864 87.0003 39.7047 86.2752 37.7376C85.5501 35.7782 85.1875 33.6183 85.1875 31.2732C85.1875 28.9281 85.5578 26.8838 86.3061 24.9244C87.0466 22.965 88.1112 21.2679 89.4843 19.8408C90.8574 18.4137 92.4928 17.2797 94.3905 16.462C96.2882 15.6366 98.4019 15.2277 100.708 15.2277C103.293 15.2277 105.553 15.7291 107.474 16.7243C109.395 17.7271 110.976 19.0694 112.21 20.7511C113.444 22.4405 114.339 24.3613 114.887 26.5135C115.435 28.6735 115.628 30.926 115.473 33.2788H93.5419C93.6576 35.9865 94.3442 37.9459 95.6016 39.157H95.5939ZM105.028 23.1656C104.025 22.0702 102.506 21.5225 100.469 21.5225C99.1347 21.5225 98.0316 21.7462 97.1444 22.2013C96.265 22.6487 95.5553 23.2119 95.0308 23.8753C94.4985 24.5387 94.1282 25.2484 93.9122 25.989C93.6962 26.7372 93.5651 27.4007 93.5265 27.9869H107.111C106.718 25.8733 106.023 24.261 105.021 23.1656H105.028Z" fill="#E01111"/>
<path d="M127.661 16.0454V21.6922H127.777C128.171 20.7511 128.695 19.8794 129.366 19.0771C130.03 18.2748 130.793 17.5883 131.657 17.0174C132.521 16.4466 133.439 16.0069 134.419 15.6983C135.399 15.382 136.417 15.2277 137.474 15.2277C138.022 15.2277 138.631 15.328 139.294 15.5209V23.2813C138.901 23.2042 138.43 23.1347 137.883 23.073C137.335 23.0113 136.803 22.9882 136.294 22.9882C134.766 22.9882 133.47 23.2427 132.413 23.7519C131.356 24.261 130.5 24.9553 129.852 25.8424C129.204 26.7218 128.741 27.7555 128.471 28.9281C128.194 30.1006 128.063 31.3812 128.063 32.7466V46.4469H119.716V16.0454H127.654H127.661Z" fill="#E01111"/>
<path d="M150.812 16.0455V46.447H142.465V16.0455H150.812Z" fill="#E01111"/>
<path d="M170.807 21.5148C169.472 21.5148 168.354 21.8156 167.459 22.425C166.556 23.0344 165.823 23.8136 165.253 24.7778C164.682 25.7421 164.281 26.799 164.049 27.9561C163.818 29.1132 163.694 30.2626 163.694 31.3966C163.694 32.5306 163.81 33.6106 164.049 34.7445C164.288 35.8785 164.666 36.9122 165.199 37.8302C165.731 38.7482 166.441 39.5042 167.343 40.0905C168.246 40.6767 169.341 40.9699 170.637 40.9699C172.635 40.9699 174.178 40.4144 175.25 39.2959C176.33 38.1773 177.001 36.6808 177.279 34.7985H185.332C184.785 38.833 183.219 41.911 180.627 44.0324C178.043 46.1461 174.726 47.2106 170.691 47.2106C168.415 47.2106 166.333 46.8249 164.427 46.0612C162.522 45.2975 160.909 44.233 159.575 42.8598C158.24 41.4867 157.199 39.8513 156.458 37.9536C155.71 36.0559 155.34 33.9654 155.34 31.6897C155.34 29.4141 155.679 27.1538 156.366 25.1327C157.052 23.1116 158.063 21.3682 159.397 19.9025C160.732 18.4291 162.36 17.2874 164.281 16.462C166.201 15.6366 168.4 15.2277 170.868 15.2277C172.674 15.2277 174.409 15.4591 176.076 15.9297C177.742 16.4003 179.231 17.1177 180.542 18.0742C181.853 19.0385 182.926 20.2342 183.743 21.6613C184.569 23.0962 185.039 24.7856 185.155 26.745H176.978C176.43 23.2582 174.371 21.5148 170.807 21.5148V21.5148Z" fill="#E01111"/>
<path d="M189.051 25.395C189.166 23.4356 189.66 21.8079 190.524 20.5119C191.388 19.216 192.483 18.1823 193.818 17.3954C195.153 16.6086 196.649 16.0532 198.315 15.7215C199.982 15.3897 201.656 15.22 203.345 15.22C204.872 15.22 206.423 15.328 207.989 15.544C209.555 15.76 210.99 16.1843 212.278 16.8091C213.574 17.434 214.631 18.3057 215.456 19.4242C216.282 20.5428 216.69 22.0239 216.69 23.8676V39.6816C216.69 41.0547 216.768 42.3662 216.93 43.6236C217.084 44.881 217.362 45.8221 217.755 46.4469H209.285C209.131 45.9764 208.999 45.4981 208.899 45.0044C208.799 44.5184 208.729 44.017 208.691 43.5079C207.356 44.881 205.79 45.8375 203.985 46.3929C202.18 46.9407 200.336 47.2184 198.454 47.2184C197.004 47.2184 195.654 47.0409 194.397 46.6861C193.139 46.3312 192.044 45.7835 191.103 45.043C190.161 44.3024 189.429 43.3613 188.896 42.2196C188.364 41.0856 188.102 39.7279 188.102 38.1619C188.102 36.434 188.403 35.0146 189.012 33.896C189.622 32.7775 190.401 31.8903 191.365 31.2192C192.321 30.5558 193.425 30.0544 194.659 29.7226C195.893 29.3909 197.135 29.1287 198.392 28.9281C199.65 28.7352 200.884 28.5732 202.095 28.4575C203.306 28.3418 204.386 28.1644 205.328 27.9253C206.269 27.6938 207.009 27.3467 207.565 26.8993C208.112 26.4518 208.367 25.7884 208.328 24.9322C208.328 24.0296 208.182 23.3122 207.889 22.7876C207.595 22.2553 207.202 21.8465 206.716 21.5534C206.222 21.2602 205.659 21.0674 205.011 20.9671C204.363 20.8668 203.669 20.8205 202.921 20.8205C201.278 20.8205 199.982 21.1754 199.04 21.8774C198.099 22.5793 197.552 23.7596 197.397 25.4027H189.051V25.395ZM208.336 31.5663C207.981 31.8826 207.541 32.1218 207.009 32.2992C206.477 32.4766 205.914 32.6232 205.304 32.7389C204.695 32.8546 204.062 32.9549 203.391 33.032C202.728 33.1092 202.057 33.2094 201.393 33.3252C200.768 33.4409 200.151 33.6029 199.542 33.7957C198.932 33.9886 198.408 34.2586 197.953 34.5903C197.505 34.922 197.135 35.3463 196.865 35.8554C196.587 36.3645 196.456 37.0125 196.456 37.7994C196.456 38.5862 196.595 39.1725 196.865 39.6816C197.143 40.1908 197.513 40.5919 197.984 40.885C198.454 41.1782 199.002 41.3865 199.627 41.5022C200.252 41.6179 200.9 41.6796 201.571 41.6796C203.214 41.6796 204.494 41.4096 205.389 40.8542C206.292 40.3065 206.955 39.6508 207.387 38.8871C207.819 38.1234 208.081 37.352 208.182 36.5651C208.282 35.7783 208.328 35.1534 208.328 34.6829V31.5663H208.336Z" fill="#E01111"/>
<path d="M230.445 16.0454V20.2805H230.622C231.679 18.514 233.052 17.2334 234.742 16.4311C236.423 15.6289 238.151 15.2277 239.918 15.2277C242.155 15.2277 243.983 15.5286 245.418 16.138C246.845 16.7474 247.979 17.5883 248.797 18.6682C249.622 19.7482 250.201 21.0596 250.533 22.6102C250.864 24.1607 251.034 25.8733 251.034 27.7555V46.4546H242.687V29.2829C242.687 26.7758 242.294 24.9013 241.515 23.667C240.728 22.4327 239.339 21.8156 237.341 21.8156C235.066 21.8156 233.423 22.4945 232.404 23.8444C231.386 25.1944 230.877 27.4238 230.877 30.5172V46.4546H222.53V16.0454H230.468H230.445Z" fill="#E01111"/>
<path d="M256.256 25.395C256.372 23.4356 256.866 21.8079 257.73 20.5119C258.594 19.216 259.689 18.1823 261.024 17.3954C262.358 16.6086 263.855 16.0532 265.521 15.7215C267.187 15.3897 268.861 15.22 270.551 15.22C272.078 15.22 273.629 15.328 275.195 15.544C276.761 15.76 278.196 16.1843 279.484 16.8091C280.78 17.434 281.837 18.3057 282.662 19.4242C283.487 20.5428 283.896 22.0239 283.896 23.8676V39.6816C283.896 41.0547 283.973 42.3662 284.135 43.6236C284.29 44.881 284.567 45.8221 284.961 46.4469H276.491C276.336 45.9764 276.205 45.4981 276.105 45.0044C276.005 44.5184 275.935 44.017 275.897 43.5079C274.562 44.881 272.996 45.8375 271.191 46.3929C269.386 46.9407 267.542 47.2184 265.66 47.2184C264.21 47.2184 262.86 47.0409 261.602 46.6861C260.345 46.3312 259.25 45.7835 258.308 45.043C257.367 44.3024 256.634 43.3613 256.102 42.2196C255.57 41.0856 255.308 39.7279 255.308 38.1619C255.308 36.434 255.608 35.0146 256.218 33.896C256.827 32.7775 257.606 31.8903 258.571 31.2192C259.527 30.5558 260.63 30.0544 261.865 29.7226C263.099 29.3909 264.341 29.1287 265.598 28.9281C266.856 28.7352 268.09 28.5732 269.301 28.4575C270.512 28.3418 271.592 28.1644 272.533 27.9253C273.474 27.6938 274.215 27.3467 274.77 26.8993C275.318 26.4518 275.573 25.7884 275.534 24.9322C275.534 24.0296 275.388 23.3122 275.094 22.7876C274.801 22.2553 274.408 21.8465 273.922 21.5534C273.428 21.2602 272.865 21.0674 272.217 20.9671C271.569 20.8668 270.875 20.8205 270.127 20.8205C268.483 20.8205 267.187 21.1754 266.246 21.8774C265.305 22.5793 264.757 23.7596 264.603 25.4027H256.256V25.395ZM275.542 31.5663C275.187 31.8826 274.747 32.1218 274.215 32.2992C273.683 32.4766 273.12 32.6232 272.51 32.7389C271.901 32.8546 271.268 32.9549 270.597 33.032C269.934 33.1092 269.263 33.2094 268.599 33.3252C267.974 33.4409 267.357 33.6029 266.748 33.7957C266.138 33.9886 265.614 34.2586 265.159 34.5903C264.711 34.922 264.341 35.3463 264.071 35.8554C263.793 36.3645 263.662 37.0125 263.662 37.7994C263.662 38.5862 263.801 39.1725 264.071 39.6816C264.341 40.1908 264.719 40.5919 265.189 40.885C265.66 41.1782 266.208 41.3865 266.833 41.5022C267.457 41.6179 268.105 41.6796 268.777 41.6796C270.42 41.6796 271.7 41.4096 272.595 40.8542C273.498 40.3065 274.161 39.6508 274.593 38.8871C275.025 38.1234 275.287 37.352 275.388 36.5651C275.488 35.7783 275.534 35.1534 275.534 34.6829V31.5663H275.542Z" fill="#E01111"/>
<path d="M296.524 38.8871C296.895 39.5351 297.381 40.0596 297.967 40.4762C298.553 40.885 299.232 41.1936 299.996 41.3865C300.76 41.5793 301.554 41.6796 302.379 41.6796C302.966 41.6796 303.583 41.6102 304.231 41.4713C304.879 41.3325 305.465 41.1165 305.997 40.8233C306.53 40.5302 306.969 40.1368 307.324 39.6508C307.679 39.1648 307.857 38.5476 307.857 37.7994C307.857 36.542 307.023 35.6008 305.357 34.976C303.691 34.3511 301.369 33.7186 298.391 33.0937C297.172 32.8237 295.992 32.4997 294.835 32.1218C293.678 31.7515 292.652 31.2578 291.749 30.6483C290.847 30.0389 290.122 29.2752 289.574 28.3572C289.026 27.4393 288.749 26.313 288.749 24.9784C288.749 23.019 289.134 21.4145 289.898 20.1571C290.662 18.8997 291.672 17.9123 292.93 17.1871C294.187 16.462 295.591 15.9529 297.165 15.6597C298.731 15.3666 300.343 15.22 301.986 15.22C303.629 15.22 305.226 15.3743 306.777 15.6906C308.327 16.0069 309.708 16.5314 310.919 17.2797C312.13 18.028 313.141 19.0154 313.951 20.2497C314.753 21.4839 315.231 23.0422 315.393 24.9244H307.455C307.34 23.3199 306.73 22.2322 305.635 21.6614C304.539 21.0905 303.243 20.8128 301.755 20.8128C301.284 20.8128 300.775 20.8437 300.227 20.8977C299.68 20.9594 299.178 21.0828 298.731 21.2834C298.283 21.4762 297.898 21.7616 297.581 22.1396C297.265 22.5099 297.111 23.0113 297.111 23.6362C297.111 24.3845 297.381 24.9862 297.936 25.4567C298.484 25.9273 299.201 26.313 300.081 26.6061C300.96 26.8993 301.971 27.1615 303.112 27.4007C304.246 27.6321 305.403 27.8944 306.584 28.1644C307.803 28.4421 308.983 28.7738 310.14 29.1672C311.297 29.5607 312.323 30.0775 313.226 30.7255C314.128 31.3735 314.853 32.1758 315.401 33.14C315.949 34.1043 316.226 35.2846 316.226 36.6962C316.226 38.6942 315.825 40.3682 315.023 41.7259C314.221 43.0759 313.172 44.1636 311.876 44.989C310.58 45.8144 309.099 46.3929 307.432 46.7247C305.766 47.0564 304.069 47.2261 302.349 47.2261C300.628 47.2261 298.862 47.0486 297.172 46.6938C295.483 46.3389 293.986 45.7527 292.675 44.9273C291.364 44.1018 290.284 43.0141 289.443 41.6642C288.602 40.3142 288.139 38.6171 288.062 36.5805H296C296 37.4831 296.185 38.2545 296.555 38.9025L296.524 38.8871Z" fill="#E01111"/>
<path d="M331.539 36.3877C331.616 37.7993 331.932 39.0413 332.48 40.1213C333.028 41.2013 333.745 42.1193 334.625 42.883C335.504 43.6467 336.538 44.2252 337.71 44.6187C338.883 45.0121 340.163 45.2049 341.529 45.2049C342.508 45.2049 343.558 45.1201 344.676 44.9427C345.795 44.7652 346.828 44.4412 347.793 43.9707C348.749 43.5001 349.544 42.8444 350.176 42.0036C350.801 41.1627 351.117 40.0905 351.117 38.8022C351.117 37.1205 350.608 35.84 349.59 34.9837C348.572 34.1197 347.284 33.4563 345.741 32.9857C344.19 32.5151 342.524 32.1294 340.742 31.8363C338.96 31.5432 337.294 31.1035 335.743 30.5095C334.193 29.9232 332.912 29.0901 331.894 28.0101C330.876 26.9301 330.366 25.3564 330.366 23.2736C330.366 21.7848 330.698 20.5428 331.369 19.5399C332.033 18.5371 332.889 17.7503 333.93 17.1563C334.972 16.57 336.137 16.1457 337.433 15.8911C338.729 15.6366 340.017 15.5054 341.313 15.5054C342.879 15.5054 344.352 15.6829 345.725 16.0377C347.098 16.3926 348.286 16.9557 349.282 17.7425C350.284 18.5294 351.063 19.5245 351.634 20.7433C352.205 21.9622 352.491 23.4279 352.491 25.1558H350.254C350.254 23.7827 350.03 22.6102 349.575 21.6305C349.127 20.6508 348.495 19.8562 347.692 19.2468C346.89 18.6374 345.934 18.19 344.838 17.8968C343.743 17.6037 342.562 17.4571 341.313 17.4571C340.295 17.4571 339.261 17.5574 338.227 17.7503C337.186 17.9431 336.26 18.2825 335.435 18.7531C334.609 19.2237 333.938 19.8331 333.406 20.5736C332.874 21.3219 332.611 22.2167 332.611 23.2813C332.611 24.5001 332.904 25.4798 333.491 26.2204C334.077 26.9687 334.848 27.5627 335.813 28.0101C336.769 28.4575 337.849 28.8278 339.045 29.0978C340.241 29.3755 341.444 29.6455 342.663 29.9232C344.152 30.2009 345.556 30.5249 346.867 30.8952C348.178 31.2655 349.32 31.7746 350.277 32.4226C351.233 33.0706 351.989 33.9037 352.537 34.922C353.085 35.9402 353.362 37.2362 353.362 38.8022C353.362 40.4453 352.992 41.803 352.244 42.8598C351.495 43.9167 350.554 44.7729 349.42 45.4209C348.286 46.0689 347.021 46.5163 345.625 46.7709C344.236 47.0255 342.871 47.1566 341.536 47.1566C339.809 47.1566 338.212 46.9329 336.746 46.4778C335.273 46.0304 333.992 45.3438 332.897 44.4181C331.801 43.5001 330.937 42.3738 330.312 41.0393C329.688 39.7047 329.348 38.1619 329.31 36.3954H331.547L331.539 36.3877Z" fill="#E01111"/>
<path d="M379.83 40.4453H379.714C379.359 41.3479 378.85 42.2041 378.186 43.0064C377.523 43.8087 376.705 44.5261 375.749 45.151C374.784 45.7758 373.697 46.2695 372.486 46.6244C371.267 46.9792 369.94 47.1566 368.49 47.1566C365.273 47.1566 362.789 46.4624 361.022 45.0661C359.256 43.6775 358.376 41.5253 358.376 38.6248C358.376 36.8582 358.731 35.4234 359.433 34.3048C360.135 33.1863 361.03 32.3069 362.11 31.6589C363.19 31.0109 364.386 30.5558 365.697 30.2781C367.009 30.0081 368.274 29.8075 369.493 29.6918L372.964 29.3986C374.568 29.2829 375.834 29.0978 376.759 28.8432C377.677 28.5887 378.379 28.2338 378.85 27.7864C379.32 27.339 379.614 26.7604 379.729 26.0507C379.845 25.3487 379.907 24.4616 379.907 23.4047C379.907 22.5793 379.752 21.8156 379.436 21.1136C379.12 20.4116 378.634 19.7791 377.963 19.2314C377.299 18.6837 376.435 18.2517 375.378 17.9354C374.322 17.6191 373.026 17.4648 371.498 17.4648C368.791 17.4648 366.607 18.1283 364.941 19.4628C363.275 20.7974 362.365 22.8108 362.21 25.5184H359.973C360.128 22.1859 361.2 19.6865 363.175 18.0203C365.157 16.354 367.965 15.5209 371.614 15.5209C375.263 15.5209 377.916 16.2383 379.583 17.6654C381.249 19.1002 382.082 20.9671 382.082 23.2813V40.8619C382.082 41.2939 382.09 41.7259 382.113 42.1579C382.136 42.5899 382.198 42.9833 382.321 43.3304C382.437 43.6853 382.637 43.9707 382.907 44.1867C383.185 44.4027 383.571 44.5107 384.08 44.5107C384.473 44.5107 385.021 44.449 385.723 44.3333V46.2155C385.137 46.3698 384.527 46.4469 383.903 46.4469C383 46.4469 382.283 46.3312 381.758 46.0921C381.226 45.8607 380.825 45.5444 380.555 45.151C380.277 44.7575 380.092 44.3024 379.999 43.7701C379.899 43.2378 379.853 42.6593 379.853 42.0344V40.4453H379.83ZM379.83 29.2752C379.282 29.9386 378.449 30.3938 377.33 30.6252C376.212 30.8566 374.97 31.034 373.596 31.1575L369.832 31.5123C368.737 31.628 367.633 31.7977 366.538 32.0137C365.443 32.2297 364.447 32.5923 363.568 33.1014C362.689 33.6106 361.971 34.3048 361.424 35.192C360.876 36.0714 360.598 37.2208 360.598 38.6325C360.598 40.8696 361.3 42.5204 362.712 43.6004C364.124 44.6804 366.06 45.2204 368.536 45.2204C371.012 45.2204 373.103 44.7575 374.592 43.8395C376.08 42.9216 377.214 41.857 378.001 40.6613C378.788 39.4656 379.282 38.3085 379.498 37.1899C379.714 36.0714 379.822 35.3154 379.822 34.9297V29.2829L379.83 29.2752Z" fill="#E01111"/>
<path d="M316.103 0H0V7.8993H316.103V0Z" fill="#E01111"/>
<path d="M316.103 53.7445H0V61.6438H316.103V53.7445Z" fill="#E01111"/>
</svg>
