<svg width="25" height="25" viewBox="0 0 25 25" fill="none" xmlns="http://www.w3.org/2000/svg">
<path d="M23.7432 20.5898H22.0666C21.9357 20.5898 21.8267 20.7008 21.8267 20.8341V22.795H2.20274V2.811H21.8298V4.77197C21.8298 4.90523 21.9388 5.01629 22.0697 5.01629H23.7464C23.8772 5.01629 23.9863 4.90841 23.9863 4.77197V1.59254C23.9863 1.05312 23.5594 0.618408 23.0296 0.618408H1.00605C0.476262 0.618408 0.0493164 1.05312 0.0493164 1.59254V24.0135C0.0493164 24.5529 0.476262 24.9876 1.00605 24.9876H23.0265C23.5563 24.9876 23.9832 24.5529 23.9832 24.0135V20.8341C23.9832 20.6976 23.8741 20.5898 23.7432 20.5898ZM24.3229 12.6031L19.9007 9.04927C19.7356 8.916 19.4956 9.03658 19.4956 9.24918V11.6607H9.71013C9.57301 11.6607 9.46082 11.7749 9.46082 11.9146V13.6915C9.46082 13.8311 9.57301 13.9453 9.71013 13.9453H19.4956V16.3569C19.4956 16.5695 19.7387 16.69 19.9007 16.5568L24.3229 13.0029C24.3527 12.9792 24.3768 12.9488 24.3934 12.9142C24.4099 12.8796 24.4185 12.8415 24.4185 12.803C24.4185 12.7645 24.4099 12.7265 24.3934 12.6918C24.3768 12.6572 24.3527 12.6269 24.3229 12.6031Z" fill="black" fill-opacity="0.53"/>
</svg>
