<svg width="27" height="29" viewBox="0 0 27 29" fill="none" xmlns="http://www.w3.org/2000/svg">
<path fill-rule="evenodd" clip-rule="evenodd" d="M4.15187 6.16699H1.66667C0.746192 6.16699 0 5.4208 0 4.50033C0 3.57985 0.746192 2.83366 1.66667 2.83366H4.15161C4.81386 1.1733 6.43642 0 8.33301 0C10.2296 0 11.8521 1.1733 12.5144 2.83366H25C25.9205 2.83366 26.6667 3.57985 26.6667 4.50033C26.6667 5.4208 25.9205 6.16699 25 6.16699H12.5141C11.8517 7.827 10.2294 9 8.33301 9C6.43666 9 4.81429 7.827 4.15187 6.16699ZM6.16634 4.5C6.16634 3.30338 7.13639 2.33333 8.33301 2.33333C9.52962 2.33333 10.4997 3.30338 10.4997 4.5C10.4997 5.69662 9.52962 6.66667 8.33301 6.66667C7.13639 6.66667 6.16634 5.69662 6.16634 4.5Z" fill="#282828"/>
<path fill-rule="evenodd" clip-rule="evenodd" d="M4.15187 26.167H1.66667C0.746192 26.167 0 25.4208 0 24.5003C0 23.5799 0.746192 22.8337 1.66667 22.8337H4.15161C4.81387 21.1733 6.43642 20 8.33301 20C10.2296 20 11.8521 21.1733 12.5144 22.8337H25C25.9205 22.8337 26.6667 23.5799 26.6667 24.5003C26.6667 25.4208 25.9205 26.167 25 26.167H12.5141C11.8517 27.827 10.2294 29 8.33301 29C6.43666 29 4.81429 27.827 4.15187 26.167ZM6.16634 24.5C6.16634 23.3034 7.13639 22.3333 8.33301 22.3333C9.52962 22.3333 10.4997 23.3034 10.4997 24.5C10.4997 25.6966 9.52962 26.6667 8.33301 26.6667C7.13639 26.6667 6.16634 25.6966 6.16634 24.5Z" fill="#282828"/>
<path fill-rule="evenodd" clip-rule="evenodd" d="M14.1516 12.8337C14.8139 11.1733 16.4364 10 18.333 10C20.2296 10 21.8522 11.1733 22.5144 12.8337H25C25.9205 12.8337 26.6667 13.5799 26.6667 14.5003C26.6667 15.4208 25.9205 16.167 25 16.167H22.5141C21.8517 17.827 20.2294 19 18.333 19C16.4367 19 14.8143 17.827 14.1519 16.167H1.66667C0.746192 16.167 0 15.4208 0 14.5003C0 13.5799 0.746192 12.8337 1.66667 12.8337H14.1516ZM18.333 12.3333C17.1364 12.3333 16.1663 13.3034 16.1663 14.5C16.1663 15.6966 17.1364 16.6667 18.333 16.6667C19.5296 16.6667 20.4997 15.6966 20.4997 14.5C20.4997 13.3034 19.5296 12.3333 18.333 12.3333Z" fill="#282828"/>
</svg>
