<svg width="20" height="20" viewBox="0 0 20 20" fill="none" xmlns="http://www.w3.org/2000/svg">
<path d="M19.957 18.859L18.6018 13.1915V0.851064C18.6018 0.380319 18.2814 0 17.885 0H2.11505C1.71856 0 1.39823 0.380319 1.39823 0.851064V13.1915L0.0430058 18.859C-0.124997 19.4149 0.219969 20 0.717259 20H19.2827C19.78 20 20.125 19.4149 19.957 18.859ZM3.01106 1.91489H16.9889V12.4202H3.01106V1.91489ZM8.12508 18.0851L8.30653 17.1011H11.6733L11.8548 18.0851H8.12508ZM13.1428 18.0851L12.7149 15.7793C12.697 15.6809 12.6231 15.6117 12.5402 15.6117H7.44187C7.35675 15.6117 7.28507 15.6809 7.26715 15.7793L6.8393 18.0851H1.90448L2.85202 14.1223H17.148L18.0955 18.0851H13.1428Z" fill="black"/>
</svg>
