<svg width="21" height="21" viewBox="0 0 21 21" fill="none" xmlns="http://www.w3.org/2000/svg">
<path d="M10.8362 0.190918C5.31386 0.190918 0.836182 4.6686 0.836182 10.1909C0.836182 15.7132 5.31386 20.1909 10.8362 20.1909C16.3585 20.1909 20.8362 15.7132 20.8362 10.1909C20.8362 4.6686 16.3585 0.190918 10.8362 0.190918ZM10.8362 18.4945C6.25136 18.4945 2.53261 14.7757 2.53261 10.1909C2.53261 5.6061 6.25136 1.88735 10.8362 1.88735C15.421 1.88735 19.1398 5.6061 19.1398 10.1909C19.1398 14.7757 15.421 18.4945 10.8362 18.4945Z" fill="black"/>
<path d="M10.8363 1.88733C6.25147 1.88733 2.53271 5.60608 2.53271 10.1909C2.53271 14.7757 6.25147 18.4945 10.8363 18.4945C15.4211 18.4945 19.1399 14.7757 19.1399 10.1909C19.1399 5.60608 15.4211 1.88733 10.8363 1.88733ZM14.776 13.2646L14.1376 14.1351C14.1237 14.1541 14.1062 14.1701 14.0861 14.1823C14.0661 14.1944 14.0437 14.2025 14.0205 14.206C13.9973 14.2096 13.9736 14.2085 13.9508 14.2028C13.928 14.1971 13.9065 14.187 13.8876 14.173L10.1957 11.4811C10.1727 11.4646 10.154 11.4428 10.1411 11.4175C10.1283 11.3923 10.1218 11.3643 10.122 11.336V5.1909C10.122 5.09269 10.2024 5.01233 10.3006 5.01233H11.3742C11.4724 5.01233 11.5528 5.09269 11.5528 5.1909V10.7155L14.7358 13.0168C14.8162 13.0726 14.8341 13.1842 14.776 13.2646Z" fill="#E6E6E6"/>
<path d="M14.7354 13.0168L11.5524 10.7155V5.1909C11.5524 5.09269 11.472 5.01233 11.3738 5.01233H10.3002C10.2019 5.01233 10.1216 5.09269 10.1216 5.1909V11.336C10.1216 11.394 10.1484 11.4476 10.1952 11.4811L13.8872 14.173C13.9676 14.2311 14.0792 14.2155 14.1372 14.1351L14.7756 13.2646C14.8336 13.1842 14.8158 13.0726 14.7354 13.0168V13.0168Z" fill="black"/>
</svg>
