<svg width="23" height="23" viewBox="0 0 23 23" fill="none" xmlns="http://www.w3.org/2000/svg">
<path d="M22.5463 21.2112L15.4266 14.0915C16.5314 12.6632 17.1291 10.9168 17.1291 9.07999C17.1291 6.88128 16.271 4.81966 14.7193 3.26521C13.1676 1.71076 11.1005 0.855408 8.90451 0.855408C6.70855 0.855408 4.64144 1.71351 3.08973 3.26521C1.53529 4.81691 0.679932 6.88128 0.679932 9.07999C0.679932 11.276 1.53803 13.3431 3.08973 14.8948C4.64144 16.4492 6.70581 17.3046 8.90451 17.3046C10.7413 17.3046 12.4849 16.7069 13.9133 15.6048L21.033 22.7218C21.0539 22.7427 21.0787 22.7593 21.106 22.7706C21.1333 22.7819 21.1625 22.7877 21.192 22.7877C21.2216 22.7877 21.2508 22.7819 21.2781 22.7706C21.3054 22.7593 21.3302 22.7427 21.351 22.7218L22.5463 21.5293C22.5672 21.5084 22.5838 21.4836 22.5951 21.4563C22.6064 21.429 22.6122 21.3998 22.6122 21.3703C22.6122 21.3407 22.6064 21.3115 22.5951 21.2842C22.5838 21.2569 22.5672 21.2321 22.5463 21.2112ZM13.2471 13.4226C12.0847 14.5822 10.5439 15.221 8.90451 15.221C7.26508 15.221 5.72434 14.5822 4.56193 13.4226C3.40227 12.2602 2.76349 10.7194 2.76349 9.07999C2.76349 7.44055 3.40227 5.89708 4.56193 4.73741C5.72434 3.57774 7.26508 2.93897 8.90451 2.93897C10.5439 2.93897 12.0874 3.575 13.2471 4.73741C14.4068 5.89982 15.0455 7.44055 15.0455 9.07999C15.0455 10.7194 14.4068 12.2629 13.2471 13.4226Z" fill="black" fill-opacity="0.49"/>
</svg>
