<svg width="60" height="27" viewBox="0 0 60 27" fill="none" xmlns="http://www.w3.org/2000/svg">
<rect x="0.5" y="0.5" width="59" height="26" rx="4.5" fill="#EAFDEF" stroke="#26E45C"/>
<path d="M21.4355 13.2646V13.6309C21.4355 14.168 21.3639 14.6514 21.2207 15.0811C21.0775 15.5075 20.874 15.8704 20.6104 16.1699C20.3467 16.4694 20.0326 16.6989 19.668 16.8584C19.3034 17.0179 18.8981 17.0977 18.4521 17.0977C18.0127 17.0977 17.609 17.0179 17.2412 16.8584C16.8766 16.6989 16.5609 16.4694 16.2939 16.1699C16.027 15.8704 15.8203 15.5075 15.6738 15.0811C15.5273 14.6514 15.4541 14.168 15.4541 13.6309V13.2646C15.4541 12.7243 15.5273 12.2409 15.6738 11.8145C15.8203 11.388 16.0254 11.0251 16.2891 10.7256C16.5527 10.4229 16.8669 10.1917 17.2314 10.0322C17.5993 9.87272 18.0029 9.79297 18.4424 9.79297C18.8883 9.79297 19.2936 9.87272 19.6582 10.0322C20.0228 10.1917 20.3369 10.4229 20.6006 10.7256C20.8675 11.0251 21.0726 11.388 21.2158 11.8145C21.3623 12.2409 21.4355 12.7243 21.4355 13.2646ZM20.0781 13.6309V13.2549C20.0781 12.8675 20.0423 12.5273 19.9707 12.2344C19.8991 11.9382 19.7933 11.6891 19.6533 11.4873C19.5133 11.2855 19.3408 11.1341 19.1357 11.0332C18.9307 10.929 18.6995 10.877 18.4424 10.877C18.182 10.877 17.9508 10.929 17.749 11.0332C17.5505 11.1341 17.3812 11.2855 17.2412 11.4873C17.1012 11.6891 16.9938 11.9382 16.9189 12.2344C16.8473 12.5273 16.8115 12.8675 16.8115 13.2549V13.6309C16.8115 14.015 16.8473 14.3551 16.9189 14.6514C16.9938 14.9476 17.1012 15.1982 17.2412 15.4033C17.3844 15.6051 17.557 15.7581 17.7588 15.8623C17.9606 15.9665 18.1917 16.0186 18.4521 16.0186C18.7126 16.0186 18.9437 15.9665 19.1455 15.8623C19.3473 15.7581 19.5166 15.6051 19.6533 15.4033C19.7933 15.1982 19.8991 14.9476 19.9707 14.6514C20.0423 14.3551 20.0781 14.015 20.0781 13.6309ZM23.7402 12.8447V17H22.4512V11.7168H23.6621L23.7402 12.8447ZM23.5352 14.168H23.1543C23.1576 13.7839 23.2096 13.4355 23.3105 13.123C23.4115 12.8105 23.5531 12.542 23.7354 12.3174C23.9209 12.0928 24.1406 11.9202 24.3945 11.7998C24.6484 11.6794 24.9316 11.6191 25.2441 11.6191C25.498 11.6191 25.7275 11.6549 25.9326 11.7266C26.1377 11.7982 26.3135 11.9121 26.46 12.0684C26.6097 12.2246 26.7236 12.4297 26.8018 12.6836C26.8831 12.9342 26.9238 13.2435 26.9238 13.6113V17H25.625V13.6016C25.625 13.3607 25.5892 13.1702 25.5176 13.0303C25.4492 12.8903 25.3483 12.791 25.2148 12.7324C25.0846 12.6738 24.9235 12.6445 24.7314 12.6445C24.5329 12.6445 24.3587 12.6852 24.209 12.7666C24.0625 12.8447 23.9388 12.9538 23.8379 13.0938C23.7402 13.2337 23.6654 13.3949 23.6133 13.5771C23.5612 13.7594 23.5352 13.9564 23.5352 14.168ZM29.4287 9.5V17H28.1348V9.5H29.4287ZM32.0264 11.7168V17H30.7324V11.7168H32.0264ZM30.6445 10.335C30.6445 10.1429 30.7096 9.9834 30.8398 9.85645C30.9733 9.72949 31.1523 9.66602 31.377 9.66602C31.6016 9.66602 31.779 9.72949 31.9092 9.85645C32.0426 9.9834 32.1094 10.1429 32.1094 10.335C32.1094 10.5238 32.0426 10.6816 31.9092 10.8086C31.779 10.9355 31.6016 10.999 31.377 10.999C31.1523 10.999 30.9733 10.9355 30.8398 10.8086C30.7096 10.6816 30.6445 10.5238 30.6445 10.335ZM34.5215 12.8447V17H33.2324V11.7168H34.4434L34.5215 12.8447ZM34.3164 14.168H33.9355C33.9388 13.7839 33.9909 13.4355 34.0918 13.123C34.1927 12.8105 34.3343 12.542 34.5166 12.3174C34.7021 12.0928 34.9219 11.9202 35.1758 11.7998C35.4297 11.6794 35.7129 11.6191 36.0254 11.6191C36.2793 11.6191 36.5088 11.6549 36.7139 11.7266C36.9189 11.7982 37.0947 11.9121 37.2412 12.0684C37.391 12.2246 37.5049 12.4297 37.583 12.6836C37.6644 12.9342 37.7051 13.2435 37.7051 13.6113V17H36.4062V13.6016C36.4062 13.3607 36.3704 13.1702 36.2988 13.0303C36.2305 12.8903 36.1296 12.791 35.9961 12.7324C35.8659 12.6738 35.7048 12.6445 35.5127 12.6445C35.3141 12.6445 35.14 12.6852 34.9902 12.7666C34.8438 12.8447 34.7201 12.9538 34.6191 13.0938C34.5215 13.2337 34.4466 13.3949 34.3945 13.5771C34.3424 13.7594 34.3164 13.9564 34.3164 14.168ZM41.2158 17.0977C40.8154 17.0977 40.4557 17.0326 40.1367 16.9023C39.8177 16.7721 39.5459 16.5915 39.3213 16.3604C39.0999 16.126 38.929 15.8542 38.8086 15.5449C38.6914 15.2324 38.6328 14.8971 38.6328 14.5391V14.3438C38.6328 13.9368 38.6914 13.5674 38.8086 13.2354C38.9258 12.9001 39.0918 12.612 39.3066 12.3711C39.5215 12.1302 39.7786 11.9447 40.0781 11.8145C40.3776 11.6842 40.708 11.6191 41.0693 11.6191C41.4437 11.6191 41.7741 11.6826 42.0605 11.8096C42.347 11.9333 42.5863 12.109 42.7783 12.3369C42.9704 12.5648 43.1152 12.8382 43.2129 13.1572C43.3105 13.473 43.3594 13.8229 43.3594 14.207V14.749H39.2188V13.8604H42.0898V13.7627C42.0833 13.5576 42.0443 13.3704 41.9727 13.2012C41.901 13.0286 41.7904 12.8919 41.6406 12.791C41.4909 12.6868 41.2972 12.6348 41.0596 12.6348C40.8675 12.6348 40.6999 12.6771 40.5566 12.7617C40.4167 12.8431 40.2995 12.9603 40.2051 13.1133C40.1139 13.263 40.0456 13.4421 40 13.6504C39.9544 13.8587 39.9316 14.0898 39.9316 14.3438V14.5391C39.9316 14.7604 39.9609 14.9655 40.0195 15.1543C40.0814 15.3431 40.1709 15.5075 40.2881 15.6475C40.4085 15.7842 40.5518 15.8916 40.7178 15.9697C40.887 16.0446 41.0791 16.082 41.2939 16.082C41.5641 16.082 41.8083 16.0299 42.0264 15.9258C42.2477 15.8184 42.4398 15.6605 42.6025 15.4521L43.252 16.126C43.1413 16.2887 42.9915 16.445 42.8027 16.5947C42.6172 16.7445 42.3926 16.8665 42.1289 16.9609C41.8652 17.0521 41.5609 17.0977 41.2158 17.0977Z" fill="#11BA5F"/>
</svg>
