<svg width="387" height="63" viewBox="0 0 387 63" fill="none" xmlns="http://www.w3.org/2000/svg">
<path d="M1.32736 25.758C1.44307 23.7986 1.93678 22.171 2.80076 20.875C3.66475 19.579 4.76016 18.5453 6.09471 17.7585C7.42926 16.9716 8.9258 16.4162 10.5921 16.0845C12.2583 15.7528 13.9323 15.5831 15.6217 15.5831C17.1491 15.5831 18.6996 15.6911 20.2656 15.9071C21.8316 16.1231 23.2664 16.5473 24.5547 17.1722C25.8507 17.797 26.9075 18.6687 27.7329 19.7873C28.5583 20.9058 28.9672 22.387 28.9672 24.2306V40.0447C28.9672 41.4178 29.0443 42.7292 29.2063 43.9866C29.3606 45.244 29.6383 46.1851 30.0317 46.81H21.5616C21.4073 46.3394 21.2762 45.8611 21.1759 45.3674C21.0756 44.8814 21.0062 44.38 20.9676 43.8709C19.6331 45.244 18.0671 46.2006 16.262 46.756C14.4569 47.3037 12.6132 47.5814 10.7386 47.5814C9.28837 47.5814 7.93839 47.404 6.68098 47.0491C5.42358 46.6943 4.32817 46.1466 3.38704 45.406C2.44591 44.6654 1.71307 43.7243 1.18079 42.5826C0.648512 41.4409 0.38623 40.0832 0.38623 38.5173C0.38623 36.7893 0.687083 35.3699 1.2965 34.2513C1.90592 33.1328 2.68505 32.2457 3.64932 31.5745C4.60587 30.9111 5.709 30.4097 6.94326 30.078C8.17753 29.7463 9.41951 29.484 10.6769 29.2834C11.9343 29.0906 13.1686 28.9286 14.3797 28.8129C15.5908 28.6971 16.6708 28.5197 17.6119 28.2806C18.5531 28.0491 19.2936 27.702 19.849 27.2546C20.3968 26.8072 20.6513 26.1438 20.6128 25.2875C20.6128 24.3849 20.4662 23.6675 20.173 23.1429C19.8799 22.6107 19.4865 22.2018 19.0005 21.9087C18.5068 21.6155 17.9437 21.4227 17.2957 21.3224C16.6477 21.2221 15.9534 21.1758 15.2051 21.1758C13.562 21.1758 12.266 21.5307 11.3249 22.2327C10.3838 22.9347 9.83607 24.1149 9.68179 25.758H1.32736ZM20.6128 31.9294C20.2579 32.2456 19.8182 32.4848 19.2859 32.6622C18.7536 32.8396 18.1905 32.9862 17.5811 33.1019C16.9717 33.2176 16.3391 33.3179 15.668 33.3951C14.9968 33.4722 14.3334 33.5725 13.67 33.6882C13.0452 33.8039 12.428 33.9659 11.8186 34.1588C11.2092 34.3516 10.6846 34.6216 10.2295 34.9533C9.78207 35.285 9.4118 35.7093 9.1418 36.2184C8.86409 36.7276 8.73295 37.3756 8.73295 38.1624C8.73295 38.9493 8.8718 39.5355 9.1418 40.0447C9.4118 40.5538 9.78979 40.9549 10.2604 41.2481C10.7309 41.5412 11.2786 41.7495 11.9035 41.8652C12.5283 41.9809 13.1763 42.0426 13.8474 42.0426C15.4906 42.0426 16.7711 41.7726 17.6659 41.2172C18.5685 40.6695 19.2319 40.0138 19.6639 39.2501C20.0959 38.4864 20.3582 37.715 20.4585 36.9281C20.5588 36.1413 20.605 35.5165 20.605 35.0459V31.9294H20.6128Z" fill="white"/>
<path d="M42.706 16.4085V20.5278H42.8217C43.9172 18.9619 45.244 17.743 46.7945 16.879C48.3451 16.0151 50.1193 15.5831 52.1173 15.5831C54.1153 15.5831 55.7893 15.9533 57.3784 16.7016C58.9675 17.4499 60.1709 18.7613 60.9963 20.6436C61.8989 19.309 63.1254 18.1365 64.6682 17.1182C66.2188 16.0999 68.047 15.5908 70.1684 15.5908C71.773 15.5908 73.2618 15.7836 74.6349 16.1771C76.0081 16.5705 77.1806 17.1953 78.1603 18.0593C79.14 18.9233 79.9037 20.0496 80.4514 21.4381C80.9991 22.8267 81.2768 24.5084 81.2768 26.4677V46.81H72.9301V29.5843C72.9301 28.566 72.8915 27.6017 72.8144 26.6992C72.7373 25.7966 72.5213 25.0175 72.1664 24.3464C71.8116 23.6829 71.2947 23.1507 70.6081 22.7572C69.9216 22.3638 68.9882 22.171 67.8156 22.171C66.6431 22.171 65.6865 22.3947 64.9614 22.8498C64.2362 23.2972 63.6654 23.8912 63.2566 24.6163C62.8477 25.3415 62.57 26.1669 62.4311 27.0849C62.2923 28.0029 62.2229 28.9363 62.2229 29.8774V46.81H53.8761V29.7617C53.8761 28.8591 53.853 27.9643 53.8144 27.0849C53.7759 26.2055 53.6061 25.3878 53.313 24.6472C53.0199 23.9066 52.5262 23.3049 51.8396 22.8498C51.153 22.4024 50.1425 22.171 48.8079 22.171C48.4145 22.171 47.8977 22.2558 47.2497 22.4332C46.6017 22.6107 45.9768 22.9424 45.3674 23.4361C44.758 23.9298 44.2412 24.6318 43.8092 25.5498C43.3772 26.4677 43.1612 27.6789 43.1612 29.1677V46.81H34.8145V16.4085H42.6906H42.706Z" fill="white"/>
<path d="M95.9569 39.5201C97.2143 40.7389 99.0117 41.3406 101.365 41.3406C103.046 41.3406 104.497 40.9163 105.715 40.0755C106.926 39.2346 107.675 38.3398 107.952 37.3987H115.304C114.131 41.0475 112.326 43.6549 109.896 45.2208C107.466 46.7868 104.527 47.5737 101.079 47.5737C98.6877 47.5737 96.5278 47.1879 94.607 46.4242C92.6861 45.6605 91.0584 44.5728 89.7239 43.1612C88.3893 41.7495 87.3634 40.0678 86.6382 38.1007C85.9131 36.1413 85.5505 33.9813 85.5505 31.6362C85.5505 29.2911 85.9208 27.2469 86.6691 25.2875C87.4096 23.3281 88.4742 21.6309 89.8473 20.2038C91.2204 18.7767 92.8558 17.6427 94.7535 16.825C96.6512 15.9996 98.7649 15.5908 101.071 15.5908C103.656 15.5908 105.916 16.0922 107.837 17.0873C109.758 18.0901 111.339 19.4324 112.573 21.1141C113.808 22.8035 114.702 24.7243 115.25 26.8766C115.798 29.0365 115.991 31.2891 115.836 33.6419H93.905C94.0207 36.3496 94.7072 38.3089 95.9647 39.5201H95.9569ZM105.391 23.5286C104.389 22.4332 102.869 21.8855 100.832 21.8855C99.4977 21.8855 98.3946 22.1092 97.5075 22.5644C96.6281 23.0118 95.9184 23.5749 95.3938 24.2383C94.8615 24.9017 94.4912 25.6114 94.2752 26.352C94.0593 27.1003 93.9281 27.7637 93.8895 28.35H107.474C107.081 26.2363 106.386 24.624 105.384 23.5286H105.391Z" fill="white"/>
<path d="M128.025 16.4085V22.0552H128.14C128.534 21.1141 129.058 20.2424 129.73 19.4401C130.393 18.6379 131.157 17.9513 132.021 17.3804C132.885 16.8096 133.803 16.3699 134.782 16.0613C135.762 15.745 136.78 15.5908 137.837 15.5908C138.385 15.5908 138.994 15.691 139.658 15.8839V23.6443C139.264 23.5672 138.794 23.4978 138.246 23.4361C137.698 23.3743 137.166 23.3512 136.657 23.3512C135.129 23.3512 133.833 23.6058 132.777 24.1149C131.72 24.624 130.863 25.3183 130.216 26.2054C129.568 27.0849 129.105 28.1186 128.835 29.2911C128.557 30.4637 128.426 31.7442 128.426 33.1096V46.81H120.079V16.4085H128.017H128.025Z" fill="white"/>
<path d="M151.175 16.4085V46.81H142.828V16.4085H151.175Z" fill="white"/>
<path d="M171.17 21.8778C169.835 21.8778 168.717 22.1786 167.822 22.7881C166.92 23.3975 166.187 24.1766 165.616 25.1409C165.045 26.1052 164.644 27.162 164.412 28.3191C164.181 29.4762 164.058 30.6257 164.058 31.7596C164.058 32.8936 164.173 33.9736 164.412 35.1076C164.652 36.2416 165.03 37.2753 165.562 38.1932C166.094 39.1112 166.804 39.8672 167.706 40.4535C168.609 41.0398 169.704 41.3329 171 41.3329C172.998 41.3329 174.541 40.7775 175.613 39.6589C176.693 38.5404 177.364 37.0438 177.642 35.1616H185.696C185.148 39.1961 183.582 42.274 180.99 44.3954C178.406 46.5091 175.089 47.5737 171.054 47.5737C168.779 47.5737 166.696 47.1879 164.79 46.4242C162.885 45.6605 161.273 44.596 159.938 43.2229C158.604 41.8497 157.562 40.2143 156.822 38.3167C156.073 36.419 155.703 34.3284 155.703 32.0528C155.703 29.7771 156.043 27.5168 156.729 25.4957C157.416 23.4746 158.426 21.7312 159.761 20.2655C161.095 18.7921 162.723 17.6504 164.644 16.825C166.565 15.9996 168.763 15.5908 171.232 15.5908C173.037 15.5908 174.773 15.8222 176.439 16.2927C178.105 16.7633 179.594 17.4807 180.905 18.4373C182.217 19.4016 183.289 20.5972 184.107 22.0244C184.932 23.4592 185.403 25.1486 185.518 27.108H177.341C176.794 23.6212 174.734 21.8778 171.17 21.8778V21.8778Z" fill="white"/>
<path d="M189.414 25.758C189.53 23.7986 190.023 22.171 190.887 20.875C191.751 19.579 192.847 18.5453 194.181 17.7585C195.516 16.9716 197.012 16.4162 198.679 16.0845C200.345 15.7528 202.019 15.5831 203.708 15.5831C205.236 15.5831 206.786 15.6911 208.352 15.9071C209.918 16.1231 211.353 16.5473 212.641 17.1722C213.937 17.797 214.994 18.6687 215.819 19.7873C216.645 20.9058 217.054 22.387 217.054 24.2306V40.0447C217.054 41.4178 217.131 42.7292 217.293 43.9866C217.447 45.244 217.725 46.1851 218.118 46.81H209.648C209.494 46.3394 209.363 45.8611 209.262 45.3674C209.162 44.8814 209.093 44.38 209.054 43.8709C207.72 45.244 206.154 46.2006 204.349 46.756C202.543 47.3037 200.7 47.5814 198.817 47.5814C197.367 47.5814 196.017 47.404 194.76 47.0491C193.502 46.6943 192.407 46.1466 191.466 45.406C190.525 44.6654 189.792 43.7243 189.26 42.5826C188.727 41.4486 188.465 40.091 188.465 38.525C188.465 36.797 188.766 35.3776 189.375 34.259C189.985 33.1405 190.764 32.2534 191.728 31.5822C192.685 30.9188 193.788 30.4174 195.022 30.0857C196.256 29.754 197.498 29.4917 198.756 29.2911C200.013 29.0983 201.247 28.9363 202.459 28.8206C203.67 28.7049 204.75 28.5274 205.691 28.2883C206.632 28.0569 207.372 27.7097 207.928 27.2623C208.476 26.8149 208.73 26.1515 208.692 25.2952C208.692 24.3926 208.545 23.6752 208.252 23.1507C207.959 22.6184 207.565 22.2095 207.079 21.9164C206.586 21.6233 206.023 21.4304 205.375 21.3301C204.727 21.2298 204.032 21.1835 203.284 21.1835C201.641 21.1835 200.345 21.5384 199.404 22.2404C198.463 22.9424 197.915 24.1226 197.761 25.7658H189.414V25.758ZM208.699 31.9294C208.344 32.2456 207.905 32.4848 207.372 32.6622C206.84 32.8396 206.277 32.9862 205.668 33.1019C205.058 33.2176 204.426 33.3179 203.755 33.3951C203.091 33.4722 202.42 33.5725 201.757 33.6882C201.132 33.8039 200.515 33.9659 199.905 34.1588C199.296 34.3516 198.771 34.6216 198.316 34.9533C197.869 35.285 197.498 35.7093 197.228 36.2184C196.951 36.7276 196.82 37.3756 196.82 38.1624C196.82 38.9493 196.958 39.5355 197.228 40.0447C197.506 40.5538 197.876 40.9549 198.347 41.2481C198.817 41.5412 199.365 41.7495 199.99 41.8652C200.615 41.9809 201.263 42.0426 201.934 42.0426C203.577 42.0426 204.858 41.7726 205.753 41.2172C206.655 40.6695 207.318 40.0138 207.75 39.2501C208.182 38.4864 208.445 37.715 208.545 36.9281C208.645 36.1413 208.692 35.5165 208.692 35.0459V31.9294H208.699Z" fill="white"/>
<path d="M230.808 16.4085V20.6435H230.986C232.043 18.877 233.416 17.5964 235.105 16.7942C236.787 15.9919 238.515 15.5908 240.281 15.5908C242.518 15.5908 244.347 15.8916 245.781 16.501C247.209 17.1104 248.343 17.9513 249.16 19.0313C249.986 20.1113 250.564 21.4227 250.896 22.9732C251.228 24.5238 251.397 26.2363 251.397 28.1186V46.8177H243.051V29.646C243.051 27.1389 242.657 25.2643 241.878 24.03C241.091 22.7958 239.703 22.1787 237.705 22.1787C235.429 22.1787 233.786 22.8575 232.768 24.2075C231.749 25.5575 231.24 27.7868 231.24 30.8802V46.8177H222.894V16.4085H230.831H230.808Z" fill="white"/>
<path d="M256.62 25.758C256.735 23.7986 257.229 22.171 258.093 20.875C258.957 19.579 260.053 18.5453 261.387 17.7585C262.722 16.9716 264.218 16.4162 265.884 16.0845C267.551 15.7528 269.225 15.5831 270.914 15.5831C272.441 15.5831 273.992 15.6911 275.558 15.9071C277.124 16.1231 278.559 16.5473 279.847 17.1722C281.143 17.797 282.2 18.6687 283.025 19.7873C283.851 20.9058 284.26 22.387 284.26 24.2306V40.0447C284.26 41.4178 284.337 42.7292 284.499 43.9866C284.653 45.244 284.931 46.1851 285.324 46.81H276.854C276.7 46.3394 276.569 45.8611 276.468 45.3674C276.368 44.8814 276.299 44.38 276.26 43.8709C274.925 45.244 273.359 46.2006 271.554 46.756C269.749 47.3037 267.906 47.5814 266.023 47.5814C264.573 47.5814 263.223 47.404 261.966 47.0491C260.708 46.6943 259.613 46.1466 258.672 45.406C257.731 44.6654 256.998 43.7243 256.465 42.5826C255.933 41.4486 255.671 40.091 255.671 38.525C255.671 36.797 255.972 35.3776 256.581 34.259C257.191 33.1405 257.97 32.2534 258.934 31.5822C259.891 30.9188 260.994 30.4174 262.228 30.0857C263.462 29.754 264.704 29.4917 265.962 29.2911C267.219 29.0983 268.453 28.9363 269.664 28.8206C270.876 28.7049 271.956 28.5274 272.897 28.2883C273.838 28.0569 274.578 27.7097 275.134 27.2623C275.681 26.8149 275.936 26.1515 275.897 25.2952C275.897 24.3926 275.751 23.6752 275.458 23.1507C275.165 22.6184 274.771 22.2095 274.285 21.9164C273.791 21.6233 273.228 21.4304 272.58 21.3301C271.932 21.2298 271.238 21.1835 270.49 21.1835C268.847 21.1835 267.551 21.5384 266.61 22.2404C265.668 22.9424 265.121 24.1226 264.966 25.7658H256.62V25.758ZM275.905 31.9294C275.55 32.2456 275.111 32.4848 274.578 32.6622C274.046 32.8396 273.483 32.9862 272.873 33.1019C272.264 33.2176 271.631 33.3179 270.96 33.3951C270.297 33.4722 269.626 33.5725 268.962 33.6882C268.338 33.8039 267.72 33.9659 267.111 34.1588C266.502 34.3516 265.977 34.6216 265.522 34.9533C265.074 35.285 264.704 35.7093 264.434 36.2184C264.156 36.7276 264.025 37.3756 264.025 38.1624C264.025 38.9493 264.164 39.5355 264.434 40.0447C264.704 40.5538 265.082 40.9549 265.553 41.2481C266.023 41.5412 266.571 41.7495 267.196 41.8652C267.821 41.9809 268.469 42.0426 269.14 42.0426C270.783 42.0426 272.063 41.7726 272.958 41.2172C273.861 40.6695 274.524 40.0138 274.956 39.2501C275.388 38.4864 275.651 37.715 275.751 36.9281C275.851 36.1413 275.897 35.5165 275.897 35.0459V31.9294H275.905Z" fill="white"/>
<path d="M296.888 39.2501C297.258 39.8981 297.744 40.4227 298.33 40.8392C298.917 41.2481 299.595 41.5566 300.359 41.7495C301.123 41.9423 301.917 42.0426 302.743 42.0426C303.329 42.0426 303.946 41.9732 304.594 41.8343C305.242 41.6955 305.828 41.4795 306.361 41.1864C306.893 40.8932 307.333 40.4998 307.688 40.0138C308.042 39.5278 308.22 38.9107 308.22 38.1624C308.22 36.905 307.387 35.9639 305.72 35.339C304.054 34.7142 301.732 34.0816 298.755 33.4568C297.536 33.1868 296.355 32.8628 295.198 32.4848C294.041 32.1145 293.015 31.6208 292.113 31.0114C291.21 30.402 290.485 29.6383 289.937 28.7203C289.39 27.8023 289.112 26.676 289.112 25.3415C289.112 23.3821 289.498 21.7775 290.261 20.5201C291.025 19.2627 292.036 18.2753 293.293 17.5502C294.55 16.825 295.954 16.3159 297.528 16.0228C299.094 15.7296 300.706 15.5831 302.349 15.5831C303.992 15.5831 305.589 15.7374 307.14 16.0536C308.69 16.3699 310.071 16.8945 311.282 17.6427C312.493 18.391 313.504 19.3784 314.314 20.6127C315.116 21.847 315.595 23.4052 315.757 25.2875H307.819C307.703 23.6829 307.094 22.5952 305.998 22.0244C304.903 21.4535 303.607 21.1758 302.118 21.1758C301.647 21.1758 301.138 21.2067 300.591 21.2607C300.043 21.3224 299.541 21.4458 299.094 21.6464C298.647 21.8393 298.261 22.1247 297.945 22.5027C297.628 22.8729 297.474 23.3744 297.474 23.9992C297.474 24.7475 297.744 25.3492 298.299 25.8198C298.847 26.2903 299.565 26.676 300.444 26.9692C301.323 27.2623 302.334 27.5246 303.476 27.7637C304.61 27.9951 305.767 28.2574 306.947 28.5274C308.166 28.8051 309.346 29.1368 310.503 29.5303C311.66 29.9237 312.686 30.4405 313.589 31.0885C314.491 31.7365 315.217 32.5388 315.764 33.5031C316.312 34.4673 316.59 35.6476 316.59 37.0593C316.59 39.0573 316.189 40.7312 315.386 42.0889C314.584 43.4389 313.535 44.5266 312.239 45.352C310.943 46.1774 309.462 46.756 307.796 47.0877C306.129 47.4194 304.432 47.5891 302.712 47.5891C300.992 47.5891 299.225 47.4117 297.536 47.0568C295.846 46.702 294.35 46.1157 293.038 45.2903C291.727 44.4649 290.647 43.3772 289.806 42.0272C288.965 40.6772 288.502 38.9801 288.425 36.9436H296.363C296.363 37.8461 296.548 38.6175 296.919 39.2655L296.888 39.2501Z" fill="white"/>
<path d="M331.902 36.7507C331.979 38.1624 332.296 39.4044 332.843 40.4843C333.391 41.5643 334.108 42.4823 334.988 43.246C335.867 44.0097 336.901 44.5883 338.074 44.9817C339.246 45.3751 340.527 45.568 341.892 45.568C342.872 45.568 343.921 45.4831 345.039 45.3057C346.158 45.1283 347.192 44.8043 348.156 44.3337C349.113 43.8631 349.907 43.2074 350.54 42.3666C351.164 41.5258 351.481 40.4535 351.481 39.1652C351.481 37.4835 350.972 36.203 349.953 35.3467C348.935 34.4827 347.647 33.8193 346.104 33.3487C344.553 32.8782 342.887 32.4925 341.105 32.1993C339.323 31.9062 337.657 31.4665 336.106 30.8725C334.556 30.2862 333.275 29.4531 332.257 28.3731C331.239 27.2931 330.73 25.7194 330.73 23.6366C330.73 22.1478 331.061 20.9058 331.733 19.903C332.396 18.9001 333.252 18.1133 334.294 17.5193C335.335 16.933 336.5 16.5087 337.796 16.2542C339.092 15.9996 340.38 15.8685 341.676 15.8685C343.242 15.8685 344.715 16.0459 346.089 16.4007C347.462 16.7556 348.65 17.3187 349.645 18.1056C350.648 18.8924 351.427 19.8875 351.998 21.1064C352.568 22.3252 352.854 23.7909 352.854 25.5189H350.617C350.617 24.1458 350.393 22.9732 349.938 21.9935C349.491 21.0138 348.858 20.2193 348.056 19.6098C347.253 19.0004 346.297 18.553 345.201 18.2599C344.106 17.9667 342.926 17.8202 341.676 17.8202C340.658 17.8202 339.624 17.9204 338.59 18.1133C337.549 18.3061 336.623 18.6456 335.798 19.1161C334.972 19.5867 334.301 20.1961 333.769 20.9367C333.237 21.6849 332.975 22.5798 332.975 23.6443C332.975 24.8632 333.268 25.8429 333.854 26.5834C334.44 27.3317 335.212 27.9257 336.176 28.3731C337.132 28.8205 338.212 29.1908 339.408 29.4608C340.604 29.7385 341.807 30.0085 343.026 30.2862C344.515 30.5639 345.919 30.8879 347.23 31.2582C348.542 31.6285 349.683 32.1376 350.64 32.7856C351.596 33.4336 352.352 34.2667 352.9 35.285C353.448 36.3033 353.726 37.5993 353.726 39.1652C353.726 40.8083 353.355 42.166 352.607 43.2229C351.859 44.2797 350.918 45.136 349.784 45.784C348.65 46.432 347.385 46.8794 345.988 47.1339C344.6 47.3885 343.234 47.5197 341.9 47.5197C340.172 47.5197 338.575 47.2959 337.109 46.8408C335.636 46.3934 334.355 45.7068 333.26 44.7811C332.165 43.8632 331.301 42.7369 330.676 41.4023C330.051 40.0678 329.711 38.525 329.673 36.7584H331.91L331.902 36.7507Z" fill="white"/>
<path d="M380.193 40.8084H380.077C379.722 41.7109 379.213 42.5672 378.55 43.3695C377.886 44.1717 377.069 44.8891 376.112 45.514C375.148 46.1388 374.06 46.6325 372.849 46.9874C371.63 47.3422 370.303 47.5197 368.853 47.5197C365.636 47.5197 363.152 46.8254 361.386 45.4291C359.619 44.0406 358.74 41.8883 358.74 38.9878C358.74 37.2213 359.095 35.7864 359.797 34.6679C360.499 33.5493 361.393 32.6699 362.473 32.0219C363.553 31.3739 364.749 30.9188 366.06 30.6411C367.372 30.3711 368.637 30.1705 369.856 30.0548L373.327 29.7617C374.932 29.646 376.197 29.4608 377.123 29.2063C378.041 28.9517 378.743 28.5968 379.213 28.1494C379.684 27.702 379.977 27.1234 380.093 26.4137C380.208 25.7117 380.27 24.8246 380.27 23.7678C380.27 22.9424 380.116 22.1787 379.799 21.4767C379.483 20.7747 378.997 20.1421 378.326 19.5944C377.663 19.0467 376.799 18.6147 375.742 18.2984C374.685 17.9822 373.389 17.8279 371.862 17.8279C369.154 17.8279 366.971 18.4913 365.304 19.8258C363.638 21.1604 362.728 23.1738 362.574 25.8815H360.337C360.491 22.5489 361.563 20.0496 363.538 18.3833C365.52 16.717 368.328 15.8839 371.977 15.8839C375.626 15.8839 378.28 16.6013 379.946 18.0284C381.612 19.4633 382.445 21.3301 382.445 23.6444V41.2249C382.445 41.6569 382.453 42.0889 382.476 42.5209C382.499 42.9529 382.561 43.3463 382.684 43.6934C382.8 44.0483 383.001 44.3337 383.271 44.5497C383.548 44.7657 383.934 44.8737 384.443 44.8737C384.837 44.8737 385.384 44.812 386.086 44.6963V46.5785C385.5 46.7328 384.891 46.81 384.266 46.81C383.363 46.81 382.646 46.6943 382.121 46.4551C381.589 46.2237 381.188 45.9074 380.918 45.514C380.64 45.1206 380.455 44.6654 380.363 44.1332C380.262 43.6009 380.216 43.0223 380.216 42.3975V40.8084H380.193ZM380.193 29.6383C379.645 30.3017 378.812 30.7568 377.693 30.9882C376.575 31.2197 375.333 31.3971 373.96 31.5205L370.195 31.8754C369.1 31.9911 367.997 32.1608 366.901 32.3768C365.806 32.5928 364.811 32.9553 363.931 33.4645C363.052 33.9736 362.335 34.6679 361.787 35.555C361.239 36.4344 360.961 37.5838 360.961 38.9955C360.961 41.2326 361.663 42.8835 363.075 43.9634C364.487 45.0434 366.423 45.5834 368.899 45.5834C371.376 45.5834 373.466 45.1206 374.955 44.2026C376.444 43.2846 377.578 42.22 378.365 41.0243C379.151 39.8287 379.645 38.6715 379.861 37.553C380.077 36.4344 380.185 35.6784 380.185 35.2927V29.646L380.193 29.6383Z" fill="white"/>
<path d="M316.466 0.363037H0.363037V8.26233H316.466V0.363037Z" fill="white"/>
<path d="M316.466 54.1075H0.363037V62.0069H316.466V54.1075Z" fill="white"/>
</svg>
