<svg width="450" height="127" viewBox="0 0 450 127" fill="#ffffff" xmlns="http://www.w3.org/2000/svg">
<path d="M33.3274 57.758C33.4431 55.7986 33.9368 54.171 34.8008 52.875C35.6647 51.579 36.7602 50.5453 38.0947 49.7585C39.4293 48.9716 40.9258 48.4162 42.5921 48.0845C44.2583 47.7528 45.9323 47.5831 47.6217 47.5831C49.1491 47.5831 50.6996 47.6911 52.2656 47.9071C53.8316 48.1231 55.2664 48.5473 56.5547 49.1722C57.8507 49.797 58.9075 50.6687 59.7329 51.7873C60.5583 52.9058 60.9672 54.387 60.9672 56.2306V72.0447C60.9672 73.4178 61.0443 74.7292 61.2063 75.9866C61.3606 77.244 61.6383 78.1851 62.0317 78.81H53.5616C53.4073 78.3394 53.2762 77.8611 53.1759 77.3674C53.0756 76.8814 53.0062 76.38 52.9676 75.8709C51.6331 77.244 50.0671 78.2006 48.262 78.756C46.4569 79.3037 44.6132 79.5814 42.7386 79.5814C41.2884 79.5814 39.9384 79.404 38.681 79.0491C37.4236 78.6943 36.3282 78.1466 35.387 77.406C34.4459 76.6654 33.7131 75.7243 33.1808 74.5826C32.6485 73.4409 32.3862 72.0832 32.3862 70.5173C32.3862 68.7893 32.6871 67.3699 33.2965 66.2513C33.9059 65.1328 34.685 64.2457 35.6493 63.5745C36.6059 62.9111 37.709 62.4097 38.9433 62.078C40.1775 61.7463 41.4195 61.484 42.6769 61.2834C43.9343 61.0906 45.1686 60.9286 46.3797 60.8129C47.5908 60.6971 48.6708 60.5197 49.6119 60.2806C50.5531 60.0491 51.2936 59.702 51.849 59.2546C52.3968 58.8072 52.6513 58.1438 52.6128 57.2875C52.6128 56.3849 52.4662 55.6675 52.173 55.1429C51.8799 54.6107 51.4865 54.2018 51.0005 53.9087C50.5068 53.6155 49.9437 53.4227 49.2957 53.3224C48.6477 53.2221 47.9534 53.1758 47.2051 53.1758C45.562 53.1758 44.266 53.5307 43.3249 54.2327C42.3838 54.9347 41.8361 56.1149 41.6818 57.758H33.3274ZM52.6128 63.9294C52.2579 64.2456 51.8182 64.4848 51.2859 64.6622C50.7536 64.8396 50.1905 64.9862 49.5811 65.1019C48.9717 65.2176 48.3391 65.3179 47.668 65.3951C46.9968 65.4722 46.3334 65.5725 45.67 65.6882C45.0452 65.8039 44.428 65.9659 43.8186 66.1588C43.2092 66.3516 42.6846 66.6216 42.2295 66.9533C41.7821 67.285 41.4118 67.7093 41.1418 68.2184C40.8641 68.7276 40.7329 69.3756 40.7329 70.1624C40.7329 70.9493 40.8718 71.5355 41.1418 72.0447C41.4118 72.5538 41.7898 72.9549 42.2604 73.2481C42.7309 73.5412 43.2786 73.7495 43.9035 73.8652C44.5283 73.9809 45.1763 74.0426 45.8474 74.0426C47.4906 74.0426 48.7711 73.7726 49.6659 73.2172C50.5685 72.6695 51.2319 72.0138 51.6639 71.2501C52.0959 70.4864 52.3582 69.715 52.4585 68.9281C52.5588 68.1413 52.605 67.5165 52.605 67.0459V63.9294H52.6128Z" fill="white"/>
<path d="M74.706 48.4085V52.5278H74.8217C75.9172 50.9619 77.244 49.743 78.7945 48.879C80.3451 48.0151 82.1193 47.5831 84.1173 47.5831C86.1153 47.5831 87.7893 47.9533 89.3784 48.7016C90.9675 49.4499 92.1709 50.7613 92.9963 52.6436C93.8989 51.309 95.1254 50.1365 96.6682 49.1182C98.2188 48.0999 100.047 47.5908 102.168 47.5908C103.773 47.5908 105.262 47.7836 106.635 48.1771C108.008 48.5705 109.181 49.1953 110.16 50.0593C111.14 50.9233 111.904 52.0496 112.451 53.4381C112.999 54.8267 113.277 56.5084 113.277 58.4677V78.81H104.93V61.5843C104.93 60.566 104.892 59.6017 104.814 58.6992C104.737 57.7966 104.521 57.0175 104.166 56.3464C103.812 55.6829 103.295 55.1507 102.608 54.7572C101.922 54.3638 100.988 54.171 99.8156 54.171C98.6431 54.171 97.6865 54.3947 96.9614 54.8498C96.2362 55.2972 95.6654 55.8912 95.2566 56.6163C94.8477 57.3415 94.57 58.1669 94.4311 59.0849C94.2923 60.0029 94.2229 60.9363 94.2229 61.8774V78.81H85.8761V61.7617C85.8761 60.8591 85.853 59.9643 85.8144 59.0849C85.7759 58.2055 85.6061 57.3878 85.313 56.6472C85.0199 55.9066 84.5262 55.3049 83.8396 54.8498C83.153 54.4024 82.1425 54.171 80.8079 54.171C80.4145 54.171 79.8977 54.2558 79.2497 54.4332C78.6017 54.6107 77.9768 54.9424 77.3674 55.4361C76.758 55.9298 76.2412 56.6318 75.8092 57.5498C75.3772 58.4677 75.1612 59.6789 75.1612 61.1677V78.81H66.8145V48.4085H74.6906H74.706Z" fill="white"/>
<path d="M127.957 71.5201C129.214 72.7389 131.012 73.3406 133.365 73.3406C135.046 73.3406 136.497 72.9163 137.715 72.0755C138.926 71.2346 139.675 70.3398 139.952 69.3987H147.304C146.131 73.0475 144.326 75.6549 141.896 77.2208C139.466 78.7868 136.527 79.5737 133.079 79.5737C130.688 79.5737 128.528 79.1879 126.607 78.4242C124.686 77.6605 123.058 76.5728 121.724 75.1612C120.389 73.7495 119.363 72.0678 118.638 70.1007C117.913 68.1413 117.551 65.9813 117.551 63.6362C117.551 61.2911 117.921 59.2469 118.669 57.2875C119.41 55.3281 120.474 53.6309 121.847 52.2038C123.22 50.7767 124.856 49.6427 126.754 48.825C128.651 47.9996 130.765 47.5908 133.071 47.5908C135.656 47.5908 137.916 48.0922 139.837 49.0873C141.758 50.0901 143.339 51.4324 144.573 53.1141C145.808 54.8035 146.702 56.7243 147.25 58.8766C147.798 61.0365 147.991 63.2891 147.836 65.6419H125.905C126.021 68.3496 126.707 70.3089 127.965 71.5201H127.957ZM137.391 55.5286C136.389 54.4332 134.869 53.8855 132.832 53.8855C131.498 53.8855 130.395 54.1092 129.507 54.5644C128.628 55.0118 127.918 55.5749 127.394 56.2383C126.862 56.9017 126.491 57.6114 126.275 58.352C126.059 59.1003 125.928 59.7637 125.89 60.35H139.474C139.081 58.2363 138.386 56.624 137.384 55.5286H137.391Z" fill="white"/>
<path d="M160.025 48.4085V54.0552H160.14C160.534 53.1141 161.058 52.2424 161.73 51.4401C162.393 50.6379 163.157 49.9513 164.021 49.3804C164.885 48.8096 165.803 48.3699 166.782 48.0613C167.762 47.745 168.78 47.5908 169.837 47.5908C170.385 47.5908 170.994 47.691 171.658 47.8839V55.6443C171.264 55.5672 170.794 55.4978 170.246 55.4361C169.698 55.3743 169.166 55.3512 168.657 55.3512C167.129 55.3512 165.833 55.6058 164.777 56.1149C163.72 56.624 162.863 57.3183 162.216 58.2054C161.568 59.0849 161.105 60.1186 160.835 61.2911C160.557 62.4637 160.426 63.7442 160.426 65.1096V78.81H152.079V48.4085H160.017H160.025Z" fill="white"/>
<path d="M183.175 48.4085V78.81H174.828V48.4085H183.175Z" fill="#FFFFFF"/>
<path d="M203.17 53.8778C201.835 53.8778 200.717 54.1786 199.822 54.7881C198.92 55.3975 198.187 56.1766 197.616 57.1409C197.045 58.1052 196.644 59.162 196.412 60.3191C196.181 61.4762 196.058 62.6257 196.058 63.7596C196.058 64.8936 196.173 65.9736 196.412 67.1076C196.652 68.2416 197.03 69.2753 197.562 70.1932C198.094 71.1112 198.804 71.8672 199.706 72.4535C200.609 73.0398 201.704 73.3329 203 73.3329C204.998 73.3329 206.541 72.7775 207.613 71.6589C208.693 70.5404 209.364 69.0438 209.642 67.1616H217.696C217.148 71.1961 215.582 74.274 212.99 76.3954C210.406 78.5091 207.089 79.5737 203.054 79.5737C200.779 79.5737 198.696 79.1879 196.79 78.4242C194.885 77.6605 193.273 76.596 191.938 75.2229C190.604 73.8497 189.562 72.2143 188.822 70.3167C188.073 68.419 187.703 66.3284 187.703 64.0528C187.703 61.7771 188.043 59.5168 188.729 57.4957C189.416 55.4746 190.426 53.7312 191.761 52.2655C193.095 50.7921 194.723 49.6504 196.644 48.825C198.565 47.9996 200.763 47.5908 203.232 47.5908C205.037 47.5908 206.773 47.8222 208.439 48.2927C210.105 48.7633 211.594 49.4807 212.905 50.4373C214.217 51.4016 215.289 52.5972 216.107 54.0244C216.932 55.4592 217.403 57.1486 217.518 59.108H209.341C208.794 55.6212 206.734 53.8778 203.17 53.8778V53.8778Z" fill="#FFFFFF"/>
<path d="M221.414 57.758C221.53 55.7986 222.023 54.171 222.887 52.875C223.751 51.579 224.847 50.5453 226.181 49.7585C227.516 48.9716 229.012 48.4162 230.679 48.0845C232.345 47.7528 234.019 47.5831 235.708 47.5831C237.236 47.5831 238.786 47.6911 240.352 47.9071C241.918 48.1231 243.353 48.5473 244.641 49.1722C245.937 49.797 246.994 50.6687 247.819 51.7873C248.645 52.9058 249.054 54.387 249.054 56.2306V72.0447C249.054 73.4178 249.131 74.7292 249.293 75.9866C249.447 77.244 249.725 78.1851 250.118 78.81H241.648C241.494 78.3394 241.363 77.8611 241.262 77.3674C241.162 76.8814 241.093 76.38 241.054 75.8709C239.72 77.244 238.154 78.2006 236.349 78.756C234.543 79.3037 232.7 79.5814 230.817 79.5814C229.367 79.5814 228.017 79.404 226.76 79.0491C225.502 78.6943 224.407 78.1466 223.466 77.406C222.525 76.6654 221.792 75.7243 221.26 74.5826C220.727 73.4486 220.465 72.091 220.465 70.525C220.465 68.797 220.766 67.3776 221.375 66.259C221.985 65.1405 222.764 64.2534 223.728 63.5822C224.685 62.9188 225.788 62.4174 227.022 62.0857C228.256 61.754 229.498 61.4917 230.756 61.2911C232.013 61.0983 233.247 60.9363 234.459 60.8206C235.67 60.7049 236.75 60.5274 237.691 60.2883C238.632 60.0569 239.372 59.7097 239.928 59.2623C240.476 58.8149 240.73 58.1515 240.692 57.2952C240.692 56.3926 240.545 55.6752 240.252 55.1507C239.959 54.6184 239.565 54.2095 239.079 53.9164C238.586 53.6233 238.023 53.4304 237.375 53.3301C236.727 53.2298 236.032 53.1835 235.284 53.1835C233.641 53.1835 232.345 53.5384 231.404 54.2404C230.463 54.9424 229.915 56.1226 229.761 57.7658H221.414V57.758ZM240.699 63.9294C240.344 64.2456 239.905 64.4848 239.372 64.6622C238.84 64.8396 238.277 64.9862 237.668 65.1019C237.058 65.2176 236.426 65.3179 235.755 65.3951C235.091 65.4722 234.42 65.5725 233.757 65.6882C233.132 65.8039 232.515 65.9659 231.905 66.1588C231.296 66.3516 230.771 66.6216 230.316 66.9533C229.869 67.285 229.498 67.7093 229.228 68.2184C228.951 68.7276 228.82 69.3756 228.82 70.1624C228.82 70.9493 228.958 71.5355 229.228 72.0447C229.506 72.5538 229.876 72.9549 230.347 73.2481C230.817 73.5412 231.365 73.7495 231.99 73.8652C232.615 73.9809 233.263 74.0426 233.934 74.0426C235.577 74.0426 236.858 73.7726 237.753 73.2172C238.655 72.6695 239.318 72.0138 239.75 71.2501C240.182 70.4864 240.445 69.715 240.545 68.9281C240.645 68.1413 240.692 67.5165 240.692 67.0459V63.9294H240.699Z" fill="#FFFFFF"/>
<path d="M262.808 48.4085V52.6435H262.986C264.043 50.877 265.416 49.5964 267.105 48.7942C268.787 47.9919 270.515 47.5908 272.281 47.5908C274.518 47.5908 276.347 47.8916 277.781 48.501C279.209 49.1104 280.343 49.9513 281.16 51.0313C281.986 52.1113 282.564 53.4227 282.896 54.9732C283.228 56.5238 283.397 58.2363 283.397 60.1186V78.8177H275.051V61.646C275.051 59.1389 274.657 57.2643 273.878 56.03C273.091 54.7958 271.703 54.1787 269.705 54.1787C267.429 54.1787 265.786 54.8575 264.768 56.2075C263.749 57.5575 263.24 59.7868 263.24 62.8802V78.8177H254.894V48.4085H262.831H262.808Z" fill="#FFFFFF"/>
<path d="M288.62 57.758C288.735 55.7986 289.229 54.171 290.093 52.875C290.957 51.579 292.053 50.5453 293.387 49.7585C294.722 48.9716 296.218 48.4162 297.884 48.0845C299.551 47.7528 301.225 47.5831 302.914 47.5831C304.441 47.5831 305.992 47.6911 307.558 47.9071C309.124 48.1231 310.559 48.5473 311.847 49.1722C313.143 49.797 314.2 50.6687 315.025 51.7873C315.851 52.9058 316.26 54.387 316.26 56.2306V72.0447C316.26 73.4178 316.337 74.7292 316.499 75.9866C316.653 77.244 316.931 78.1851 317.324 78.81H308.854C308.7 78.3394 308.569 77.8611 308.468 77.3674C308.368 76.8814 308.299 76.38 308.26 75.8709C306.925 77.244 305.359 78.2006 303.554 78.756C301.749 79.3037 299.906 79.5814 298.023 79.5814C296.573 79.5814 295.223 79.404 293.966 79.0491C292.708 78.6943 291.613 78.1466 290.672 77.406C289.731 76.6654 288.998 75.7243 288.465 74.5826C287.933 73.4486 287.671 72.091 287.671 70.525C287.671 68.797 287.972 67.3776 288.581 66.259C289.191 65.1405 289.97 64.2534 290.934 63.5822C291.891 62.9188 292.994 62.4174 294.228 62.0857C295.462 61.754 296.704 61.4917 297.962 61.2911C299.219 61.0983 300.453 60.9363 301.664 60.8206C302.876 60.7049 303.956 60.5274 304.897 60.2883C305.838 60.0569 306.578 59.7097 307.134 59.2623C307.681 58.8149 307.936 58.1515 307.897 57.2952C307.897 56.3926 307.751 55.6752 307.458 55.1507C307.165 54.6184 306.771 54.2095 306.285 53.9164C305.791 53.6233 305.228 53.4304 304.58 53.3301C303.932 53.2298 303.238 53.1835 302.49 53.1835C300.847 53.1835 299.551 53.5384 298.61 54.2404C297.668 54.9424 297.121 56.1226 296.966 57.7658H288.62V57.758ZM307.905 63.9294C307.55 64.2456 307.111 64.4848 306.578 64.6622C306.046 64.8396 305.483 64.9862 304.873 65.1019C304.264 65.2176 303.631 65.3179 302.96 65.3951C302.297 65.4722 301.626 65.5725 300.962 65.6882C300.338 65.8039 299.72 65.9659 299.111 66.1588C298.502 66.3516 297.977 66.6216 297.522 66.9533C297.074 67.285 296.704 67.7093 296.434 68.2184C296.156 68.7276 296.025 69.3756 296.025 70.1624C296.025 70.9493 296.164 71.5355 296.434 72.0447C296.704 72.5538 297.082 72.9549 297.553 73.2481C298.023 73.5412 298.571 73.7495 299.196 73.8652C299.821 73.9809 300.469 74.0426 301.14 74.0426C302.783 74.0426 304.063 73.7726 304.958 73.2172C305.861 72.6695 306.524 72.0138 306.956 71.2501C307.388 70.4864 307.651 69.715 307.751 68.9281C307.851 68.1413 307.897 67.5165 307.897 67.0459V63.9294H307.905Z" fill="#FFFFFF"/>
<path d="M328.888 71.2501C329.258 71.8981 329.744 72.4227 330.33 72.8392C330.917 73.2481 331.595 73.5566 332.359 73.7495C333.123 73.9423 333.917 74.0426 334.743 74.0426C335.329 74.0426 335.946 73.9732 336.594 73.8343C337.242 73.6955 337.828 73.4795 338.361 73.1864C338.893 72.8932 339.333 72.4998 339.688 72.0138C340.042 71.5278 340.22 70.9107 340.22 70.1624C340.22 68.905 339.387 67.9639 337.72 67.339C336.054 66.7142 333.732 66.0816 330.755 65.4568C329.536 65.1868 328.355 64.8628 327.198 64.4848C326.041 64.1145 325.015 63.6208 324.113 63.0114C323.21 62.402 322.485 61.6383 321.937 60.7203C321.39 59.8023 321.112 58.676 321.112 57.3415C321.112 55.3821 321.498 53.7775 322.261 52.5201C323.025 51.2627 324.036 50.2753 325.293 49.5502C326.55 48.825 327.954 48.3159 329.528 48.0228C331.094 47.7296 332.706 47.5831 334.349 47.5831C335.992 47.5831 337.589 47.7374 339.14 48.0536C340.69 48.3699 342.071 48.8945 343.282 49.6427C344.493 50.391 345.504 51.3784 346.314 52.6127C347.116 53.847 347.595 55.4052 347.757 57.2875H339.819C339.703 55.6829 339.094 54.5952 337.998 54.0244C336.903 53.4535 335.607 53.1758 334.118 53.1758C333.647 53.1758 333.138 53.2067 332.591 53.2607C332.043 53.3224 331.541 53.4458 331.094 53.6464C330.647 53.8393 330.261 54.1247 329.945 54.5027C329.628 54.8729 329.474 55.3744 329.474 55.9992C329.474 56.7475 329.744 57.3492 330.299 57.8198C330.847 58.2903 331.565 58.676 332.444 58.9692C333.323 59.2623 334.334 59.5246 335.476 59.7637C336.61 59.9951 337.767 60.2574 338.947 60.5274C340.166 60.8051 341.346 61.1368 342.503 61.5303C343.66 61.9237 344.686 62.4405 345.589 63.0885C346.491 63.7365 347.217 64.5388 347.764 65.5031C348.312 66.4673 348.59 67.6476 348.59 69.0593C348.59 71.0573 348.189 72.7312 347.386 74.0889C346.584 75.4389 345.535 76.5266 344.239 77.352C342.943 78.1774 341.462 78.756 339.796 79.0877C338.129 79.4194 336.432 79.5891 334.712 79.5891C332.992 79.5891 331.225 79.4117 329.536 79.0568C327.846 78.702 326.35 78.1157 325.038 77.2903C323.727 76.4649 322.647 75.3772 321.806 74.0272C320.965 72.6772 320.502 70.9801 320.425 68.9436H328.363C328.363 69.8461 328.548 70.6175 328.919 71.2655L328.888 71.2501Z" fill="#FFFFFF"/>
<path d="M363.902 68.7507C363.979 70.1624 364.296 71.4044 364.843 72.4843C365.391 73.5643 366.108 74.4823 366.988 75.246C367.867 76.0097 368.901 76.5883 370.074 76.9817C371.246 77.3751 372.527 77.568 373.892 77.568C374.872 77.568 375.921 77.4831 377.039 77.3057C378.158 77.1283 379.192 76.8043 380.156 76.3337C381.113 75.8631 381.907 75.2074 382.54 74.3666C383.164 73.5258 383.481 72.4535 383.481 71.1652C383.481 69.4835 382.972 68.203 381.953 67.3467C380.935 66.4827 379.647 65.8193 378.104 65.3487C376.553 64.8782 374.887 64.4925 373.105 64.1993C371.323 63.9062 369.657 63.4665 368.106 62.8725C366.556 62.2862 365.275 61.4531 364.257 60.3731C363.239 59.2931 362.73 57.7194 362.73 55.6366C362.73 54.1478 363.061 52.9058 363.733 51.903C364.396 50.9001 365.252 50.1133 366.294 49.5193C367.335 48.933 368.5 48.5087 369.796 48.2542C371.092 47.9996 372.38 47.8685 373.676 47.8685C375.242 47.8685 376.715 48.0459 378.089 48.4007C379.462 48.7556 380.65 49.3187 381.645 50.1056C382.648 50.8924 383.427 51.8875 383.998 53.1064C384.568 54.3252 384.854 55.7909 384.854 57.5189H382.617C382.617 56.1458 382.393 54.9732 381.938 53.9935C381.491 53.0138 380.858 52.2193 380.056 51.6098C379.253 51.0004 378.297 50.553 377.201 50.2599C376.106 49.9667 374.926 49.8202 373.676 49.8202C372.658 49.8202 371.624 49.9204 370.59 50.1133C369.549 50.3061 368.623 50.6456 367.798 51.1161C366.972 51.5867 366.301 52.1961 365.769 52.9367C365.237 53.6849 364.975 54.5798 364.975 55.6443C364.975 56.8632 365.268 57.8429 365.854 58.5834C366.44 59.3317 367.212 59.9257 368.176 60.3731C369.132 60.8205 370.212 61.1908 371.408 61.4608C372.604 61.7385 373.807 62.0085 375.026 62.2862C376.515 62.5639 377.919 62.8879 379.23 63.2582C380.542 63.6285 381.683 64.1376 382.64 64.7856C383.596 65.4336 384.352 66.2667 384.9 67.285C385.448 68.3033 385.726 69.5993 385.726 71.1652C385.726 72.8083 385.355 74.166 384.607 75.2229C383.859 76.2797 382.918 77.136 381.784 77.784C380.65 78.432 379.385 78.8794 377.988 79.1339C376.6 79.3885 375.234 79.5197 373.9 79.5197C372.172 79.5197 370.575 79.2959 369.109 78.8408C367.636 78.3934 366.355 77.7068 365.26 76.7811C364.165 75.8632 363.301 74.7369 362.676 73.4023C362.051 72.0678 361.711 70.525 361.673 68.7584H363.91L363.902 68.7507Z" fill="#FFFFFF"/>
<path d="M412.193 72.8084H412.077C411.722 73.7109 411.213 74.5672 410.55 75.3695C409.886 76.1717 409.069 76.8891 408.112 77.514C407.148 78.1388 406.06 78.6325 404.849 78.9874C403.63 79.3422 402.303 79.5197 400.853 79.5197C397.636 79.5197 395.152 78.8254 393.386 77.4291C391.619 76.0406 390.74 73.8883 390.74 70.9878C390.74 69.2213 391.095 67.7864 391.797 66.6679C392.499 65.5493 393.393 64.6699 394.473 64.0219C395.553 63.3739 396.749 62.9188 398.06 62.6411C399.372 62.3711 400.637 62.1705 401.856 62.0548L405.327 61.7617C406.932 61.646 408.197 61.4608 409.123 61.2063C410.041 60.9517 410.743 60.5968 411.213 60.1494C411.684 59.702 411.977 59.1234 412.093 58.4137C412.208 57.7117 412.27 56.8246 412.27 55.7678C412.27 54.9424 412.116 54.1787 411.799 53.4767C411.483 52.7747 410.997 52.1421 410.326 51.5944C409.663 51.0467 408.799 50.6147 407.742 50.2984C406.685 49.9822 405.389 49.8279 403.862 49.8279C401.154 49.8279 398.971 50.4913 397.304 51.8258C395.638 53.1604 394.728 55.1738 394.574 57.8815H392.337C392.491 54.5489 393.563 52.0496 395.538 50.3833C397.52 48.717 400.328 47.8839 403.977 47.8839C407.626 47.8839 410.28 48.6013 411.946 50.0284C413.612 51.4633 414.445 53.3301 414.445 55.6444V73.2249C414.445 73.6569 414.453 74.0889 414.476 74.5209C414.499 74.9529 414.561 75.3463 414.684 75.6934C414.8 76.0483 415.001 76.3337 415.271 76.5497C415.548 76.7657 415.934 76.8737 416.443 76.8737C416.837 76.8737 417.384 76.812 418.086 76.6963V78.5785C417.5 78.7328 416.891 78.81 416.266 78.81C415.363 78.81 414.646 78.6943 414.121 78.4551C413.589 78.2237 413.188 77.9074 412.918 77.514C412.64 77.1206 412.455 76.6654 412.363 76.1332C412.262 75.6009 412.216 75.0223 412.216 74.3975V72.8084H412.193ZM412.193 61.6383C411.645 62.3017 410.812 62.7568 409.693 62.9882C408.575 63.2197 407.333 63.3971 405.96 63.5205L402.195 63.8754C401.1 63.9911 399.997 64.1608 398.901 64.3768C397.806 64.5928 396.811 64.9553 395.931 65.4645C395.052 65.9736 394.335 66.6679 393.787 67.555C393.239 68.4344 392.961 69.5838 392.961 70.9955C392.961 73.2326 393.663 74.8835 395.075 75.9634C396.487 77.0434 398.423 77.5834 400.899 77.5834C403.376 77.5834 405.466 77.1206 406.955 76.2026C408.444 75.2846 409.578 74.22 410.365 73.0243C411.151 71.8287 411.645 70.6715 411.861 69.553C412.077 68.4344 412.185 67.6784 412.185 67.2927V61.646L412.193 61.6383Z" fill="#FFFFFF"/>
<path d="M348.466 32.363H32.363V40.2623H348.466V32.363Z" fill="#FFFFFF"/>
<path d="M348.466 86.1075H32.363V94.0069H348.466V86.1075Z" fill="#FFFFFF"/>
</svg>
