<svg width="183" height="29" viewBox="0 0 183 29" fill="none" xmlns="http://www.w3.org/2000/svg">
<path d="M6.66607 12.6625C7.36373 12.5757 7.86445 12.4656 8.16488 12.3321C8.70231 12.105 8.97269 11.7479 8.97269 11.2672C8.97269 10.6797 8.76573 10.2725 8.35181 10.0488C7.93788 9.82516 7.33035 9.71167 6.52921 9.71167C5.63127 9.71167 4.99369 9.93198 4.61983 10.3693C4.35277 10.6931 4.17586 11.1337 4.08573 11.6845H0.467247C0.547361 10.4293 0.89786 9.39788 1.52542 8.59006C2.52017 7.32826 4.2326 6.69403 6.65606 6.69403C8.23497 6.69403 9.63363 7.00448 10.862 7.62869C12.0872 8.25292 12.7014 9.42792 12.7014 11.1571V17.7398C12.7014 18.1971 12.7113 18.7478 12.7281 19.3988C12.7547 19.8895 12.8281 20.2233 12.9517 20.4002C13.0752 20.5771 13.2588 20.7206 13.5058 20.8341V21.3916H9.42C9.30649 21.1012 9.22638 20.8309 9.18299 20.5738C9.13959 20.3167 9.10287 20.0297 9.07617 19.7059C8.55543 20.2667 7.95457 20.7441 7.27695 21.1413C6.46579 21.6052 5.54781 21.8389 4.52302 21.8389C3.2145 21.8389 2.13629 21.4684 1.28508 20.7273C0.433866 19.9863 0.0065918 18.9348 0.0065918 17.5728C0.0065918 15.8069 0.6909 14.5319 2.06285 13.7408C2.81392 13.3101 3.91883 13.003 5.37757 12.8194L6.66607 12.6625ZM8.95933 14.4117C8.71899 14.5619 8.47532 14.6821 8.23164 14.7756C7.98796 14.869 7.6508 14.9525 7.22353 15.0326L6.36898 15.1895C5.56784 15.3297 4.99369 15.4999 4.6432 15.7035C4.05236 16.0473 3.75859 16.5781 3.75859 17.2958C3.75859 17.9367 3.93885 18.4007 4.29937 18.6845C4.65988 18.9715 5.10051 19.1117 5.61457 19.1117C6.43575 19.1117 7.19015 18.8747 7.88113 18.4007C8.57212 17.9266 8.92929 17.0621 8.95933 15.807V14.4117Z" fill="#F80032"/>
<path d="M13.5159 0.418457H0V4.10704H13.5159V0.418457Z" fill="#F80032"/>
<path d="M13.5328 23.5359H0.0168457V27.2245H13.5328V23.5359Z" fill="#F80032"/>
<path d="M45.4116 7.85547L40.771 22H37.0327L43.3726 4.9375H45.7515L45.4116 7.85547ZM49.2671 22L44.6147 7.85547L44.2397 4.9375H46.6421L53.0171 22H49.2671ZM49.0562 15.6484V18.4023H40.0444V15.6484H49.0562ZM57.3882 11.9453V22H54.0015V9.32031H57.1772L57.3882 11.9453ZM56.9194 15.2148H55.9819C55.9819 14.332 56.0874 13.5195 56.2983 12.7773C56.5171 12.0273 56.8335 11.3789 57.2476 10.832C57.6694 10.2773 58.189 9.84766 58.8062 9.54297C59.4233 9.23828 60.1382 9.08594 60.9507 9.08594C61.5132 9.08594 62.0288 9.17188 62.4976 9.34375C62.9663 9.50781 63.3687 9.76953 63.7046 10.1289C64.0483 10.4805 64.314 10.9414 64.5015 11.5117C64.689 12.0742 64.7827 12.75 64.7827 13.5391V22H61.4077V13.9141C61.4077 13.3359 61.3296 12.8906 61.1733 12.5781C61.0171 12.2656 60.7944 12.0469 60.5054 11.9219C60.2241 11.7969 59.8843 11.7344 59.4858 11.7344C59.0483 11.7344 58.6655 11.8242 58.3374 12.0039C58.0171 12.1836 57.7515 12.4336 57.5405 12.7539C57.3296 13.0664 57.1733 13.4336 57.0718 13.8555C56.9702 14.2773 56.9194 14.7305 56.9194 15.2148ZM64.4663 14.8281L63.2593 14.9805C63.2593 14.1523 63.3608 13.3828 63.564 12.6719C63.7749 11.9609 64.0835 11.3359 64.4897 10.7969C64.9038 10.2578 65.4155 9.83984 66.0249 9.54297C66.6343 9.23828 67.3374 9.08594 68.1343 9.08594C68.7437 9.08594 69.2983 9.17578 69.7983 9.35547C70.2983 9.52734 70.7241 9.80469 71.0757 10.1875C71.4351 10.5625 71.7085 11.0547 71.896 11.6641C72.0913 12.2734 72.189 13.0195 72.189 13.9023V22H68.8022V13.9023C68.8022 13.3164 68.7241 12.8711 68.5679 12.5664C68.4194 12.2539 68.2007 12.0391 67.9116 11.9219C67.6304 11.7969 67.2944 11.7344 66.9038 11.7344C66.4976 11.7344 66.1421 11.8164 65.8374 11.9805C65.5327 12.1367 65.2788 12.3555 65.0757 12.6367C64.8726 12.918 64.7202 13.2461 64.6187 13.6211C64.5171 13.9883 64.4663 14.3906 64.4663 14.8281ZM80.6382 22.2344C79.6538 22.2344 78.771 22.0781 77.9897 21.7656C77.2085 21.4453 76.5444 21.0039 75.9976 20.4414C75.4585 19.8789 75.0444 19.2266 74.7554 18.4844C74.4663 17.7344 74.3218 16.9375 74.3218 16.0938V15.625C74.3218 14.6641 74.4585 13.7852 74.7319 12.9883C75.0054 12.1914 75.396 11.5 75.9038 10.9141C76.4194 10.3281 77.0444 9.87891 77.7788 9.56641C78.5132 9.24609 79.3413 9.08594 80.2632 9.08594C81.1616 9.08594 81.9585 9.23438 82.6538 9.53125C83.3491 9.82812 83.9312 10.25 84.3999 10.7969C84.8765 11.3438 85.2358 12 85.478 12.7656C85.7202 13.5234 85.8413 14.3672 85.8413 15.2969V16.7031H75.7632V14.4531H82.5249V14.1953C82.5249 13.7266 82.439 13.3086 82.2671 12.9414C82.103 12.5664 81.853 12.2695 81.5171 12.0508C81.1812 11.832 80.7515 11.7227 80.228 11.7227C79.7827 11.7227 79.3999 11.8203 79.0796 12.0156C78.7593 12.2109 78.4976 12.4844 78.2944 12.8359C78.0991 13.1875 77.9507 13.6016 77.8491 14.0781C77.7554 14.5469 77.7085 15.0625 77.7085 15.625V16.0938C77.7085 16.6016 77.7788 17.0703 77.9194 17.5C78.0679 17.9297 78.2749 18.3008 78.5405 18.6133C78.814 18.9258 79.1421 19.168 79.5249 19.3398C79.9155 19.5117 80.3569 19.5977 80.8491 19.5977C81.4585 19.5977 82.0249 19.4805 82.5483 19.2461C83.0796 19.0039 83.5366 18.6406 83.9194 18.1562L85.5601 19.9375C85.2944 20.3203 84.9312 20.6875 84.4702 21.0391C84.0171 21.3906 83.4702 21.6797 82.8296 21.9062C82.189 22.125 81.4585 22.2344 80.6382 22.2344ZM91.1382 12.0859V22H87.7632V9.32031H90.939L91.1382 12.0859ZM94.9585 9.23828L94.8999 12.3672C94.7358 12.3438 94.5366 12.3242 94.3022 12.3086C94.0757 12.2852 93.8687 12.2734 93.6812 12.2734C93.2046 12.2734 92.7905 12.3359 92.439 12.4609C92.0952 12.5781 91.8062 12.7539 91.5718 12.9883C91.3452 13.2227 91.1733 13.5078 91.0562 13.8438C90.9468 14.1797 90.8843 14.5625 90.8687 14.9922L90.189 14.7812C90.189 13.9609 90.271 13.207 90.4351 12.5195C90.5991 11.8242 90.8374 11.2188 91.1499 10.7031C91.4702 10.1875 91.8608 9.78906 92.3218 9.50781C92.7827 9.22656 93.3101 9.08594 93.9038 9.08594C94.0913 9.08594 94.2827 9.10156 94.478 9.13281C94.6733 9.15625 94.8335 9.19141 94.9585 9.23828ZM100.115 9.32031V22H96.728V9.32031H100.115ZM96.5171 6.01562C96.5171 5.52344 96.689 5.11719 97.0327 4.79688C97.3765 4.47656 97.8374 4.31641 98.4155 4.31641C98.9858 4.31641 99.4429 4.47656 99.7866 4.79688C100.138 5.11719 100.314 5.52344 100.314 6.01562C100.314 6.50781 100.138 6.91406 99.7866 7.23438C99.4429 7.55469 98.9858 7.71484 98.4155 7.71484C97.8374 7.71484 97.3765 7.55469 97.0327 7.23438C96.689 6.91406 96.5171 6.50781 96.5171 6.01562ZM108.142 19.5977C108.556 19.5977 108.923 19.5195 109.244 19.3633C109.564 19.1992 109.814 18.9727 109.994 18.6836C110.181 18.3867 110.279 18.0391 110.287 17.6406H113.462C113.455 18.5312 113.216 19.3242 112.748 20.0195C112.279 20.707 111.65 21.25 110.861 21.6484C110.072 22.0391 109.189 22.2344 108.212 22.2344C107.228 22.2344 106.369 22.0703 105.634 21.7422C104.908 21.4141 104.302 20.9609 103.818 20.3828C103.333 19.7969 102.97 19.1172 102.728 18.3438C102.486 17.5625 102.365 16.7266 102.365 15.8359V15.4961C102.365 14.5977 102.486 13.7617 102.728 12.9883C102.97 12.207 103.333 11.5273 103.818 10.9492C104.302 10.3633 104.908 9.90625 105.634 9.57812C106.361 9.25 107.212 9.08594 108.189 9.08594C109.228 9.08594 110.138 9.28516 110.919 9.68359C111.708 10.082 112.326 10.6523 112.771 11.3945C113.224 12.1289 113.455 13 113.462 14.0078H110.287C110.279 13.5859 110.189 13.2031 110.017 12.8594C109.853 12.5156 109.611 12.2422 109.291 12.0391C108.978 11.8281 108.591 11.7227 108.13 11.7227C107.638 11.7227 107.236 11.8281 106.923 12.0391C106.611 12.2422 106.369 12.5234 106.197 12.8828C106.025 13.2344 105.904 13.6367 105.833 14.0898C105.771 14.5352 105.74 15.0039 105.74 15.4961V15.8359C105.74 16.3281 105.771 16.8008 105.833 17.2539C105.896 17.707 106.013 18.1094 106.185 18.4609C106.365 18.8125 106.611 19.0898 106.923 19.293C107.236 19.4961 107.642 19.5977 108.142 19.5977ZM122.263 19.1406V13.4922C122.263 13.0859 122.197 12.7383 122.064 12.4492C121.931 12.1523 121.724 11.9219 121.443 11.7578C121.169 11.5938 120.814 11.5117 120.376 11.5117C120.001 11.5117 119.677 11.5781 119.404 11.7109C119.13 11.8359 118.919 12.0195 118.771 12.2617C118.623 12.4961 118.548 12.7734 118.548 13.0938H115.173C115.173 12.5547 115.298 12.043 115.548 11.5586C115.798 11.0742 116.162 10.6484 116.638 10.2812C117.115 9.90625 117.681 9.61328 118.337 9.40234C119.001 9.19141 119.744 9.08594 120.564 9.08594C121.548 9.08594 122.423 9.25 123.189 9.57812C123.955 9.90625 124.556 10.3984 124.994 11.0547C125.439 11.7109 125.662 12.5312 125.662 13.5156V18.9414C125.662 19.6367 125.705 20.207 125.791 20.6523C125.876 21.0898 126.001 21.4727 126.166 21.8008V22H122.755C122.591 21.6562 122.466 21.2266 122.38 20.7109C122.302 20.1875 122.263 19.6641 122.263 19.1406ZM122.708 14.2773L122.732 16.1875H120.845C120.4 16.1875 120.013 16.2383 119.685 16.3398C119.357 16.4414 119.087 16.5859 118.876 16.7734C118.666 16.9531 118.509 17.1641 118.408 17.4062C118.314 17.6484 118.267 17.9141 118.267 18.2031C118.267 18.4922 118.333 18.7539 118.466 18.9883C118.599 19.2148 118.791 19.3945 119.041 19.5273C119.291 19.6523 119.583 19.7148 119.919 19.7148C120.427 19.7148 120.869 19.6133 121.244 19.4102C121.619 19.207 121.908 18.957 122.111 18.6602C122.322 18.3633 122.431 18.082 122.439 17.8164L123.33 19.2461C123.205 19.5664 123.033 19.8984 122.814 20.2422C122.603 20.5859 122.333 20.9102 122.005 21.2148C121.677 21.5117 121.283 21.7578 120.822 21.9531C120.361 22.1406 119.814 22.2344 119.181 22.2344C118.376 22.2344 117.646 22.0742 116.99 21.7539C116.341 21.4258 115.826 20.9766 115.443 20.4062C115.068 19.8281 114.88 19.1719 114.88 18.4375C114.88 17.7734 115.005 17.1836 115.255 16.668C115.505 16.1523 115.873 15.7188 116.357 15.3672C116.849 15.0078 117.462 14.7383 118.197 14.5586C118.931 14.3711 119.783 14.2773 120.751 14.2773H122.708ZM131.568 12.0273V22H128.193V9.32031H131.357L131.568 12.0273ZM131.076 15.2148H130.162C130.162 14.2773 130.283 13.4336 130.525 12.6836C130.767 11.9258 131.107 11.2812 131.544 10.75C131.982 10.2109 132.501 9.80078 133.103 9.51953C133.712 9.23047 134.392 9.08594 135.142 9.08594C135.736 9.08594 136.279 9.17188 136.771 9.34375C137.263 9.51562 137.685 9.78906 138.037 10.1641C138.396 10.5391 138.669 11.0352 138.857 11.6523C139.052 12.2695 139.15 13.0234 139.15 13.9141V22H135.751V13.9023C135.751 13.3398 135.673 12.9023 135.517 12.5898C135.361 12.2773 135.13 12.0586 134.826 11.9336C134.529 11.8008 134.162 11.7344 133.724 11.7344C133.271 11.7344 132.876 11.8242 132.541 12.0039C132.212 12.1836 131.939 12.4336 131.72 12.7539C131.509 13.0664 131.349 13.4336 131.24 13.8555C131.13 14.2773 131.076 14.7305 131.076 15.2148ZM148.56 19.1406V13.4922C148.56 13.0859 148.494 12.7383 148.361 12.4492C148.228 12.1523 148.021 11.9219 147.74 11.7578C147.466 11.5938 147.111 11.5117 146.673 11.5117C146.298 11.5117 145.974 11.5781 145.701 11.7109C145.427 11.8359 145.216 12.0195 145.068 12.2617C144.919 12.4961 144.845 12.7734 144.845 13.0938H141.47C141.47 12.5547 141.595 12.043 141.845 11.5586C142.095 11.0742 142.458 10.6484 142.935 10.2812C143.412 9.90625 143.978 9.61328 144.634 9.40234C145.298 9.19141 146.041 9.08594 146.861 9.08594C147.845 9.08594 148.72 9.25 149.486 9.57812C150.251 9.90625 150.853 10.3984 151.291 11.0547C151.736 11.7109 151.958 12.5312 151.958 13.5156V18.9414C151.958 19.6367 152.001 20.207 152.087 20.6523C152.173 21.0898 152.298 21.4727 152.462 21.8008V22H149.052C148.888 21.6562 148.763 21.2266 148.677 20.7109C148.599 20.1875 148.56 19.6641 148.56 19.1406ZM149.005 14.2773L149.029 16.1875H147.142C146.697 16.1875 146.31 16.2383 145.982 16.3398C145.654 16.4414 145.384 16.5859 145.173 16.7734C144.962 16.9531 144.806 17.1641 144.705 17.4062C144.611 17.6484 144.564 17.9141 144.564 18.2031C144.564 18.4922 144.63 18.7539 144.763 18.9883C144.896 19.2148 145.087 19.3945 145.337 19.5273C145.587 19.6523 145.88 19.7148 146.216 19.7148C146.724 19.7148 147.166 19.6133 147.541 19.4102C147.916 19.207 148.205 18.957 148.408 18.6602C148.619 18.3633 148.728 18.082 148.736 17.8164L149.626 19.2461C149.501 19.5664 149.33 19.8984 149.111 20.2422C148.9 20.5859 148.63 20.9102 148.302 21.2148C147.974 21.5117 147.58 21.7578 147.119 21.9531C146.658 22.1406 146.111 22.2344 145.478 22.2344C144.673 22.2344 143.943 22.0742 143.287 21.7539C142.638 21.4258 142.123 20.9766 141.74 20.4062C141.365 19.8281 141.177 19.1719 141.177 18.4375C141.177 17.7734 141.302 17.1836 141.552 16.668C141.802 16.1523 142.169 15.7188 142.654 15.3672C143.146 15.0078 143.759 14.7383 144.494 14.5586C145.228 14.3711 146.08 14.2773 147.048 14.2773H149.005ZM161.416 18.4961C161.416 18.2539 161.345 18.0352 161.205 17.8398C161.064 17.6445 160.802 17.4648 160.419 17.3008C160.044 17.1289 159.501 16.9727 158.791 16.832C158.15 16.6914 157.552 16.5156 156.998 16.3047C156.451 16.0859 155.974 15.8242 155.568 15.5195C155.169 15.2148 154.857 14.8555 154.63 14.4414C154.404 14.0195 154.291 13.5391 154.291 13C154.291 12.4688 154.404 11.9688 154.63 11.5C154.865 11.0312 155.197 10.6172 155.626 10.2578C156.064 9.89062 156.595 9.60547 157.22 9.40234C157.853 9.19141 158.564 9.08594 159.353 9.08594C160.455 9.08594 161.4 9.26172 162.189 9.61328C162.986 9.96484 163.595 10.4492 164.017 11.0664C164.447 11.6758 164.662 12.3711 164.662 13.1523H161.287C161.287 12.8242 161.216 12.5312 161.076 12.2734C160.943 12.0078 160.732 11.8008 160.443 11.6523C160.162 11.4961 159.794 11.418 159.341 11.418C158.966 11.418 158.642 11.4844 158.369 11.6172C158.095 11.7422 157.884 11.9141 157.736 12.1328C157.595 12.3438 157.525 12.5781 157.525 12.8359C157.525 13.0312 157.564 13.207 157.642 13.3633C157.728 13.5117 157.865 13.6484 158.052 13.7734C158.24 13.8984 158.482 14.0156 158.779 14.125C159.083 14.2266 159.458 14.3203 159.904 14.4062C160.818 14.5938 161.634 14.8398 162.353 15.1445C163.072 15.4414 163.642 15.8477 164.064 16.3633C164.486 16.8711 164.697 17.5391 164.697 18.3672C164.697 18.9297 164.572 19.4453 164.322 19.9141C164.072 20.3828 163.712 20.793 163.244 21.1445C162.775 21.4883 162.212 21.7578 161.556 21.9531C160.908 22.1406 160.177 22.2344 159.365 22.2344C158.185 22.2344 157.185 22.0234 156.365 21.6016C155.552 21.1797 154.935 20.6445 154.513 19.9961C154.099 19.3398 153.892 18.668 153.892 17.9805H157.091C157.107 18.4414 157.224 18.8125 157.443 19.0938C157.669 19.375 157.955 19.5781 158.298 19.7031C158.65 19.8281 159.029 19.8906 159.435 19.8906C159.873 19.8906 160.236 19.832 160.525 19.7148C160.814 19.5898 161.033 19.4258 161.181 19.2227C161.337 19.0117 161.416 18.7695 161.416 18.4961Z" fill="#F80032"/>
</svg>
