<svg width="1920" height="1032" viewBox="0 0 1920 1032" fill="none" xmlns="http://www.w3.org/2000/svg">
<g clip-path="url(#clip0_49_157)">
<path d="M156.308 223.796C155.246 223.796 154.385 224.522 154.385 225.417V228.657C154.385 229.552 155.246 230.278 156.308 230.278H164C165.062 230.278 165.923 229.552 165.923 228.657V225.417C165.923 224.522 165.062 223.796 164 223.796H156.308Z" fill="#E01111" fill-opacity="0.5"/>
<path fill-rule="evenodd" clip-rule="evenodd" d="M139 220.556C139 215.186 144.166 210.833 150.538 210.833H227.462C233.834 210.833 239 215.186 239 220.556V259.444C239 264.814 233.834 269.167 227.462 269.167H150.538C144.166 269.167 139 264.814 139 259.444V220.556ZM146.692 220.556C146.692 218.766 148.414 217.315 150.538 217.315H227.462C229.586 217.315 231.308 218.766 231.308 220.556V231.545L224.329 225.605C222.949 224.451 221.169 223.796 219.244 223.796H185.679C183.754 223.796 181.974 224.451 180.594 225.605L172.13 232.808C170.605 234.118 169.769 235.865 169.769 237.736C169.769 239.42 170.496 241.041 171.694 242.195L195.664 262.685H150.538C148.414 262.685 146.692 261.234 146.692 259.444V220.556ZM209.263 262.685H227.462C229.586 262.685 231.308 261.234 231.308 259.444V243.889C228.818 246.017 222.976 250.997 209.263 262.685ZM205.004 233.339L210.271 228.848H194.652L199.919 233.339C200.573 233.931 201.481 234.243 202.462 234.243C203.442 234.243 204.35 233.931 205.004 233.339ZM203.406 260.5C203.515 260.406 228.833 238.827 228.833 238.827C229.088 238.609 229.269 238.172 229.233 237.704C229.233 237.237 229.051 236.8 228.688 236.457L220.152 229.191C219.897 228.973 219.571 228.848 219.207 228.848C218.808 228.848 218.517 228.942 218.299 229.129L209.182 236.925C207.365 238.453 205.004 239.295 202.462 239.295C199.919 239.295 197.558 238.453 195.741 236.956L186.624 229.16C186.442 228.973 186.115 228.879 185.825 228.879H185.716C185.353 228.91 185.026 229.004 184.771 229.222L176.308 236.426C175.835 236.831 175.654 237.268 175.654 237.736C175.654 238.172 175.835 238.609 176.199 238.952C176.199 238.952 201.372 260.406 201.517 260.5C201.771 260.718 202.098 260.843 202.462 260.843C202.825 260.843 203.152 260.749 203.406 260.5Z" fill="#E01111" fill-opacity="0.5"/>
<path fill-rule="evenodd" clip-rule="evenodd" d="M19.1035 419.427C19.1035 416.455 21.26 414.046 23.9202 414.046H35.9617C38.1025 414.046 39.9863 415.625 40.5857 417.921L43.7888 430.189H115.436C116.985 430.189 118.438 431.02 119.344 432.423C120.249 433.826 120.495 435.63 120.006 437.271L105.556 485.697C104.9 487.894 103.06 489.376 100.986 489.376H52.82C50.6793 489.376 48.7954 487.798 48.196 485.502L32.3493 424.808H23.9202C21.26 424.808 19.1035 422.399 19.1035 419.427ZM46.5985 440.95L56.4325 478.615H97.5147L108.754 440.95H46.5985Z" fill="#E01111" fill-opacity="0.5"/>
<path d="M67.2699 505.519C67.2699 511.462 62.9569 516.28 57.6366 516.28C52.3163 516.28 48.0033 511.462 48.0033 505.519C48.0033 499.575 52.3163 494.757 57.6366 494.757C62.9569 494.757 67.2699 499.575 67.2699 505.519Z" fill="#E01111" fill-opacity="0.5"/>
<path d="M96.1697 516.28C101.49 516.28 105.803 511.462 105.803 505.519C105.803 499.575 101.49 494.757 96.1697 494.757C90.8494 494.757 86.5364 499.575 86.5364 505.519C86.5364 511.462 90.8494 516.28 96.1697 516.28Z" fill="#E01111" fill-opacity="0.5"/>
<path fill-rule="evenodd" clip-rule="evenodd" d="M189.034 668.864H213.31C213.31 679.45 221.462 688.033 231.517 688.033C241.573 688.033 249.724 679.45 249.724 668.864H255.186C258.873 668.864 261.862 665.717 261.862 661.835V632.217C261.862 630.607 261.381 629.038 260.486 627.732L247.074 608.15C245.705 606.152 243.507 604.968 241.167 604.968H231.517V592.828C231.517 588.946 228.528 585.799 224.841 585.799H147.159C143.472 585.799 140.483 588.946 140.483 592.828V661.835C140.483 665.717 143.472 668.864 147.159 668.864H152.621C152.621 679.45 160.772 688.033 170.827 688.033C180.883 688.033 189.034 679.45 189.034 668.864ZM152.621 598.578V656.085H157.257C160.59 652.163 165.435 649.695 170.827 649.695C176.22 649.695 181.065 652.163 184.398 656.085H217.946C218.397 655.554 218.876 655.051 219.379 654.576V598.578H152.621ZM231.517 617.747V636.916H249.724V633.868L238.682 617.747H231.517ZM231.49 662.474C228.16 662.49 225.463 665.329 225.448 668.835L225.448 668.864C225.448 672.393 228.165 675.253 231.517 675.253C234.869 675.253 237.586 672.393 237.586 668.864C237.586 665.335 234.869 662.474 231.517 662.474L231.49 662.474ZM178.11 668.864C178.11 673.098 174.85 676.531 170.827 676.531C166.805 676.531 163.545 673.098 163.545 668.864C163.545 664.629 166.805 661.196 170.827 661.196C174.85 661.196 178.11 664.629 178.11 668.864Z" fill="#E01111" fill-opacity="0.5"/>
<path fill-rule="evenodd" clip-rule="evenodd" d="M29.6342 792.311C23.8183 792.311 19.1035 797.457 19.1035 803.805V828.002C19.1035 834.35 23.8183 839.496 29.6342 839.496H32.5713C27.3432 844.998 24.0912 852.721 24.0912 861.273V864.298C24.0912 870.98 29.0541 876.397 35.1761 876.397H35.3737C36.7183 886.657 44.8032 894.545 54.5758 894.545C64.3484 894.545 72.4332 886.657 73.778 876.397H91.071L109.671 840.305L112.16 854.567C105.937 858.093 101.686 865.19 101.686 873.372C101.686 885.065 110.371 894.545 121.084 894.545C131.798 894.545 140.483 885.065 140.483 873.372C140.483 862.403 132.84 853.382 123.05 852.306L118.809 828.002H121.084C124.145 828.002 126.627 825.293 126.627 821.952C126.627 818.611 124.145 815.903 121.084 815.903H116.697L115.616 809.705C115.018 806.281 112.275 803.804 109.082 803.804H98.9144C95.8534 803.804 93.3719 806.513 93.3719 809.854C93.3719 813.195 95.8534 815.903 98.9144 815.903H105.413L106.454 821.869L84.588 864.298H79.5158V840.1C79.5158 835.089 75.7936 831.026 71.2021 831.026H61.9664C62.2065 830.063 62.3347 829.049 62.3347 828.002V803.805C62.3347 797.457 57.62 792.311 51.804 792.311H29.6342ZM29.0799 803.805C29.0799 803.471 29.3281 803.2 29.6342 803.2H51.804C52.1101 803.2 52.3583 803.471 52.3583 803.805V828.002C52.3583 828.336 52.1101 828.607 51.804 828.607H29.6342C29.3281 828.607 29.0799 828.336 29.0799 828.002V803.805ZM54.5758 882.446C50.956 882.446 47.8765 879.921 46.7352 876.397H62.4164C61.2752 879.921 58.1957 882.446 54.5758 882.446ZM51.8035 843.125C42.6204 843.125 35.1761 851.25 35.1761 861.273V864.298H68.4309V843.125H51.8035ZM129.398 873.372C129.398 878.383 125.676 882.446 121.084 882.446C116.493 882.446 112.771 878.383 112.771 873.372C112.771 868.36 116.493 864.298 121.084 864.298C125.676 864.298 129.398 868.36 129.398 873.372Z" fill="#E01111" fill-opacity="0.5"/>
<path fill-rule="evenodd" clip-rule="evenodd" d="M49.3359 34.0779C46.2324 34.0779 43.7165 36.6208 43.7165 39.7575V62.4761C43.7165 65.6129 46.2324 68.1558 49.3359 68.1558H71.8135C74.9171 68.1558 77.433 65.6129 77.433 62.4761V39.7575C77.433 36.6208 74.9171 34.0779 71.8135 34.0779H49.3359ZM54.9553 56.7965V45.4372H66.1941V56.7965H54.9553Z" fill="#E01111" fill-opacity="0.5"/>
<path fill-rule="evenodd" clip-rule="evenodd" d="M43.7165 11.3593H27.9821C24.2579 11.3593 21.2388 14.4107 21.2388 18.1749V34.0779L15.6194 34.0779C12.5159 34.0779 10 36.6208 10 39.7575C10 42.8943 12.5159 45.4372 15.6194 45.4372L21.2388 45.4372V56.7965H15.6194C12.5159 56.7965 10 59.3393 10 62.4761C10 65.6129 12.5159 68.1558 15.6194 68.1558H21.2388V84.0588C21.2388 87.8229 24.2579 90.8744 27.9821 90.8744H43.7165L43.7165 96.554C43.7165 99.6908 46.2324 102.234 49.3359 102.234C52.4394 102.234 54.9553 99.6908 54.9553 96.554V90.8744H66.1941V96.554C66.1941 99.6908 68.71 102.234 71.8135 102.234C74.9171 102.234 77.433 99.6908 77.433 96.554L77.433 90.8744H93.1673C96.8915 90.8744 99.9106 87.8229 99.9106 84.0588V68.1558H105.53C108.634 68.1558 111.149 65.6129 111.149 62.4761C111.149 59.3393 108.634 56.7965 105.53 56.7965H99.9106V45.4372H105.53C108.634 45.4372 111.149 42.8943 111.149 39.7575C111.149 36.6208 108.634 34.0779 105.53 34.0779H99.9106V18.1749C99.9106 14.4107 96.8915 11.3593 93.1673 11.3593H77.433L77.433 5.67965C77.433 2.54287 74.9171 0 71.8135 0C68.71 0 66.1941 2.54286 66.1941 5.67965L66.1941 11.3593H54.9553L54.9553 5.67965C54.9553 2.54287 52.4394 0 49.3359 0C46.2324 0 43.7165 2.54286 43.7165 5.67965L43.7165 11.3593ZM32.4777 22.7186V79.5151H88.6718V22.7186H32.4777Z" fill="#E01111" fill-opacity="0.5"/>
<path fill-rule="evenodd" clip-rule="evenodd" d="M221 902.714C221 894.036 226.91 887 234.2 887H327.8C335.09 887 341 894.036 341 902.714V971.286C341 979.964 335.09 987 327.8 987H234.2C226.91 987 221 979.964 221 971.286V902.714ZM234.2 899.857H327.8C329.125 899.857 330.2 901.136 330.2 902.714V915.571H231.8V902.714C231.8 901.136 232.875 899.857 234.2 899.857ZM231.8 937V971.286C231.8 972.864 232.875 974.143 234.2 974.143H327.8C329.125 974.143 330.2 972.864 330.2 971.286V937H231.8Z" fill="#E01111" fill-opacity="0.5"/>
<path d="M293 958.429C293 954.484 295.686 951.286 299 951.286H311C314.314 951.286 317 954.484 317 958.429C317 962.373 314.314 965.571 311 965.571H299C295.686 965.571 293 962.373 293 958.429Z" fill="#E01111" fill-opacity="0.5"/>
<path fill-rule="evenodd" clip-rule="evenodd" d="M270.137 348.972V338.991C270.137 336.234 267.437 334 264.106 334H235.156C231.825 334 229.125 336.234 229.125 338.991V353.963H211.031C207.7 353.963 205 356.197 205 358.953V428.823C205 431.579 207.7 433.814 211.031 433.814H287.627C290.958 433.814 293.659 431.579 293.659 428.823V401.235L296.466 429.419C296.74 432.166 299.653 434.209 302.973 433.983L319.464 432.858C322.784 432.631 325.253 430.221 324.979 427.474L318.731 364.751C318.457 362.004 315.544 359.961 312.224 360.187L295.733 361.312C294.992 361.363 294.294 361.522 293.659 361.769V353.963C293.659 351.206 290.958 348.972 287.627 348.972H270.137ZM239.981 351.467H259.281V342.983H239.981V351.467ZM259.281 356.458H239.981V411.356H259.281V356.458ZM259.281 416.346H239.981V424.831H259.281V416.346ZM270.137 357.955V424.831H282.802V357.955H270.137ZM215.856 362.946H229.125V424.831H215.856V362.946ZM308.308 369.468L313.763 424.233L306.889 424.702L301.434 369.937L308.308 369.468Z" fill="#E01111" fill-opacity="0.5"/>
<path fill-rule="evenodd" clip-rule="evenodd" d="M252.771 103.627C254.854 105.797 254.854 109.314 252.771 111.484L223.815 141.647C221.524 144.033 217.809 144.033 215.518 141.647L202.562 128.151C200.479 125.981 200.479 122.463 202.562 120.294C204.645 118.124 208.022 118.124 210.105 120.294L219.667 130.254L245.229 103.627C247.312 101.458 250.688 101.458 252.771 103.627Z" fill="#E01111" fill-opacity="0.5"/>
<path fill-rule="evenodd" clip-rule="evenodd" d="M275.667 124.222H253.329C253.241 124.222 253.196 124.117 253.257 124.053L263.732 113.142C263.751 113.122 263.777 113.111 263.804 113.111H280.467C283.707 113.111 286.333 115.847 286.333 119.222V132.556H299.225C300.922 132.556 302.55 133.258 303.75 134.508L319.125 150.524C320.326 151.774 321 153.47 321 155.238V179.222C321 182.597 318.373 185.333 315.133 185.333H307.667C307.667 194.538 300.503 202 291.667 202C282.83 202 275.667 194.538 275.667 185.333H249C249 194.538 241.837 202 233 202C224.163 202 217 194.538 217 185.333H206.867C203.627 185.333 201 182.597 201 179.222V140.889C201 140.554 201.028 140.227 201.083 139.909C201.096 139.829 201.194 139.801 201.25 139.859L211.639 150.681C211.657 150.699 211.667 150.724 211.667 150.75V174.222H221.074C224.004 170.813 228.261 168.667 233 168.667C237.739 168.667 241.996 170.813 244.926 174.222H275.667V124.222ZM286.333 163.111V143.667H297.458L310.333 157.079V163.111H286.333ZM233 192C236.535 192 239.4 189.015 239.4 185.333C239.4 181.651 236.535 178.667 233 178.667C229.465 178.667 226.6 181.651 226.6 185.333C226.6 189.015 229.465 192 233 192ZM298.067 185.333C298.067 189.015 295.201 192 291.667 192C288.132 192 285.267 189.015 285.267 185.333C285.267 181.651 288.132 178.667 291.667 178.667C295.201 178.667 298.067 181.651 298.067 185.333Z" fill="#E01111" fill-opacity="0.5"/>
<path d="M458.17 223.796C457.108 223.796 456.247 224.522 456.247 225.417V228.657C456.247 229.552 457.108 230.278 458.17 230.278H465.862C466.924 230.278 467.785 229.552 467.785 228.657V225.417C467.785 224.522 466.924 223.796 465.862 223.796H458.17Z" fill="#E01111" fill-opacity="0.5"/>
<path fill-rule="evenodd" clip-rule="evenodd" d="M440.862 220.556C440.862 215.186 446.028 210.833 452.401 210.833H529.324C535.696 210.833 540.862 215.186 540.862 220.556V259.444C540.862 264.814 535.696 269.167 529.324 269.167H452.401C446.028 269.167 440.862 264.814 440.862 259.444V220.556ZM448.554 220.556C448.554 218.766 450.276 217.315 452.401 217.315H529.324C531.448 217.315 533.17 218.766 533.17 220.556V231.545L526.191 225.605C524.811 224.451 523.031 223.796 521.106 223.796H487.542C485.616 223.796 483.836 224.451 482.456 225.605L473.992 232.808C472.467 234.118 471.631 235.865 471.631 237.736C471.631 239.42 472.358 241.041 473.556 242.195L497.527 262.685H452.401C450.276 262.685 448.554 261.234 448.554 259.444V220.556ZM511.125 262.685H529.324C531.448 262.685 533.17 261.234 533.17 259.444V243.889C530.68 246.017 524.838 250.997 511.125 262.685ZM506.866 233.339L512.133 228.848H496.514L501.781 233.339C502.435 233.931 503.343 234.243 504.324 234.243C505.304 234.243 506.212 233.931 506.866 233.339ZM505.268 260.5C505.377 260.406 530.695 238.827 530.695 238.827C530.95 238.609 531.131 238.172 531.095 237.704C531.095 237.237 530.913 236.8 530.55 236.457L522.014 229.191C521.759 228.973 521.433 228.848 521.069 228.848C520.67 228.848 520.379 228.942 520.161 229.129L511.044 236.925C509.227 238.453 506.866 239.295 504.324 239.295C501.781 239.295 499.42 238.453 497.604 236.956L488.486 229.16C488.304 228.973 487.977 228.879 487.687 228.879H487.578C487.215 228.91 486.888 229.004 486.633 229.222L478.17 236.426C477.698 236.831 477.516 237.268 477.516 237.736C477.516 238.172 477.698 238.609 478.061 238.952C478.061 238.952 503.234 260.406 503.379 260.5C503.633 260.718 503.96 260.843 504.324 260.843C504.687 260.843 505.014 260.749 505.268 260.5Z" fill="#E01111" fill-opacity="0.5"/>
<path fill-rule="evenodd" clip-rule="evenodd" d="M320.966 419.427C320.966 416.455 323.122 414.046 325.782 414.046H337.824C339.965 414.046 341.848 415.625 342.448 417.921L345.651 430.189H417.298C418.847 430.189 420.3 431.02 421.206 432.423C422.111 433.826 422.357 435.63 421.868 437.271L407.418 485.697C406.762 487.894 404.922 489.376 402.848 489.376H354.682C352.541 489.376 350.657 487.798 350.058 485.502L334.211 424.808H325.782C323.122 424.808 320.966 422.399 320.966 419.427ZM348.461 440.95L358.295 478.615H399.377L410.616 440.95H348.461Z" fill="#E01111" fill-opacity="0.5"/>
<path d="M369.132 505.519C369.132 511.462 364.819 516.28 359.499 516.28C354.178 516.28 349.865 511.462 349.865 505.519C349.865 499.575 354.178 494.757 359.499 494.757C364.819 494.757 369.132 499.575 369.132 505.519Z" fill="#E01111" fill-opacity="0.5"/>
<path d="M398.032 516.28C403.352 516.28 407.665 511.462 407.665 505.519C407.665 499.575 403.352 494.757 398.032 494.757C392.711 494.757 388.399 499.575 388.399 505.519C388.399 511.462 392.711 516.28 398.032 516.28Z" fill="#E01111" fill-opacity="0.5"/>
<path fill-rule="evenodd" clip-rule="evenodd" d="M490.896 668.864H515.172C515.172 679.45 523.324 688.033 533.379 688.033C543.435 688.033 551.586 679.45 551.586 668.864H557.048C560.735 668.864 563.724 665.717 563.724 661.835V632.217C563.724 630.607 563.243 629.038 562.348 627.732L548.936 608.15C547.567 606.152 545.369 604.968 543.029 604.968H533.379V592.828C533.379 588.946 530.39 585.799 526.703 585.799H449.021C445.334 585.799 442.345 588.946 442.345 592.828V661.835C442.345 665.717 445.334 668.864 449.021 668.864H454.483C454.483 679.45 462.634 688.033 472.69 688.033C482.745 688.033 490.896 679.45 490.896 668.864ZM454.483 598.578V656.085H459.119C462.453 652.163 467.297 649.695 472.69 649.695C478.082 649.695 482.927 652.163 486.26 656.085H519.808C520.259 655.554 520.738 655.051 521.241 654.576V598.578H454.483ZM533.379 617.747V636.916H551.586V633.868L540.544 617.747H533.379ZM533.352 662.474C530.022 662.49 527.325 665.329 527.31 668.835L527.31 668.864C527.31 672.393 530.027 675.253 533.379 675.253C536.731 675.253 539.448 672.393 539.448 668.864C539.448 665.335 536.731 662.474 533.379 662.474L533.352 662.474ZM479.972 668.864C479.972 673.098 476.712 676.531 472.69 676.531C468.667 676.531 465.407 673.098 465.407 668.864C465.407 664.629 468.667 661.196 472.69 661.196C476.712 661.196 479.972 664.629 479.972 668.864Z" fill="#E01111" fill-opacity="0.5"/>
<path fill-rule="evenodd" clip-rule="evenodd" d="M331.496 792.311C325.68 792.311 320.966 797.457 320.966 803.805V828.002C320.966 834.35 325.68 839.496 331.496 839.496H334.433C329.205 844.998 325.953 852.721 325.953 861.273V864.298C325.953 870.98 330.916 876.397 337.038 876.397H337.236C338.58 886.657 346.665 894.545 356.438 894.545C366.21 894.545 374.295 886.657 375.64 876.397H392.933L411.533 840.305L414.023 854.567C407.799 858.093 403.548 865.19 403.548 873.372C403.548 885.065 412.233 894.545 422.946 894.545C433.66 894.545 442.345 885.065 442.345 873.372C442.345 862.403 434.702 853.382 424.912 852.306L420.671 828.002H422.946C426.007 828.002 428.489 825.293 428.489 821.952C428.489 818.611 426.007 815.903 422.946 815.903H418.559L417.478 809.705C416.88 806.281 414.137 803.804 410.944 803.804H400.776C397.715 803.804 395.234 806.513 395.234 809.854C395.234 813.195 397.715 815.903 400.776 815.903H407.275L408.316 821.869L386.45 864.298H381.378V840.1C381.378 835.089 377.656 831.026 373.064 831.026H363.828C364.069 830.063 364.197 829.049 364.197 828.002V803.805C364.197 797.457 359.482 792.311 353.666 792.311H331.496ZM330.942 803.805C330.942 803.471 331.19 803.2 331.496 803.2H353.666C353.972 803.2 354.22 803.471 354.22 803.805V828.002C354.22 828.336 353.972 828.607 353.666 828.607H331.496C331.19 828.607 330.942 828.336 330.942 828.002V803.805ZM356.438 882.446C352.818 882.446 349.739 879.921 348.597 876.397H364.279C363.137 879.921 360.058 882.446 356.438 882.446ZM353.666 843.125C344.482 843.125 337.038 851.25 337.038 861.273V864.298H370.293V843.125H353.666ZM431.26 873.372C431.26 878.383 427.538 882.446 422.946 882.446C418.355 882.446 414.633 878.383 414.633 873.372C414.633 868.36 418.355 864.298 422.946 864.298C427.538 864.298 431.26 868.36 431.26 873.372Z" fill="#E01111" fill-opacity="0.5"/>
<path fill-rule="evenodd" clip-rule="evenodd" d="M351.198 34.0779C348.094 34.0779 345.579 36.6208 345.579 39.7575V62.4761C345.579 65.6129 348.094 68.1558 351.198 68.1558H373.676C376.779 68.1558 379.295 65.6129 379.295 62.4761V39.7575C379.295 36.6208 376.779 34.0779 373.676 34.0779H351.198ZM356.817 56.7965V45.4372H368.056V56.7965H356.817Z" fill="#E01111" fill-opacity="0.5"/>
<path fill-rule="evenodd" clip-rule="evenodd" d="M345.579 11.3593H329.844C326.12 11.3593 323.101 14.4107 323.101 18.1749V34.0779L317.481 34.0779C314.378 34.0779 311.862 36.6208 311.862 39.7575C311.862 42.8943 314.378 45.4372 317.481 45.4372L323.101 45.4372V56.7965H317.481C314.378 56.7965 311.862 59.3393 311.862 62.4761C311.862 65.6129 314.378 68.1558 317.481 68.1558H323.101V84.0588C323.101 87.8229 326.12 90.8744 329.844 90.8744H345.579L345.579 96.554C345.579 99.6908 348.094 102.234 351.198 102.234C354.301 102.234 356.817 99.6908 356.817 96.554V90.8744H368.056V96.554C368.056 99.6908 370.572 102.234 373.676 102.234C376.779 102.234 379.295 99.6908 379.295 96.554L379.295 90.8744H395.029C398.754 90.8744 401.773 87.8229 401.773 84.0588V68.1558H407.392C410.496 68.1558 413.011 65.6129 413.011 62.4761C413.011 59.3393 410.496 56.7965 407.392 56.7965H401.773V45.4372H407.392C410.496 45.4372 413.011 42.8943 413.011 39.7575C413.011 36.6208 410.496 34.0779 407.392 34.0779H401.773V18.1749C401.773 14.4107 398.754 11.3593 395.029 11.3593H379.295L379.295 5.67965C379.295 2.54287 376.779 0 373.676 0C370.572 0 368.056 2.54286 368.056 5.67965L368.056 11.3593H356.817L356.817 5.67965C356.817 2.54287 354.301 0 351.198 0C348.094 0 345.579 2.54286 345.579 5.67965L345.579 11.3593ZM334.34 22.7186V79.5151H390.534V22.7186H334.34Z" fill="#E01111" fill-opacity="0.5"/>
<path d="M760.032 223.796C758.97 223.796 758.109 224.522 758.109 225.417V228.657C758.109 229.552 758.97 230.278 760.032 230.278H767.724C768.786 230.278 769.647 229.552 769.647 228.657V225.417C769.647 224.522 768.786 223.796 767.724 223.796H760.032Z" fill="#E01111" fill-opacity="0.5"/>
<path fill-rule="evenodd" clip-rule="evenodd" d="M742.724 220.556C742.724 215.186 747.89 210.833 754.263 210.833H831.186C837.558 210.833 842.724 215.186 842.724 220.556V259.444C842.724 264.814 837.558 269.167 831.186 269.167H754.263C747.89 269.167 742.724 264.814 742.724 259.444V220.556ZM750.416 220.556C750.416 218.766 752.138 217.315 754.263 217.315H831.186C833.31 217.315 835.032 218.766 835.032 220.556V231.545L828.053 225.605C826.673 224.451 824.893 223.796 822.968 223.796H789.404C787.478 223.796 785.698 224.451 784.318 225.605L775.854 232.808C774.329 234.118 773.493 235.865 773.493 237.736C773.493 239.42 774.22 241.041 775.419 242.195L799.389 262.685H754.263C752.138 262.685 750.416 261.234 750.416 259.444V220.556ZM812.988 262.685H831.186C833.31 262.685 835.032 261.234 835.032 259.444V243.889C832.542 246.017 826.7 250.997 812.988 262.685ZM808.728 233.339L813.995 228.848H798.376L803.643 233.339C804.297 233.931 805.205 234.243 806.186 234.243C807.166 234.243 808.075 233.931 808.728 233.339ZM807.13 260.5C807.239 260.406 832.557 238.827 832.557 238.827C832.812 238.609 832.993 238.172 832.957 237.704C832.957 237.237 832.775 236.8 832.412 236.457L823.876 229.191C823.622 228.973 823.295 228.848 822.931 228.848C822.532 228.848 822.241 228.942 822.023 229.129L812.906 236.925C811.089 238.453 808.728 239.295 806.186 239.295C803.643 239.295 801.282 238.453 799.466 236.956L790.348 229.16C790.166 228.973 789.84 228.879 789.549 228.879H789.44C789.077 228.91 788.75 229.004 788.495 229.222L780.032 236.426C779.56 236.831 779.378 237.268 779.378 237.736C779.378 238.172 779.56 238.609 779.923 238.952C779.923 238.952 805.096 260.406 805.241 260.5C805.495 260.718 805.822 260.843 806.186 260.843C806.549 260.843 806.876 260.749 807.13 260.5Z" fill="#E01111" fill-opacity="0.5"/>
<path fill-rule="evenodd" clip-rule="evenodd" d="M622.828 419.427C622.828 416.455 624.984 414.046 627.644 414.046H639.686C641.827 414.046 643.71 415.625 644.31 417.921L647.513 430.189H719.16C720.709 430.189 722.163 431.02 723.068 432.423C723.973 433.826 724.219 435.63 723.73 437.271L709.28 485.697C708.624 487.894 706.784 489.376 704.71 489.376H656.544C654.403 489.376 652.52 487.798 651.92 485.502L636.073 424.808H627.644C624.984 424.808 622.828 422.399 622.828 419.427ZM650.323 440.95L660.157 478.615H701.239L712.478 440.95H650.323Z" fill="#E01111" fill-opacity="0.5"/>
<path d="M670.994 505.519C670.994 511.462 666.681 516.28 661.361 516.28C656.04 516.28 651.727 511.462 651.727 505.519C651.727 499.575 656.04 494.757 661.361 494.757C666.681 494.757 670.994 499.575 670.994 505.519Z" fill="#E01111" fill-opacity="0.5"/>
<path d="M699.894 516.28C705.214 516.28 709.527 511.462 709.527 505.519C709.527 499.575 705.214 494.757 699.894 494.757C694.574 494.757 690.261 499.575 690.261 505.519C690.261 511.462 694.574 516.28 699.894 516.28Z" fill="#E01111" fill-opacity="0.5"/>
<path fill-rule="evenodd" clip-rule="evenodd" d="M792.759 668.864H817.034C817.034 679.45 825.186 688.033 835.241 688.033C845.297 688.033 853.448 679.45 853.448 668.864H858.91C862.597 668.864 865.586 665.717 865.586 661.835V632.217C865.586 630.607 865.105 629.038 864.21 627.732L850.798 608.15C849.429 606.152 847.231 604.968 844.891 604.968H835.241V592.828C835.241 588.946 832.252 585.799 828.565 585.799H750.883C747.196 585.799 744.207 588.946 744.207 592.828V661.835C744.207 665.717 747.196 668.864 750.883 668.864H756.345C756.345 679.45 764.496 688.033 774.552 688.033C784.607 688.033 792.759 679.45 792.759 668.864ZM756.345 598.578V656.085H760.981C764.315 652.163 769.159 649.695 774.552 649.695C779.944 649.695 784.789 652.163 788.122 656.085H821.67C822.121 655.554 822.6 655.051 823.103 654.576V598.578H756.345ZM835.241 617.747V636.916H853.448V633.868L842.406 617.747H835.241ZM835.214 662.474C831.884 662.49 829.187 665.329 829.172 668.835L829.172 668.864C829.172 672.393 831.889 675.253 835.241 675.253C838.593 675.253 841.31 672.393 841.31 668.864C841.31 665.335 838.593 662.474 835.241 662.474L835.214 662.474ZM781.834 668.864C781.834 673.098 778.574 676.531 774.552 676.531C770.529 676.531 767.269 673.098 767.269 668.864C767.269 664.629 770.529 661.196 774.552 661.196C778.574 661.196 781.834 664.629 781.834 668.864Z" fill="#E01111" fill-opacity="0.5"/>
<path fill-rule="evenodd" clip-rule="evenodd" d="M633.358 792.311C627.542 792.311 622.828 797.457 622.828 803.805V828.002C622.828 834.35 627.542 839.496 633.358 839.496H636.295C631.067 844.998 627.815 852.721 627.815 861.273V864.298C627.815 870.98 632.778 876.397 638.9 876.397H639.098C640.442 886.657 648.527 894.545 658.3 894.545C668.073 894.545 676.157 886.657 677.502 876.397H694.795L713.396 840.305L715.885 854.567C709.661 858.093 705.41 865.19 705.41 873.372C705.41 885.065 714.095 894.545 724.808 894.545C735.522 894.545 744.207 885.065 744.207 873.372C744.207 862.403 736.564 853.382 726.774 852.306L722.533 828.002H724.808C727.869 828.002 730.351 825.293 730.351 821.952C730.351 818.611 727.869 815.903 724.808 815.903H720.421L719.34 809.705C718.742 806.281 715.999 803.804 712.806 803.804H702.639C699.577 803.804 697.096 806.513 697.096 809.854C697.096 813.195 699.577 815.903 702.639 815.903H709.137L710.178 821.869L688.312 864.298H683.24V840.1C683.24 835.089 679.518 831.026 674.926 831.026H665.691C665.931 830.063 666.059 829.049 666.059 828.002V803.805C666.059 797.457 661.344 792.311 655.528 792.311H633.358ZM632.804 803.805C632.804 803.471 633.052 803.2 633.358 803.2H655.528C655.834 803.2 656.082 803.471 656.082 803.805V828.002C656.082 828.336 655.834 828.607 655.528 828.607H633.358C633.052 828.607 632.804 828.336 632.804 828.002V803.805ZM658.3 882.446C654.68 882.446 651.601 879.921 650.459 876.397H666.141C664.999 879.921 661.92 882.446 658.3 882.446ZM655.528 843.125C646.345 843.125 638.9 851.25 638.9 861.273V864.298H672.155V843.125H655.528ZM733.122 873.372C733.122 878.383 729.4 882.446 724.808 882.446C720.217 882.446 716.495 878.383 716.495 873.372C716.495 868.36 720.217 864.298 724.808 864.298C729.4 864.298 733.122 868.36 733.122 873.372Z" fill="#E01111" fill-opacity="0.5"/>
<path fill-rule="evenodd" clip-rule="evenodd" d="M653.06 34.0779C649.956 34.0779 647.441 36.6208 647.441 39.7575V62.4761C647.441 65.6129 649.956 68.1558 653.06 68.1558H675.538C678.641 68.1558 681.157 65.6129 681.157 62.4761V39.7575C681.157 36.6208 678.641 34.0779 675.538 34.0779H653.06ZM658.679 56.7965V45.4372H669.918V56.7965H658.679Z" fill="#E01111" fill-opacity="0.5"/>
<path fill-rule="evenodd" clip-rule="evenodd" d="M647.441 11.3593H631.706C627.982 11.3593 624.963 14.4107 624.963 18.1749V34.0779L619.344 34.0779C616.24 34.0779 613.724 36.6208 613.724 39.7575C613.724 42.8943 616.24 45.4372 619.344 45.4372L624.963 45.4372V56.7965H619.344C616.24 56.7965 613.724 59.3393 613.724 62.4761C613.724 65.6129 616.24 68.1558 619.344 68.1558H624.963V84.0588C624.963 87.8229 627.982 90.8744 631.706 90.8744H647.441L647.441 96.554C647.441 99.6908 649.956 102.234 653.06 102.234C656.164 102.234 658.679 99.6908 658.679 96.554V90.8744H669.918V96.554C669.918 99.6908 672.434 102.234 675.538 102.234C678.641 102.234 681.157 99.6908 681.157 96.554L681.157 90.8744H696.891C700.616 90.8744 703.635 87.8229 703.635 84.0588V68.1558H709.254C712.358 68.1558 714.874 65.6129 714.874 62.4761C714.874 59.3393 712.358 56.7965 709.254 56.7965H703.635V45.4372H709.254C712.358 45.4372 714.874 42.8943 714.874 39.7575C714.874 36.6208 712.358 34.0779 709.254 34.0779H703.635V18.1749C703.635 14.4107 700.616 11.3593 696.891 11.3593H681.157L681.157 5.67965C681.157 2.54287 678.641 0 675.538 0C672.434 0 669.918 2.54286 669.918 5.67965L669.918 11.3593H658.679L658.679 5.67965C658.679 2.54287 656.164 0 653.06 0C649.956 0 647.441 2.54286 647.441 5.67965L647.441 11.3593ZM636.202 22.7186V79.5151H692.396V22.7186H636.202Z" fill="#E01111" fill-opacity="0.5"/>
<path d="M1061.89 223.796C1060.83 223.796 1059.97 224.522 1059.97 225.417V228.657C1059.97 229.552 1060.83 230.278 1061.89 230.278H1069.59C1070.65 230.278 1071.51 229.552 1071.51 228.657V225.417C1071.51 224.522 1070.65 223.796 1069.59 223.796H1061.89Z" fill="#E01111" fill-opacity="0.5"/>
<path fill-rule="evenodd" clip-rule="evenodd" d="M1044.59 220.556C1044.59 215.186 1049.75 210.833 1056.12 210.833H1133.05C1139.42 210.833 1144.59 215.186 1144.59 220.556V259.444C1144.59 264.814 1139.42 269.167 1133.05 269.167H1056.12C1049.75 269.167 1044.59 264.814 1044.59 259.444V220.556ZM1052.28 220.556C1052.28 218.766 1054 217.315 1056.12 217.315H1133.05C1135.17 217.315 1136.89 218.766 1136.89 220.556V231.545L1129.92 225.605C1128.53 224.451 1126.75 223.796 1124.83 223.796H1091.27C1089.34 223.796 1087.56 224.451 1086.18 225.605L1077.72 232.808C1076.19 234.118 1075.36 235.865 1075.36 237.736C1075.36 239.42 1076.08 241.041 1077.28 242.195L1101.25 262.685H1056.12C1054 262.685 1052.28 261.234 1052.28 259.444V220.556ZM1114.85 262.685H1133.05C1135.17 262.685 1136.89 261.234 1136.89 259.444V243.889C1134.4 246.017 1128.56 250.997 1114.85 262.685ZM1110.59 233.339L1115.86 228.848H1100.24L1105.5 233.339C1106.16 233.931 1107.07 234.243 1108.05 234.243C1109.03 234.243 1109.94 233.931 1110.59 233.339ZM1108.99 260.5C1109.1 260.406 1134.42 238.827 1134.42 238.827C1134.67 238.609 1134.86 238.172 1134.82 237.704C1134.82 237.237 1134.64 236.8 1134.27 236.457L1125.74 229.191C1125.48 228.973 1125.16 228.848 1124.79 228.848C1124.39 228.848 1124.1 228.942 1123.89 229.129L1114.77 236.925C1112.95 238.453 1110.59 239.295 1108.05 239.295C1105.5 239.295 1103.14 238.453 1101.33 236.956L1092.21 229.16C1092.03 228.973 1091.7 228.879 1091.41 228.879H1091.3C1090.94 228.91 1090.61 229.004 1090.36 229.222L1081.89 236.426C1081.42 236.831 1081.24 237.268 1081.24 237.736C1081.24 238.172 1081.42 238.609 1081.78 238.952C1081.78 238.952 1106.96 260.406 1107.1 260.5C1107.36 260.718 1107.68 260.843 1108.05 260.843C1108.41 260.843 1108.74 260.749 1108.99 260.5Z" fill="#E01111" fill-opacity="0.5"/>
<path fill-rule="evenodd" clip-rule="evenodd" d="M924.69 419.427C924.69 416.455 926.846 414.046 929.506 414.046H941.548C943.689 414.046 945.572 415.625 946.172 417.921L949.375 430.189H1021.02C1022.57 430.189 1024.02 431.02 1024.93 432.423C1025.84 433.826 1026.08 435.63 1025.59 437.271L1011.14 485.697C1010.49 487.894 1008.65 489.376 1006.57 489.376H958.406C956.265 489.376 954.382 487.798 953.782 485.502L937.935 424.808H929.506C926.846 424.808 924.69 422.399 924.69 419.427ZM952.185 440.95L962.019 478.615H1003.1L1014.34 440.95H952.185Z" fill="#E01111" fill-opacity="0.5"/>
<path d="M972.856 505.519C972.856 511.462 968.543 516.28 963.223 516.28C957.902 516.28 953.59 511.462 953.59 505.519C953.59 499.575 957.902 494.757 963.223 494.757C968.543 494.757 972.856 499.575 972.856 505.519Z" fill="#E01111" fill-opacity="0.5"/>
<path d="M1001.76 516.28C1007.08 516.28 1011.39 511.462 1011.39 505.519C1011.39 499.575 1007.08 494.757 1001.76 494.757C996.436 494.757 992.123 499.575 992.123 505.519C992.123 511.462 996.436 516.28 1001.76 516.28Z" fill="#E01111" fill-opacity="0.5"/>
<path fill-rule="evenodd" clip-rule="evenodd" d="M1094.62 668.864H1118.9C1118.9 679.45 1127.05 688.033 1137.1 688.033C1147.16 688.033 1155.31 679.45 1155.31 668.864H1160.77C1164.46 668.864 1167.45 665.717 1167.45 661.835V632.217C1167.45 630.607 1166.97 629.038 1166.07 627.732L1152.66 608.15C1151.29 606.152 1149.09 604.968 1146.75 604.968H1137.1V592.828C1137.1 588.946 1134.11 585.799 1130.43 585.799H1052.74C1049.06 585.799 1046.07 588.946 1046.07 592.828V661.835C1046.07 665.717 1049.06 668.864 1052.74 668.864H1058.21C1058.21 679.45 1066.36 688.033 1076.41 688.033C1086.47 688.033 1094.62 679.45 1094.62 668.864ZM1058.21 598.578V656.085H1062.84C1066.18 652.163 1071.02 649.695 1076.41 649.695C1081.81 649.695 1086.65 652.163 1089.98 656.085H1123.53C1123.98 655.554 1124.46 655.051 1124.97 654.576V598.578H1058.21ZM1137.1 617.747V636.916H1155.31V633.868L1144.27 617.747H1137.1ZM1137.08 662.474C1133.75 662.49 1131.05 665.329 1131.03 668.835L1131.03 668.864C1131.03 672.393 1133.75 675.253 1137.1 675.253C1140.46 675.253 1143.17 672.393 1143.17 668.864C1143.17 665.335 1140.46 662.474 1137.1 662.474L1137.08 662.474ZM1083.7 668.864C1083.7 673.098 1080.44 676.531 1076.41 676.531C1072.39 676.531 1069.13 673.098 1069.13 668.864C1069.13 664.629 1072.39 661.196 1076.41 661.196C1080.44 661.196 1083.7 664.629 1083.7 668.864Z" fill="#E01111" fill-opacity="0.5"/>
<path fill-rule="evenodd" clip-rule="evenodd" d="M935.22 792.311C929.404 792.311 924.69 797.457 924.69 803.805V828.002C924.69 834.35 929.404 839.496 935.22 839.496H938.157C932.929 844.998 929.677 852.721 929.677 861.273V864.298C929.677 870.98 934.64 876.397 940.762 876.397H940.96C942.305 886.657 950.389 894.545 960.162 894.545C969.935 894.545 978.019 886.657 979.364 876.397H996.657L1015.26 840.305L1017.75 854.567C1011.52 858.093 1007.27 865.19 1007.27 873.372C1007.27 885.065 1015.96 894.545 1026.67 894.545C1037.38 894.545 1046.07 885.065 1046.07 873.372C1046.07 862.403 1038.43 853.382 1028.64 852.306L1024.39 828.002H1026.67C1029.73 828.002 1032.21 825.293 1032.21 821.952C1032.21 818.611 1029.73 815.903 1026.67 815.903H1022.28L1021.2 809.705C1020.6 806.281 1017.86 803.804 1014.67 803.804H1004.5C1001.44 803.804 998.958 806.513 998.958 809.854C998.958 813.195 1001.44 815.903 1004.5 815.903H1011L1012.04 821.869L990.174 864.298H985.102V840.1C985.102 835.089 981.38 831.026 976.788 831.026H967.553C967.793 830.063 967.921 829.049 967.921 828.002V803.805C967.921 797.457 963.206 792.311 957.39 792.311H935.22ZM934.666 803.805C934.666 803.471 934.914 803.2 935.22 803.2H957.39C957.696 803.2 957.944 803.471 957.944 803.805V828.002C957.944 828.336 957.696 828.607 957.39 828.607H935.22C934.914 828.607 934.666 828.336 934.666 828.002V803.805ZM960.162 882.446C956.542 882.446 953.463 879.921 952.321 876.397H968.003C966.861 879.921 963.782 882.446 960.162 882.446ZM957.39 843.125C948.207 843.125 940.762 851.25 940.762 861.273V864.298H974.017V843.125H957.39ZM1034.98 873.372C1034.98 878.383 1031.26 882.446 1026.67 882.446C1022.08 882.446 1018.36 878.383 1018.36 873.372C1018.36 868.36 1022.08 864.298 1026.67 864.298C1031.26 864.298 1034.98 868.36 1034.98 873.372Z" fill="#E01111" fill-opacity="0.5"/>
<path fill-rule="evenodd" clip-rule="evenodd" d="M954.922 34.0779C951.819 34.0779 949.303 36.6208 949.303 39.7575V62.4761C949.303 65.6129 951.819 68.1558 954.922 68.1558H977.4C980.503 68.1558 983.019 65.6129 983.019 62.4761V39.7575C983.019 36.6208 980.503 34.0779 977.4 34.0779H954.922ZM960.541 56.7965V45.4372H971.78V56.7965H960.541Z" fill="#E01111" fill-opacity="0.5"/>
<path fill-rule="evenodd" clip-rule="evenodd" d="M949.303 11.3593H933.568C929.844 11.3593 926.825 14.4107 926.825 18.1749V34.0779L921.206 34.0779C918.102 34.0779 915.586 36.6208 915.586 39.7575C915.586 42.8943 918.102 45.4372 921.206 45.4372L926.825 45.4372V56.7965H921.206C918.102 56.7965 915.586 59.3393 915.586 62.4761C915.586 65.6129 918.102 68.1558 921.206 68.1558H926.825V84.0588C926.825 87.8229 929.844 90.8744 933.568 90.8744H949.303L949.303 96.554C949.303 99.6908 951.819 102.234 954.922 102.234C958.026 102.234 960.541 99.6908 960.541 96.554V90.8744H971.78V96.554C971.78 99.6908 974.296 102.234 977.4 102.234C980.503 102.234 983.019 99.6908 983.019 96.554L983.019 90.8744H998.753C1002.48 90.8744 1005.5 87.8229 1005.5 84.0588V68.1558H1011.12C1014.22 68.1558 1016.74 65.6129 1016.74 62.4761C1016.74 59.3393 1014.22 56.7965 1011.12 56.7965H1005.5V45.4372H1011.12C1014.22 45.4372 1016.74 42.8943 1016.74 39.7575C1016.74 36.6208 1014.22 34.0779 1011.12 34.0779H1005.5V18.1749C1005.5 14.4107 1002.48 11.3593 998.753 11.3593H983.019L983.019 5.67965C983.019 2.54287 980.503 0 977.4 0C974.296 0 971.78 2.54286 971.78 5.67965L971.78 11.3593H960.541L960.541 5.67965C960.541 2.54287 958.026 0 954.922 0C951.819 0 949.303 2.54286 949.303 5.67965L949.303 11.3593ZM938.064 22.7186V79.5151H994.258V22.7186H938.064Z" fill="#E01111" fill-opacity="0.5"/>
<path fill-rule="evenodd" clip-rule="evenodd" d="M965.586 900.714C965.586 892.036 971.496 885 978.786 885H1072.39C1079.68 885 1085.59 892.036 1085.59 900.714V969.286C1085.59 977.964 1079.68 985 1072.39 985H978.786C971.496 985 965.586 977.964 965.586 969.286V900.714ZM978.786 897.857H1072.39C1073.71 897.857 1074.79 899.136 1074.79 900.714V913.571H976.386V900.714C976.386 899.136 977.461 897.857 978.786 897.857ZM976.386 935V969.286C976.386 970.864 977.461 972.143 978.786 972.143H1072.39C1073.71 972.143 1074.79 970.864 1074.79 969.286V935H976.386Z" fill="#E01111" fill-opacity="0.5"/>
<path d="M1037.59 956.429C1037.59 952.484 1040.27 949.286 1043.59 949.286H1055.59C1058.9 949.286 1061.59 952.484 1061.59 956.429C1061.59 960.373 1058.9 963.571 1055.59 963.571H1043.59C1040.27 963.571 1037.59 960.373 1037.59 956.429Z" fill="#E01111" fill-opacity="0.5"/>
<path fill-rule="evenodd" clip-rule="evenodd" d="M1014.72 346.972V336.991C1014.72 334.234 1012.02 332 1008.69 332H979.742C976.411 332 973.711 334.234 973.711 336.991V351.963H955.617C952.286 351.963 949.586 354.197 949.586 356.953V426.823C949.586 429.579 952.286 431.814 955.617 431.814H1032.21C1035.54 431.814 1038.24 429.579 1038.24 426.823V399.235L1041.05 427.419C1041.33 430.166 1044.24 432.209 1047.56 431.983L1064.05 430.858C1067.37 430.631 1069.84 428.221 1069.57 425.474L1063.32 362.751C1063.04 360.004 1060.13 357.961 1056.81 358.187L1040.32 359.312C1039.58 359.363 1038.88 359.522 1038.24 359.769V351.963C1038.24 349.206 1035.54 346.972 1032.21 346.972H1014.72ZM984.567 349.467H1003.87V340.983H984.567V349.467ZM1003.87 354.458H984.567V409.356H1003.87V354.458ZM1003.87 414.346H984.567V422.831H1003.87V414.346ZM1014.72 355.955V422.831H1027.39V355.955H1014.72ZM960.442 360.946H973.711V422.831H960.442V360.946ZM1052.89 367.468L1058.35 422.233L1051.48 422.702L1046.02 367.937L1052.89 367.468Z" fill="#E01111" fill-opacity="0.5"/>
<path fill-rule="evenodd" clip-rule="evenodd" d="M997.357 101.627C999.44 103.797 999.44 107.314 997.357 109.484L968.401 139.647C966.11 142.033 962.396 142.033 960.104 139.647L947.148 126.151C945.065 123.981 945.065 120.463 947.148 118.294C949.231 116.124 952.608 116.124 954.691 118.294L964.253 128.254L989.815 101.627C991.898 99.4576 995.275 99.4576 997.357 101.627Z" fill="#E01111" fill-opacity="0.5"/>
<path fill-rule="evenodd" clip-rule="evenodd" d="M1020.25 122.222H997.916C997.827 122.222 997.782 122.117 997.843 122.053L1008.32 111.142C1008.34 111.122 1008.36 111.111 1008.39 111.111H1025.05C1028.29 111.111 1030.92 113.847 1030.92 117.222V130.556H1043.81C1045.51 130.556 1047.14 131.258 1048.34 132.508L1063.71 148.524C1064.91 149.774 1065.59 151.47 1065.59 153.238V177.222C1065.59 180.597 1062.96 183.333 1059.72 183.333H1052.25C1052.25 192.538 1045.09 200 1036.25 200C1027.42 200 1020.25 192.538 1020.25 183.333H993.586C993.586 192.538 986.423 200 977.586 200C968.75 200 961.586 192.538 961.586 183.333H951.453C948.213 183.333 945.586 180.597 945.586 177.222V138.889C945.586 138.554 945.615 138.227 945.669 137.909C945.683 137.829 945.78 137.801 945.836 137.859L956.225 148.681C956.243 148.699 956.253 148.724 956.253 148.75V172.222H965.66C968.59 168.813 972.848 166.667 977.586 166.667C982.325 166.667 986.582 168.813 989.512 172.222H1020.25V122.222ZM1030.92 161.111V141.667H1042.04L1054.92 155.079V161.111H1030.92ZM977.586 190C981.121 190 983.986 187.015 983.986 183.333C983.986 179.651 981.121 176.667 977.586 176.667C974.052 176.667 971.186 179.651 971.186 183.333C971.186 187.015 974.052 190 977.586 190ZM1042.65 183.333C1042.65 187.015 1039.79 190 1036.25 190C1032.72 190 1029.85 187.015 1029.85 183.333C1029.85 179.651 1032.72 176.667 1036.25 176.667C1039.79 176.667 1042.65 179.651 1042.65 183.333Z" fill="#E01111" fill-opacity="0.5"/>
<path d="M1363.76 223.796C1362.69 223.796 1361.83 224.522 1361.83 225.417V228.657C1361.83 229.552 1362.69 230.278 1363.76 230.278H1371.45C1372.51 230.278 1373.37 229.552 1373.37 228.657V225.417C1373.37 224.522 1372.51 223.796 1371.45 223.796H1363.76Z" fill="#E01111" fill-opacity="0.5"/>
<path fill-rule="evenodd" clip-rule="evenodd" d="M1346.45 220.556C1346.45 215.186 1351.61 210.833 1357.99 210.833H1434.91C1441.28 210.833 1446.45 215.186 1446.45 220.556V259.444C1446.45 264.814 1441.28 269.167 1434.91 269.167H1357.99C1351.61 269.167 1346.45 264.814 1346.45 259.444V220.556ZM1354.14 220.556C1354.14 218.766 1355.86 217.315 1357.99 217.315H1434.91C1437.03 217.315 1438.76 218.766 1438.76 220.556V231.545L1431.78 225.605C1430.4 224.451 1428.62 223.796 1426.69 223.796H1393.13C1391.2 223.796 1389.42 224.451 1388.04 225.605L1379.58 232.808C1378.05 234.118 1377.22 235.865 1377.22 237.736C1377.22 239.42 1377.94 241.041 1379.14 242.195L1403.11 262.685H1357.99C1355.86 262.685 1354.14 261.234 1354.14 259.444V220.556ZM1416.71 262.685H1434.91C1437.03 262.685 1438.76 261.234 1438.76 259.444V243.889C1436.27 246.017 1430.42 250.997 1416.71 262.685ZM1412.45 233.339L1417.72 228.848H1402.1L1407.37 233.339C1408.02 233.931 1408.93 234.243 1409.91 234.243C1410.89 234.243 1411.8 233.931 1412.45 233.339ZM1410.85 260.5C1410.96 260.406 1436.28 238.827 1436.28 238.827C1436.54 238.609 1436.72 238.172 1436.68 237.704C1436.68 237.237 1436.5 236.8 1436.14 236.457L1427.6 229.191C1427.35 228.973 1427.02 228.848 1426.66 228.848C1426.26 228.848 1425.97 228.942 1425.75 229.129L1416.63 236.925C1414.81 238.453 1412.45 239.295 1409.91 239.295C1407.37 239.295 1405.01 238.453 1403.19 236.956L1394.07 229.16C1393.89 228.973 1393.56 228.879 1393.27 228.879H1393.16C1392.8 228.91 1392.47 229.004 1392.22 229.222L1383.76 236.426C1383.28 236.831 1383.1 237.268 1383.1 237.736C1383.1 238.172 1383.28 238.609 1383.65 238.952C1383.65 238.952 1408.82 260.406 1408.97 260.5C1409.22 260.718 1409.55 260.843 1409.91 260.843C1410.27 260.843 1410.6 260.749 1410.85 260.5Z" fill="#E01111" fill-opacity="0.5"/>
<path fill-rule="evenodd" clip-rule="evenodd" d="M1226.55 419.427C1226.55 416.455 1228.71 414.046 1231.37 414.046H1243.41C1245.55 414.046 1247.43 415.625 1248.03 417.921L1251.24 430.189H1322.88C1324.43 430.189 1325.89 431.02 1326.79 432.423C1327.7 433.826 1327.94 435.63 1327.45 437.271L1313 485.697C1312.35 487.894 1310.51 489.376 1308.43 489.376H1260.27C1258.13 489.376 1256.24 487.798 1255.64 485.502L1239.8 424.808H1231.37C1228.71 424.808 1226.55 422.399 1226.55 419.427ZM1254.05 440.95L1263.88 478.615H1304.96L1316.2 440.95H1254.05Z" fill="#E01111" fill-opacity="0.5"/>
<path d="M1274.72 505.519C1274.72 511.462 1270.41 516.28 1265.08 516.28C1259.76 516.28 1255.45 511.462 1255.45 505.519C1255.45 499.575 1259.76 494.757 1265.08 494.757C1270.41 494.757 1274.72 499.575 1274.72 505.519Z" fill="#E01111" fill-opacity="0.5"/>
<path d="M1303.62 516.28C1308.94 516.28 1313.25 511.462 1313.25 505.519C1313.25 499.575 1308.94 494.757 1303.62 494.757C1298.3 494.757 1293.98 499.575 1293.98 505.519C1293.98 511.462 1298.3 516.28 1303.62 516.28Z" fill="#E01111" fill-opacity="0.5"/>
<path fill-rule="evenodd" clip-rule="evenodd" d="M1396.48 668.864H1420.76C1420.76 679.45 1428.91 688.033 1438.97 688.033C1449.02 688.033 1457.17 679.45 1457.17 668.864H1462.63C1466.32 668.864 1469.31 665.717 1469.31 661.835V632.217C1469.31 630.607 1468.83 629.038 1467.93 627.732L1454.52 608.15C1453.15 606.152 1450.96 604.968 1448.61 604.968H1438.97V592.828C1438.97 588.946 1435.98 585.799 1432.29 585.799H1354.61C1350.92 585.799 1347.93 588.946 1347.93 592.828V661.835C1347.93 665.717 1350.92 668.864 1354.61 668.864H1360.07C1360.07 679.45 1368.22 688.033 1378.28 688.033C1388.33 688.033 1396.48 679.45 1396.48 668.864ZM1360.07 598.578V656.085H1364.7C1368.04 652.163 1372.88 649.695 1378.28 649.695C1383.67 649.695 1388.51 652.163 1391.85 656.085H1425.39C1425.85 655.554 1426.32 655.051 1426.83 654.576V598.578H1360.07ZM1438.97 617.747V636.916H1457.17V633.868L1446.13 617.747H1438.97ZM1438.94 662.474C1435.61 662.49 1432.91 665.329 1432.9 668.835L1432.9 668.864C1432.9 672.393 1435.61 675.253 1438.97 675.253C1442.32 675.253 1445.03 672.393 1445.03 668.864C1445.03 665.335 1442.32 662.474 1438.97 662.474L1438.94 662.474ZM1385.56 668.864C1385.56 673.098 1382.3 676.531 1378.28 676.531C1374.25 676.531 1370.99 673.098 1370.99 668.864C1370.99 664.629 1374.25 661.196 1378.28 661.196C1382.3 661.196 1385.56 664.629 1385.56 668.864Z" fill="#E01111" fill-opacity="0.5"/>
<path fill-rule="evenodd" clip-rule="evenodd" d="M1237.08 792.311C1231.27 792.311 1226.55 797.457 1226.55 803.805V828.002C1226.55 834.35 1231.27 839.496 1237.08 839.496H1240.02C1234.79 844.998 1231.54 852.721 1231.54 861.273V864.298C1231.54 870.98 1236.5 876.397 1242.62 876.397H1242.82C1244.17 886.657 1252.25 894.545 1262.02 894.545C1271.8 894.545 1279.88 886.657 1281.23 876.397H1298.52L1317.12 840.305L1319.61 854.567C1313.39 858.093 1309.13 865.19 1309.13 873.372C1309.13 885.065 1317.82 894.545 1328.53 894.545C1339.25 894.545 1347.93 885.065 1347.93 873.372C1347.93 862.403 1340.29 853.382 1330.5 852.306L1326.26 828.002H1328.53C1331.59 828.002 1334.07 825.293 1334.07 821.952C1334.07 818.611 1331.59 815.903 1328.53 815.903H1324.15L1323.06 809.705C1322.47 806.281 1319.72 803.804 1316.53 803.804H1306.36C1303.3 803.804 1300.82 806.513 1300.82 809.854C1300.82 813.195 1303.3 815.903 1306.36 815.903H1312.86L1313.9 821.869L1292.04 864.298H1286.96V840.1C1286.96 835.089 1283.24 831.026 1278.65 831.026H1269.41C1269.65 830.063 1269.78 829.049 1269.78 828.002V803.805C1269.78 797.457 1265.07 792.311 1259.25 792.311H1237.08ZM1236.53 803.805C1236.53 803.471 1236.78 803.2 1237.08 803.2H1259.25C1259.56 803.2 1259.81 803.471 1259.81 803.805V828.002C1259.81 828.336 1259.56 828.607 1259.25 828.607H1237.08C1236.78 828.607 1236.53 828.336 1236.53 828.002V803.805ZM1262.02 882.446C1258.4 882.446 1255.32 879.921 1254.18 876.397H1269.86C1268.72 879.921 1265.64 882.446 1262.02 882.446ZM1259.25 843.125C1250.07 843.125 1242.62 851.25 1242.62 861.273V864.298H1275.88V843.125H1259.25ZM1336.85 873.372C1336.85 878.383 1333.12 882.446 1328.53 882.446C1323.94 882.446 1320.22 878.383 1320.22 873.372C1320.22 868.36 1323.94 864.298 1328.53 864.298C1333.12 864.298 1336.85 868.36 1336.85 873.372Z" fill="#E01111" fill-opacity="0.5"/>
<path fill-rule="evenodd" clip-rule="evenodd" d="M1256.78 34.0779C1253.68 34.0779 1251.16 36.6208 1251.16 39.7575V62.4761C1251.16 65.6129 1253.68 68.1558 1256.78 68.1558H1279.26C1282.37 68.1558 1284.88 65.6129 1284.88 62.4761V39.7575C1284.88 36.6208 1282.37 34.0779 1279.26 34.0779H1256.78ZM1262.4 56.7965V45.4372H1273.64V56.7965H1262.4Z" fill="#E01111" fill-opacity="0.5"/>
<path fill-rule="evenodd" clip-rule="evenodd" d="M1251.16 11.3593H1235.43C1231.71 11.3593 1228.69 14.4107 1228.69 18.1749V34.0779L1223.07 34.0779C1219.96 34.0779 1217.45 36.6208 1217.45 39.7575C1217.45 42.8943 1219.96 45.4372 1223.07 45.4372L1228.69 45.4372V56.7965H1223.07C1219.96 56.7965 1217.45 59.3393 1217.45 62.4761C1217.45 65.6129 1219.96 68.1558 1223.07 68.1558H1228.69V84.0588C1228.69 87.8229 1231.71 90.8744 1235.43 90.8744H1251.16L1251.16 96.554C1251.16 99.6908 1253.68 102.234 1256.78 102.234C1259.89 102.234 1262.4 99.6908 1262.4 96.554V90.8744H1273.64V96.554C1273.64 99.6908 1276.16 102.234 1279.26 102.234C1282.37 102.234 1284.88 99.6908 1284.88 96.554L1284.88 90.8744H1300.62C1304.34 90.8744 1307.36 87.8229 1307.36 84.0588V68.1558H1312.98C1316.08 68.1558 1318.6 65.6129 1318.6 62.4761C1318.6 59.3393 1316.08 56.7965 1312.98 56.7965H1307.36V45.4372H1312.98C1316.08 45.4372 1318.6 42.8943 1318.6 39.7575C1318.6 36.6208 1316.08 34.0779 1312.98 34.0779H1307.36V18.1749C1307.36 14.4107 1304.34 11.3593 1300.62 11.3593H1284.88L1284.88 5.67965C1284.88 2.54287 1282.37 0 1279.26 0C1276.16 0 1273.64 2.54286 1273.64 5.67965L1273.64 11.3593H1262.4L1262.4 5.67965C1262.4 2.54287 1259.89 0 1256.78 0C1253.68 0 1251.16 2.54286 1251.16 5.67965L1251.16 11.3593ZM1239.93 22.7186V79.5151H1296.12V22.7186H1239.93Z" fill="#E01111" fill-opacity="0.5"/>
<path fill-rule="evenodd" clip-rule="evenodd" d="M1356.45 900.714C1356.45 892.036 1362.36 885 1369.65 885H1463.25C1470.54 885 1476.45 892.036 1476.45 900.714V969.286C1476.45 977.964 1470.54 985 1463.25 985H1369.65C1362.36 985 1356.45 977.964 1356.45 969.286V900.714ZM1369.65 897.857H1463.25C1464.57 897.857 1465.65 899.136 1465.65 900.714V913.571H1367.25V900.714C1367.25 899.136 1368.32 897.857 1369.65 897.857ZM1367.25 935V969.286C1367.25 970.864 1368.32 972.143 1369.65 972.143H1463.25C1464.57 972.143 1465.65 970.864 1465.65 969.286V935H1367.25Z" fill="#E01111" fill-opacity="0.5"/>
<path d="M1428.45 956.429C1428.45 952.484 1431.13 949.286 1434.45 949.286H1446.45C1449.76 949.286 1452.45 952.484 1452.45 956.429C1452.45 960.373 1449.76 963.571 1446.45 963.571H1434.45C1431.13 963.571 1428.45 960.373 1428.45 956.429Z" fill="#E01111" fill-opacity="0.5"/>
<path fill-rule="evenodd" clip-rule="evenodd" d="M1405.59 346.972V336.991C1405.59 334.234 1402.88 332 1399.55 332H1370.6C1367.27 332 1364.57 334.234 1364.57 336.991V351.963H1346.48C1343.15 351.963 1340.45 354.197 1340.45 356.953V426.823C1340.45 429.579 1343.15 431.814 1346.48 431.814H1423.08C1426.41 431.814 1429.11 429.579 1429.11 426.823V399.235L1431.91 427.419C1432.19 430.166 1435.1 432.209 1438.42 431.983L1454.91 430.858C1458.23 430.631 1460.7 428.221 1460.43 425.474L1454.18 362.751C1453.91 360.004 1450.99 357.961 1447.67 358.187L1431.18 359.312C1430.44 359.363 1429.74 359.522 1429.11 359.769V351.963C1429.11 349.206 1426.41 346.972 1423.08 346.972H1405.59ZM1375.43 349.467H1394.73V340.983H1375.43V349.467ZM1394.73 354.458H1375.43V409.356H1394.73V354.458ZM1394.73 414.346H1375.43V422.831H1394.73V414.346ZM1405.59 355.955V422.831H1418.25V355.955H1405.59ZM1351.3 360.946H1364.57V422.831H1351.3V360.946ZM1443.76 367.468L1449.21 422.233L1442.34 422.702L1436.88 367.937L1443.76 367.468Z" fill="#E01111" fill-opacity="0.5"/>
<path fill-rule="evenodd" clip-rule="evenodd" d="M1388.22 101.627C1390.3 103.797 1390.3 107.314 1388.22 109.484L1359.26 139.647C1356.97 142.033 1353.26 142.033 1350.97 139.647L1338.01 126.151C1335.93 123.981 1335.93 120.463 1338.01 118.294C1340.09 116.124 1343.47 116.124 1345.55 118.294L1355.11 128.254L1380.68 101.627C1382.76 99.4576 1386.14 99.4576 1388.22 101.627Z" fill="#E01111" fill-opacity="0.5"/>
<path fill-rule="evenodd" clip-rule="evenodd" d="M1411.11 122.222H1388.78C1388.69 122.222 1388.64 122.117 1388.71 122.053L1399.18 111.142C1399.2 111.122 1399.23 111.111 1399.25 111.111H1415.91C1419.15 111.111 1421.78 113.847 1421.78 117.222V130.556H1434.67C1436.37 130.556 1438 131.258 1439.2 132.508L1454.57 148.524C1455.77 149.774 1456.45 151.47 1456.45 153.238V177.222C1456.45 180.597 1453.82 183.333 1450.58 183.333H1443.11C1443.11 192.538 1435.95 200 1427.11 200C1418.28 200 1411.11 192.538 1411.11 183.333H1384.45C1384.45 192.538 1377.28 200 1368.45 200C1359.61 200 1352.45 192.538 1352.45 183.333H1342.31C1339.07 183.333 1336.45 180.597 1336.45 177.222V138.889C1336.45 138.554 1336.48 138.227 1336.53 137.909C1336.54 137.829 1336.64 137.801 1336.7 137.859L1347.09 148.681C1347.1 148.699 1347.11 148.724 1347.11 148.75V172.222H1356.52C1359.45 168.813 1363.71 166.667 1368.45 166.667C1373.19 166.667 1377.44 168.813 1380.37 172.222H1411.11V122.222ZM1421.78 161.111V141.667H1432.91L1445.78 155.079V161.111H1421.78ZM1368.45 190C1371.98 190 1374.85 187.015 1374.85 183.333C1374.85 179.651 1371.98 176.667 1368.45 176.667C1364.91 176.667 1362.05 179.651 1362.05 183.333C1362.05 187.015 1364.91 190 1368.45 190ZM1433.51 183.333C1433.51 187.015 1430.65 190 1427.11 190C1423.58 190 1420.71 187.015 1420.71 183.333C1420.71 179.651 1423.58 176.667 1427.11 176.667C1430.65 176.667 1433.51 179.651 1433.51 183.333Z" fill="#E01111" fill-opacity="0.5"/>
<path d="M1665.62 223.796C1664.56 223.796 1663.69 224.522 1663.69 225.417V228.657C1663.69 229.552 1664.56 230.278 1665.62 230.278H1673.31C1674.37 230.278 1675.23 229.552 1675.23 228.657V225.417C1675.23 224.522 1674.37 223.796 1673.31 223.796H1665.62Z" fill="#E01111" fill-opacity="0.5"/>
<path fill-rule="evenodd" clip-rule="evenodd" d="M1648.31 220.556C1648.31 215.186 1653.48 210.833 1659.85 210.833H1736.77C1743.14 210.833 1748.31 215.186 1748.31 220.556V259.444C1748.31 264.814 1743.14 269.167 1736.77 269.167H1659.85C1653.48 269.167 1648.31 264.814 1648.31 259.444V220.556ZM1656 220.556C1656 218.766 1657.72 217.315 1659.85 217.315H1736.77C1738.9 217.315 1740.62 218.766 1740.62 220.556V231.545L1733.64 225.605C1732.26 224.451 1730.48 223.796 1728.55 223.796H1694.99C1693.06 223.796 1691.28 224.451 1689.9 225.605L1681.44 232.808C1679.92 234.118 1679.08 235.865 1679.08 237.736C1679.08 239.42 1679.81 241.041 1681 242.195L1704.97 262.685H1659.85C1657.72 262.685 1656 261.234 1656 259.444V220.556ZM1718.57 262.685H1736.77C1738.9 262.685 1740.62 261.234 1740.62 259.444V243.889C1738.13 246.017 1732.29 250.997 1718.57 262.685ZM1714.31 233.339L1719.58 228.848H1703.96L1709.23 233.339C1709.88 233.931 1710.79 234.243 1711.77 234.243C1712.75 234.243 1713.66 233.931 1714.31 233.339ZM1712.72 260.5C1712.83 260.406 1738.14 238.827 1738.14 238.827C1738.4 238.609 1738.58 238.172 1738.54 237.704C1738.54 237.237 1738.36 236.8 1738 236.457L1729.46 229.191C1729.21 228.973 1728.88 228.848 1728.52 228.848C1728.12 228.848 1727.83 228.942 1727.61 229.129L1718.49 236.925C1716.68 238.453 1714.31 239.295 1711.77 239.295C1709.23 239.295 1706.87 238.453 1705.05 236.956L1695.93 229.16C1695.75 228.973 1695.43 228.879 1695.14 228.879H1695.03C1694.66 228.91 1694.34 229.004 1694.08 229.222L1685.62 236.426C1685.15 236.831 1684.96 237.268 1684.96 237.736C1684.96 238.172 1685.15 238.609 1685.51 238.952C1685.51 238.952 1710.68 260.406 1710.83 260.5C1711.08 260.718 1711.41 260.843 1711.77 260.843C1712.14 260.843 1712.46 260.749 1712.72 260.5Z" fill="#E01111" fill-opacity="0.5"/>
<path fill-rule="evenodd" clip-rule="evenodd" d="M1528.41 419.427C1528.41 416.455 1530.57 414.046 1533.23 414.046H1545.27C1547.41 414.046 1549.3 415.625 1549.9 417.921L1553.1 430.189H1624.75C1626.29 430.189 1627.75 431.02 1628.65 432.423C1629.56 433.826 1629.81 435.63 1629.32 437.271L1614.87 485.697C1614.21 487.894 1612.37 489.376 1610.3 489.376H1562.13C1559.99 489.376 1558.11 487.798 1557.51 485.502L1541.66 424.808H1533.23C1530.57 424.808 1528.41 422.399 1528.41 419.427ZM1555.91 440.95L1565.74 478.615H1606.83L1618.06 440.95H1555.91Z" fill="#E01111" fill-opacity="0.5"/>
<path d="M1576.58 505.519C1576.58 511.462 1572.27 516.28 1566.95 516.28C1561.63 516.28 1557.31 511.462 1557.31 505.519C1557.31 499.575 1561.63 494.757 1566.95 494.757C1572.27 494.757 1576.58 499.575 1576.58 505.519Z" fill="#E01111" fill-opacity="0.5"/>
<path d="M1605.48 516.28C1610.8 516.28 1615.11 511.462 1615.11 505.519C1615.11 499.575 1610.8 494.757 1605.48 494.757C1600.16 494.757 1595.85 499.575 1595.85 505.519C1595.85 511.462 1600.16 516.28 1605.48 516.28Z" fill="#E01111" fill-opacity="0.5"/>
<path fill-rule="evenodd" clip-rule="evenodd" d="M1698.34 668.864H1722.62C1722.62 679.45 1730.77 688.033 1740.83 688.033C1750.88 688.033 1759.03 679.45 1759.03 668.864H1764.5C1768.18 668.864 1771.17 665.717 1771.17 661.835V632.217C1771.17 630.607 1770.69 629.038 1769.8 627.732L1756.38 608.15C1755.01 606.152 1752.82 604.968 1750.48 604.968H1740.83V592.828C1740.83 588.946 1737.84 585.799 1734.15 585.799H1656.47C1652.78 585.799 1649.79 588.946 1649.79 592.828V661.835C1649.79 665.717 1652.78 668.864 1656.47 668.864H1661.93C1661.93 679.45 1670.08 688.033 1680.14 688.033C1690.19 688.033 1698.34 679.45 1698.34 668.864ZM1661.93 598.578V656.085H1666.57C1669.9 652.163 1674.75 649.695 1680.14 649.695C1685.53 649.695 1690.37 652.163 1693.71 656.085H1727.26C1727.71 655.554 1728.19 655.051 1728.69 654.576V598.578H1661.93ZM1740.83 617.747V636.916H1759.03V633.868L1747.99 617.747H1740.83ZM1740.8 662.474C1737.47 662.49 1734.77 665.329 1734.76 668.835L1734.76 668.864C1734.76 672.393 1737.48 675.253 1740.83 675.253C1744.18 675.253 1746.9 672.393 1746.9 668.864C1746.9 665.335 1744.18 662.474 1740.83 662.474L1740.8 662.474ZM1687.42 668.864C1687.42 673.098 1684.16 676.531 1680.14 676.531C1676.12 676.531 1672.86 673.098 1672.86 668.864C1672.86 664.629 1676.12 661.196 1680.14 661.196C1684.16 661.196 1687.42 664.629 1687.42 668.864Z" fill="#E01111" fill-opacity="0.5"/>
<path fill-rule="evenodd" clip-rule="evenodd" d="M1538.94 792.311C1533.13 792.311 1528.41 797.457 1528.41 803.805V828.002C1528.41 834.35 1533.13 839.496 1538.94 839.496H1541.88C1536.65 844.998 1533.4 852.721 1533.4 861.273V864.298C1533.4 870.98 1538.36 876.397 1544.49 876.397H1544.68C1546.03 886.657 1554.11 894.545 1563.89 894.545C1573.66 894.545 1581.74 886.657 1583.09 876.397H1600.38L1618.98 840.305L1621.47 854.567C1615.25 858.093 1611 865.19 1611 873.372C1611 885.065 1619.68 894.545 1630.39 894.545C1641.11 894.545 1649.79 885.065 1649.79 873.372C1649.79 862.403 1642.15 853.382 1632.36 852.306L1628.12 828.002H1630.39C1633.46 828.002 1635.94 825.293 1635.94 821.952C1635.94 818.611 1633.46 815.903 1630.39 815.903H1626.01L1624.93 809.705C1624.33 806.281 1621.59 803.804 1618.39 803.804H1608.22C1605.16 803.804 1602.68 806.513 1602.68 809.854C1602.68 813.195 1605.16 815.903 1608.22 815.903H1614.72L1615.76 821.869L1593.9 864.298H1588.83V840.1C1588.83 835.089 1585.1 831.026 1580.51 831.026H1571.28C1571.52 830.063 1571.64 829.049 1571.64 828.002V803.805C1571.64 797.457 1566.93 792.311 1561.11 792.311H1538.94ZM1538.39 803.805C1538.39 803.471 1538.64 803.2 1538.94 803.2H1561.11C1561.42 803.2 1561.67 803.471 1561.67 803.805V828.002C1561.67 828.336 1561.42 828.607 1561.11 828.607H1538.94C1538.64 828.607 1538.39 828.336 1538.39 828.002V803.805ZM1563.89 882.446C1560.27 882.446 1557.19 879.921 1556.05 876.397H1571.73C1570.59 879.921 1567.51 882.446 1563.89 882.446ZM1561.11 843.125C1551.93 843.125 1544.49 851.25 1544.49 861.273V864.298H1577.74V843.125H1561.11ZM1638.71 873.372C1638.71 878.383 1634.99 882.446 1630.39 882.446C1625.8 882.446 1622.08 878.383 1622.08 873.372C1622.08 868.36 1625.8 864.298 1630.39 864.298C1634.99 864.298 1638.71 868.36 1638.71 873.372Z" fill="#E01111" fill-opacity="0.5"/>
<path fill-rule="evenodd" clip-rule="evenodd" d="M1558.65 34.0779C1555.54 34.0779 1553.03 36.6208 1553.03 39.7575V62.4761C1553.03 65.6129 1555.54 68.1558 1558.65 68.1558H1581.12C1584.23 68.1558 1586.74 65.6129 1586.74 62.4761V39.7575C1586.74 36.6208 1584.23 34.0779 1581.12 34.0779H1558.65ZM1564.27 56.7965V45.4372H1575.5V56.7965H1564.27Z" fill="#E01111" fill-opacity="0.5"/>
<path fill-rule="evenodd" clip-rule="evenodd" d="M1553.03 11.3593H1537.29C1533.57 11.3593 1530.55 14.4107 1530.55 18.1749V34.0779L1524.93 34.0779C1521.83 34.0779 1519.31 36.6208 1519.31 39.7575C1519.31 42.8943 1521.83 45.4372 1524.93 45.4372L1530.55 45.4372V56.7965H1524.93C1521.83 56.7965 1519.31 59.3393 1519.31 62.4761C1519.31 65.6129 1521.83 68.1558 1524.93 68.1558H1530.55V84.0588C1530.55 87.8229 1533.57 90.8744 1537.29 90.8744H1553.03L1553.03 96.554C1553.03 99.6908 1555.54 102.234 1558.65 102.234C1561.75 102.234 1564.27 99.6908 1564.27 96.554V90.8744H1575.5V96.554C1575.5 99.6908 1578.02 102.234 1581.12 102.234C1584.23 102.234 1586.74 99.6908 1586.74 96.554L1586.74 90.8744H1602.48C1606.2 90.8744 1609.22 87.8229 1609.22 84.0588V68.1558H1614.84C1617.94 68.1558 1620.46 65.6129 1620.46 62.4761C1620.46 59.3393 1617.94 56.7965 1614.84 56.7965H1609.22V45.4372H1614.84C1617.94 45.4372 1620.46 42.8943 1620.46 39.7575C1620.46 36.6208 1617.94 34.0779 1614.84 34.0779H1609.22V18.1749C1609.22 14.4107 1606.2 11.3593 1602.48 11.3593H1586.74L1586.74 5.67965C1586.74 2.54287 1584.23 0 1581.12 0C1578.02 0 1575.5 2.54286 1575.5 5.67965L1575.5 11.3593H1564.27L1564.27 5.67965C1564.27 2.54287 1561.75 0 1558.65 0C1555.54 0 1553.03 2.54286 1553.03 5.67965L1553.03 11.3593ZM1541.79 22.7186V79.5151H1597.98V22.7186H1541.79Z" fill="#E01111" fill-opacity="0.5"/>
<path fill-rule="evenodd" clip-rule="evenodd" d="M1714.31 900.714C1714.31 892.036 1720.22 885 1727.51 885H1821.11C1828.4 885 1834.31 892.036 1834.31 900.714V969.286C1834.31 977.964 1828.4 985 1821.11 985H1727.51C1720.22 985 1714.31 977.964 1714.31 969.286V900.714ZM1727.51 897.857H1821.11C1822.44 897.857 1823.51 899.136 1823.51 900.714V913.571H1725.11V900.714C1725.11 899.136 1726.18 897.857 1727.51 897.857ZM1725.11 935V969.286C1725.11 970.864 1726.18 972.143 1727.51 972.143H1821.11C1822.44 972.143 1823.51 970.864 1823.51 969.286V935H1725.11Z" fill="#E01111" fill-opacity="0.5"/>
<path d="M1786.31 956.429C1786.31 952.484 1789 949.286 1792.31 949.286H1804.31C1807.62 949.286 1810.31 952.484 1810.31 956.429C1810.31 960.373 1807.62 963.571 1804.31 963.571H1792.31C1789 963.571 1786.31 960.373 1786.31 956.429Z" fill="#E01111" fill-opacity="0.5"/>
<path fill-rule="evenodd" clip-rule="evenodd" d="M1763.45 346.972V336.991C1763.45 334.234 1760.75 332 1757.42 332H1728.47C1725.14 332 1722.44 334.234 1722.44 336.991V351.963H1704.34C1701.01 351.963 1698.31 354.197 1698.31 356.953V426.823C1698.31 429.579 1701.01 431.814 1704.34 431.814H1780.94C1784.27 431.814 1786.97 429.579 1786.97 426.823V399.235L1789.78 427.419C1790.05 430.166 1792.96 432.209 1796.28 431.983L1812.77 430.858C1816.09 430.631 1818.56 428.221 1818.29 425.474L1812.04 362.751C1811.77 360.004 1808.85 357.961 1805.53 358.187L1789.04 359.312C1788.3 359.363 1787.6 359.522 1786.97 359.769V351.963C1786.97 349.206 1784.27 346.972 1780.94 346.972H1763.45ZM1733.29 349.467H1752.59V340.983H1733.29V349.467ZM1752.59 354.458H1733.29V409.356H1752.59V354.458ZM1752.59 414.346H1733.29V422.831H1752.59V414.346ZM1763.45 355.955V422.831H1776.11V355.955H1763.45ZM1709.17 360.946H1722.44V422.831H1709.17V360.946ZM1801.62 367.468L1807.07 422.233L1800.2 422.702L1794.74 367.937L1801.62 367.468Z" fill="#E01111" fill-opacity="0.5"/>
<path fill-rule="evenodd" clip-rule="evenodd" d="M1746.08 101.627C1748.16 103.797 1748.16 107.314 1746.08 109.484L1717.13 139.647C1714.83 142.033 1711.12 142.033 1708.83 139.647L1695.87 126.151C1693.79 123.981 1693.79 120.463 1695.87 118.294C1697.96 116.124 1701.33 116.124 1703.41 118.294L1712.98 128.254L1738.54 101.627C1740.62 99.4576 1744 99.4576 1746.08 101.627Z" fill="#E01111" fill-opacity="0.5"/>
<path fill-rule="evenodd" clip-rule="evenodd" d="M1768.98 122.222H1746.64C1746.55 122.222 1746.51 122.117 1746.57 122.053L1757.04 111.142C1757.06 111.122 1757.09 111.111 1757.11 111.111H1773.78C1777.02 111.111 1779.64 113.847 1779.64 117.222V130.556H1792.54C1794.23 130.556 1795.86 131.258 1797.06 132.508L1812.44 148.524C1813.64 149.774 1814.31 151.47 1814.31 153.238V177.222C1814.31 180.597 1811.68 183.333 1808.44 183.333H1800.98C1800.98 192.538 1793.81 200 1784.98 200C1776.14 200 1768.98 192.538 1768.98 183.333H1742.31C1742.31 192.538 1735.15 200 1726.31 200C1717.47 200 1710.31 192.538 1710.31 183.333H1700.18C1696.94 183.333 1694.31 180.597 1694.31 177.222V138.889C1694.31 138.554 1694.34 138.227 1694.39 137.909C1694.41 137.829 1694.5 137.801 1694.56 137.859L1704.95 148.681C1704.97 148.699 1704.98 148.724 1704.98 148.75V172.222H1714.38C1717.31 168.813 1721.57 166.667 1726.31 166.667C1731.05 166.667 1735.31 168.813 1738.24 172.222H1768.98V122.222ZM1779.64 161.111V141.667H1790.77L1803.64 155.079V161.111H1779.64ZM1726.31 190C1729.84 190 1732.71 187.015 1732.71 183.333C1732.71 179.651 1729.84 176.667 1726.31 176.667C1722.78 176.667 1719.91 179.651 1719.91 183.333C1719.91 187.015 1722.78 190 1726.31 190ZM1791.38 183.333C1791.38 187.015 1788.51 190 1784.98 190C1781.44 190 1778.58 187.015 1778.58 183.333C1778.58 179.651 1781.44 176.667 1784.98 176.667C1788.51 176.667 1791.38 179.651 1791.38 183.333Z" fill="#E01111" fill-opacity="0.5"/>
<path fill-rule="evenodd" clip-rule="evenodd" d="M-79 902.714C-79 894.036 -73.0902 887 -65.8 887H27.8C35.0902 887 41 894.036 41 902.714V971.286C41 979.964 35.0902 987 27.8 987H-65.8C-73.0902 987 -79 979.964 -79 971.286V902.714ZM-65.8 899.857H27.8C29.1255 899.857 30.2 901.136 30.2 902.714V915.571H-68.2V902.714C-68.2 901.136 -67.1255 899.857 -65.8 899.857ZM-68.2 937V971.286C-68.2 972.864 -67.1255 974.143 -65.8 974.143H27.8C29.1255 974.143 30.2 972.864 30.2 971.286V937H-68.2Z" fill="#E01111" fill-opacity="0.5"/>
<path d="M-7 958.429C-7 954.484 -4.31371 951.286 -1 951.286H11C14.3137 951.286 17 954.484 17 958.429C17 962.373 14.3137 965.571 11 965.571H-1C-4.31371 965.571 -7 962.373 -7 958.429Z" fill="#E01111" fill-opacity="0.5"/>
<path fill-rule="evenodd" clip-rule="evenodd" d="M-29.863 348.972V338.991C-29.863 336.234 -32.5633 334 -35.8942 334H-64.844C-68.1749 334 -70.8752 336.234 -70.8752 338.991V353.963H-88.9688C-92.2997 353.963 -95 356.197 -95 358.953V428.823C-95 431.579 -92.2997 433.814 -88.9688 433.814H-12.3726C-9.04161 433.814 -6.34136 431.579 -6.34136 428.823V401.235L-3.53357 429.419C-3.25991 432.166 -0.346937 434.209 2.97275 433.983L19.464 432.858C22.7837 432.631 25.2529 430.221 24.9793 427.474L18.7307 364.751C18.457 362.004 15.5441 359.961 12.2244 360.187L-4.26684 361.312C-5.00771 361.363 -5.70623 361.522 -6.34136 361.769V353.963C-6.34136 351.206 -9.04162 348.972 -12.3726 348.972H-29.863ZM-60.019 351.467H-40.7192V342.983H-60.019V351.467ZM-40.7192 356.458H-60.019V411.356H-40.7192V356.458ZM-40.7192 416.346H-60.019V424.831H-40.7192V416.346ZM-29.863 357.955V424.831H-17.1975V357.955H-29.863ZM-84.1438 362.946H-70.8752V424.831H-84.1438V362.946ZM8.30764 369.468L13.7634 424.233L6.8895 424.702L1.43371 369.937L8.30764 369.468Z" fill="#E01111" fill-opacity="0.5"/>
<path fill-rule="evenodd" clip-rule="evenodd" d="M-47.2288 103.627C-45.146 105.797 -45.146 109.314 -47.2288 111.484L-76.185 141.647C-78.476 144.033 -82.1906 144.033 -84.4817 141.647L-97.4379 128.151C-99.5207 125.981 -99.5207 122.463 -97.4379 120.294C-95.3551 118.124 -91.9782 118.124 -89.8954 120.294L-80.3333 130.254L-54.7712 103.627C-52.6884 101.458 -49.3116 101.458 -47.2288 103.627Z" fill="#E01111" fill-opacity="0.5"/>
<path fill-rule="evenodd" clip-rule="evenodd" d="M-24.3333 124.222H-46.6706C-46.7587 124.222 -46.8038 124.117 -46.7428 124.053L-36.2681 113.142C-36.2492 113.122 -36.2232 113.111 -36.196 113.111H-19.5333C-16.2933 113.111 -13.6667 115.847 -13.6667 119.222V132.556H-0.775164C0.922224 132.556 2.55009 133.258 3.75033 134.508L19.1255 150.524C20.3257 151.774 21 153.47 21 155.238V179.222C21 182.597 18.3734 185.333 15.1333 185.333H7.66667C7.66667 194.538 0.503228 202 -8.33333 202C-17.1699 202 -24.3333 194.538 -24.3333 185.333H-51C-51 194.538 -58.1634 202 -67 202C-75.8366 202 -83 194.538 -83 185.333H-93.1333C-96.3734 185.333 -99 182.597 -99 179.222V140.889C-99 140.554 -98.9716 140.227 -98.9172 139.909C-98.9037 139.829 -98.806 139.801 -98.7502 139.859L-88.3612 150.681C-88.3433 150.699 -88.3333 150.724 -88.3333 150.75V174.222H-78.9259C-75.9962 170.813 -71.7387 168.667 -67 168.667C-62.2613 168.667 -58.0038 170.813 -55.0741 174.222H-24.3333V124.222ZM-13.6667 163.111V143.667H-2.54247L10.3333 157.079V163.111H-13.6667ZM-67 192C-63.4654 192 -60.6 189.015 -60.6 185.333C-60.6 181.651 -63.4654 178.667 -67 178.667C-70.5346 178.667 -73.4 181.651 -73.4 185.333C-73.4 189.015 -70.5346 192 -67 192ZM-1.93333 185.333C-1.93333 189.015 -4.7987 192 -8.33333 192C-11.868 192 -14.7333 189.015 -14.7333 185.333C-14.7333 181.651 -11.868 178.667 -8.33333 178.667C-4.7987 178.667 -1.93333 181.651 -1.93333 185.333Z" fill="#E01111" fill-opacity="0.5"/>
</g>
<path fill-rule="evenodd" clip-rule="evenodd" d="M635 925.714C635 917.036 640.91 910 648.2 910H741.8C749.09 910 755 917.036 755 925.714V994.286C755 1002.96 749.09 1010 741.8 1010H648.2C640.91 1010 635 1002.96 635 994.286V925.714ZM648.2 922.857H741.8C743.125 922.857 744.2 924.136 744.2 925.714V938.571H645.8V925.714C645.8 924.136 646.875 922.857 648.2 922.857ZM645.8 960V994.286C645.8 995.864 646.875 997.143 648.2 997.143H741.8C743.125 997.143 744.2 995.864 744.2 994.286V960H645.8Z" fill="#E01111" fill-opacity="0.5"/>
<path d="M707 981.429C707 977.484 709.686 974.286 713 974.286H725C728.314 974.286 731 977.484 731 981.429C731 985.373 728.314 988.571 725 988.571H713C709.686 988.571 707 985.373 707 981.429Z" fill="#E01111" fill-opacity="0.5"/>
<path fill-rule="evenodd" clip-rule="evenodd" d="M684.137 371.972V361.991C684.137 359.234 681.437 357 678.106 357H649.156C645.825 357 643.125 359.234 643.125 361.991V376.963H625.031C621.7 376.963 619 379.197 619 381.953V451.823C619 454.579 621.7 456.814 625.031 456.814H701.627C704.958 456.814 707.659 454.579 707.659 451.823V424.235L710.466 452.419C710.74 455.166 713.653 457.209 716.973 456.983L733.464 455.858C736.784 455.631 739.253 453.221 738.979 450.474L732.731 387.751C732.457 385.004 729.544 382.961 726.224 383.187L709.733 384.312C708.992 384.363 708.294 384.522 707.659 384.769V376.963C707.659 374.206 704.958 371.972 701.627 371.972H684.137ZM653.981 374.467H673.281V365.983H653.981V374.467ZM673.281 379.458H653.981V434.356H673.281V379.458ZM673.281 439.346H653.981V447.831H673.281V439.346ZM684.137 380.955V447.831H696.802V380.955H684.137ZM629.856 385.946H643.125V447.831H629.856V385.946ZM722.308 392.468L727.763 447.233L720.889 447.702L715.434 392.937L722.308 392.468Z" fill="#E01111" fill-opacity="0.5"/>
<path fill-rule="evenodd" clip-rule="evenodd" d="M666.771 126.627C668.854 128.797 668.854 132.314 666.771 134.484L637.815 164.647C635.524 167.033 631.809 167.033 629.518 164.647L616.562 151.151C614.479 148.981 614.479 145.463 616.562 143.294C618.645 141.124 622.022 141.124 624.105 143.294L633.667 153.254L659.229 126.627C661.312 124.458 664.688 124.458 666.771 126.627Z" fill="#E01111" fill-opacity="0.5"/>
<path fill-rule="evenodd" clip-rule="evenodd" d="M689.667 147.222H667.329C667.241 147.222 667.196 147.117 667.257 147.053L677.732 136.142C677.751 136.122 677.777 136.111 677.804 136.111H694.467C697.707 136.111 700.333 138.847 700.333 142.222V155.556H713.225C714.922 155.556 716.55 156.258 717.75 157.508L733.125 173.524C734.326 174.774 735 176.47 735 178.238V202.222C735 205.597 732.373 208.333 729.133 208.333H721.667C721.667 217.538 714.503 225 705.667 225C696.83 225 689.667 217.538 689.667 208.333H663C663 217.538 655.837 225 647 225C638.163 225 631 217.538 631 208.333H620.867C617.627 208.333 615 205.597 615 202.222V163.889C615 163.554 615.028 163.227 615.083 162.909C615.096 162.829 615.194 162.801 615.25 162.859L625.639 173.681C625.657 173.699 625.667 173.724 625.667 173.75V197.222H635.074C638.004 193.813 642.261 191.667 647 191.667C651.739 191.667 655.996 193.813 658.926 197.222H689.667V147.222ZM700.333 186.111V166.667H711.458L724.333 180.079V186.111H700.333ZM647 215C650.535 215 653.4 212.015 653.4 208.333C653.4 204.651 650.535 201.667 647 201.667C643.465 201.667 640.6 204.651 640.6 208.333C640.6 212.015 643.465 215 647 215ZM712.067 208.333C712.067 212.015 709.201 215 705.667 215C702.132 215 699.267 212.015 699.267 208.333C699.267 204.651 702.132 201.667 705.667 201.667C709.201 201.667 712.067 204.651 712.067 208.333Z" fill="#E01111" fill-opacity="0.5"/>
<defs>
<clipPath id="clip0_49_157">
<rect width="1920" height="1032" fill="white"/>
</clipPath>
</defs>
</svg>
